SourceSans_ExtraLight-Italic.ufo
<glyph name="numbersign" format="2">
	<unicode hex="0023"/>
	<advance width="458"/>
	<outline>
		<contour>
			<point x="42" y="0" type="line"/>
			<point x="70" y="0" type="line"/>
			<point x="138" y="218" type="line"/>
			<point x="284" y="218" type="line"/>
			<point x="216" y="0" type="line"/>
			<point x="244" y="0" type="line"/>
			<point x="312" y="218" type="line"/>
			<point x="398" y="218" type="line"/>
			<point x="406" y="246" type="line"/>
			<point x="322" y="246" type="line"/>
			<point x="376" y="424" type="line"/>
			<point x="458" y="424" type="line"/>
			<point x="466" y="452" type="line"/>
			<point x="384" y="452" type="line"/>
			<point x="446" y="650" type="line"/>
			<point x="418" y="650" type="line"/>
			<point x="356" y="452" type="line"/>
			<point x="210" y="452" type="line"/>
			<point x="272" y="650" type="line"/>
			<point x="244" y="650" type="line"/>
			<point x="182" y="452" type="line"/>
			<point x="96" y="452" type="line"/>
			<point x="88" y="424" type="line"/>
			<point x="172" y="424" type="line"/>
			<point x="118" y="246" type="line"/>
			<point x="36" y="246" type="line"/>
			<point x="28" y="218" type="line"/>
			<point x="110" y="218" type="line"/>
		</contour>
		<contour>
			<point x="146" y="246" type="line"/>
			<point x="200" y="424" type="line"/>
			<point x="348" y="424" type="line"/>
			<point x="294" y="246" type="line"/>
		</contour>
	</outline>
</glyph>
<glyph name="parenleft" format="1">
	<unicode hex="0028"/>
	<advance width="260"/>
	<outline>
		<contour>
			<point x="128" y="-174" type="curve"/>
			<point x="148" y="-168" type="line"/>
			<point x="116" y="-88"/>
			<point x="100" y="28"/>
			<point x="100" y="128" type="curve" smooth="yes"/>
			<point x="100" y="360"/>
			<point x="180" y="584"/>
			<point x="322" y="716" type="curve"/>
			<point x="304" y="730" type="line"/>
			<point x="160" y="594"/>
			<point x="72" y="378"/>
			<point x="72" y="134" type="curve" smooth="yes"/>
			<point x="72" y="24"/>
			<point x="94" y="-96"/>
		</contour>
	</outline>
</glyph>
<glyph name="two" format="1">
	<unicode hex="0032"/>
	<advance width="456"/>
	<outline>
		<contour>
			<point x="-8" y="0" type="line"/>
			<point x="362" y="0" type="line"/>
			<point x="366" y="26" type="line"/>
			<point x="42" y="26" type="line"/>
			<point x="312" y="258"/>
			<point x="430" y="356"/>
			<point x="430" y="506" type="curve" smooth="yes"/>
			<point x="430" y="588"/>
			<point x="378" y="652"/>
			<point x="278" y="652" type="curve" smooth="yes"/>
			<point x="214" y="652"/>
			<point x="162" y="622"/>
			<point x="106" y="574" type="curve"/>
			<point x="124" y="552" type="line"/>
			<point x="174" y="602"/>
			<point x="228" y="626"/>
			<point x="276" y="626" type="curve" smooth="yes"/>
			<point x="362" y="626"/>
			<point x="402" y="568"/>
			<point x="402" y="500" type="curve" smooth="yes"/>
			<point x="402" y="366"/>
			<point x="288" y="274"/>
			<point x="-6" y="20" type="curve"/>
		</contour>
	</outline>
</glyph>
<glyph name="four" format="1">
	<unicode hex="0034"/>
	<advance width="456"/>
	<outline>
		<contour>
			<point x="296" y="0" type="line"/>
			<point x="335" y="194" type="line"/>
			<point x="426" y="194" type="line"/>
			<point x="432" y="220" type="line"/>
			<point x="340" y="220" type="line"/>
			<point x="424" y="640" type="line"/>
			<point x="404" y="640" type="line"/>
			<point x="22" y="210" type="line"/>
			<point x="20" y="194" type="line"/>
			<point x="307" y="194" type="line"/>
			<point x="268" y="0" type="line"/>
		</contour>
		<contour>
			<point x="66" y="220" type="line"/>
			<point x="306" y="490" type="line" smooth="yes"/>
			<point x="331" y="518"/>
			<point x="358" y="550"/>
			<point x="386" y="586" type="curve"/>
			<point x="390" y="586" type="line"/>
			<point x="380" y="544"/>
			<point x="368" y="501"/>
			<point x="362" y="470" type="curve" smooth="yes"/>
			<point x="312" y="220" type="line"/>
		</contour>
	</outline>
</glyph>
<glyph name="five" format="1">
	<unicode hex="0035"/>
	<advance width="456"/>
	<outline>
		<contour>
			<point x="174" y="-12" type="curve" smooth="yes"/>
			<point x="296" y="-12"/>
			<point x="402" y="84"/>
			<point x="402" y="232" type="curve" smooth="yes"/>
			<point x="402" y="344"/>
			<point x="332" y="400"/>
			<point x="236" y="400" type="curve" smooth="yes"/>
			<point x="194" y="400"/>
			<point x="160" y="388"/>
			<point x="134" y="374" type="curve"/>
			<point x="200" y="614" type="line"/>
			<point x="440" y="614" type="line"/>
			<point x="446" y="640" type="line"/>
			<point x="180" y="640" type="line"/>
			<point x="100" y="352" type="line"/>
			<point x="118" y="338" type="line"/>
			<point x="158" y="360"/>
			<point x="188" y="374"/>
			<point x="236" y="374" type="curve" smooth="yes"/>
			<point x="318" y="374"/>
			<point x="374" y="326"/>
			<point x="374" y="226" type="curve" smooth="yes"/>
			<point x="374" y="100"/>
			<point x="282" y="14"/>
			<point x="180" y="14" type="curve" smooth="yes"/>
			<point x="88" y="14"/>
			<point x="50" y="66"/>
			<point x="24" y="108" type="curve"/>
			<point x="2" y="92" type="line"/>
			<point x="28" y="46"/>
			<point x="80" y="-12"/>
		</contour>
	</outline>
</glyph>
<glyph name="six" format="1">
	<unicode hex="0036"/>
	<advance width="456"/>
	<outline>
		<contour>
			<point x="212" y="-12" type="curve" smooth="yes"/>
			<point x="320" y="-12"/>
			<point x="408" y="86"/>
			<point x="408" y="212" type="curve" smooth="yes"/>
			<point x="408" y="308"/>
			<point x="352" y="378"/>
			<point x="254" y="378" type="curve" smooth="yes"/>
			<point x="201" y="378"/>
			<point x="131" y="350"/>
			<point x="80" y="288" type="curve"/>
			<point x="78" y="250" type="line"/>
			<point x="139" y="330"/>
			<point x="215" y="350"/>
			<point x="252" y="350" type="curve" smooth="yes"/>
			<point x="336" y="350"/>
			<point x="380" y="292"/>
			<point x="380" y="202" type="curve" smooth="yes"/>
			<point x="380" y="102"/>
			<point x="300" y="14"/>
			<point x="214" y="14" type="curve" smooth="yes"/>
			<point x="130" y="14"/>
			<point x="80" y="94"/>
			<point x="80" y="202" type="curve" smooth="yes"/>
			<point x="80" y="434"/>
			<point x="194" y="626"/>
			<point x="332" y="626" type="curve" smooth="yes"/>
			<point x="380" y="626"/>
			<point x="414" y="605"/>
			<point x="438" y="560" type="curve"/>
			<point x="462" y="576" type="line"/>
			<point x="436" y="623"/>
			<point x="396" y="652"/>
			<point x="334" y="652" type="curve" smooth="yes"/>
			<point x="174" y="652"/>
			<point x="52" y="456"/>
			<point x="52" y="196" type="curve" smooth="yes"/>
			<point x="52" y="76"/>
			<point x="112" y="-12"/>
		</contour>
	</outline>
</glyph>
<glyph name="nine" format="1">
	<unicode hex="0039"/>
	<advance width="456"/>
	<outline>
		<contour>
			<point x="148" y="-12" type="curve" smooth="yes"/>
			<point x="308" y="-12"/>
			<point x="430" y="184"/>
			<point x="430" y="444" type="curve" smooth="yes"/>
			<point x="430" y="564"/>
			<point x="370" y="652"/>
			<point x="270" y="652" type="curve" smooth="yes"/>
			<point x="162" y="652"/>
			<point x="74" y="554"/>
			<point x="74" y="428" type="curve" smooth="yes"/>
			<point x="74" y="332"/>
			<point x="130" y="262"/>
			<point x="228" y="262" type="curve" smooth="yes"/>
			<point x="281" y="262"/>
			<point x="352" y="289"/>
			<point x="402" y="352" type="curve"/>
			<point x="404" y="390" type="line"/>
			<point x="343" y="309"/>
			<point x="267" y="290"/>
			<point x="230" y="290" type="curve" smooth="yes"/>
			<point x="146" y="290"/>
			<point x="102" y="348"/>
			<point x="102" y="438" type="curve" smooth="yes"/>
			<point x="102" y="538"/>
			<point x="182" y="626"/>
			<point x="268" y="626" type="curve" smooth="yes"/>
			<point x="352" y="626"/>
			<point x="402" y="546"/>
			<point x="402" y="438" type="curve" smooth="yes"/>
			<point x="402" y="206"/>
			<point x="288" y="14"/>
			<point x="150" y="14" type="curve" smooth="yes"/>
			<point x="102" y="14"/>
			<point x="68" y="35"/>
			<point x="44" y="80" type="curve"/>
			<point x="20" y="64" type="line"/>
			<point x="46" y="17"/>
			<point x="86" y="-12"/>
		</contour>
	</outline>
</glyph>
<glyph name="at" format="2">
	<unicode hex="0040"/>
	<advance width="772"/>
	<outline>
		<contour>
			<point x="330" y="-142" type="curve" smooth="yes"/>
			<point x="384" y="-142"/>
			<point x="440" y="-130"/>
			<point x="492" y="-100" type="curve"/>
			<point x="480" y="-78" type="line"/>
			<point x="436" y="-104"/>
			<point x="390" y="-116"/>
			<point x="332" y="-116" type="curve" smooth="yes"/>
			<point x="180" y="-116"/>
			<point x="74" y="-8"/>
			<point x="74" y="170" type="curve" smooth="yes"/>
			<point x="74" y="414"/>
			<point x="266" y="600"/>
			<point x="460" y="600" type="curve" smooth="yes"/>
			<point x="620" y="600"/>
			<point x="706" y="494"/>
			<point x="706" y="334" type="curve" smooth="yes"/>
			<point x="706" y="174"/>
			<point x="626" y="80"/>
			<point x="552" y="80" type="curve" smooth="yes"/>
			<point x="492" y="80"/>
			<point x="478" y="132"/>
			<point x="494" y="200" type="curve" smooth="yes"/>
			<point x="542" y="412" type="line"/>
			<point x="518" y="412" type="line"/>
			<point x="506" y="368" type="line"/>
			<point x="504" y="368" type="line"/>
			<point x="486" y="400"/>
			<point x="460" y="420"/>
			<point x="428" y="420" type="curve" smooth="yes"/>
			<point x="322" y="420"/>
			<point x="238" y="302"/>
			<point x="238" y="190" type="curve" smooth="yes"/>
			<point x="238" y="104"/>
			<point x="292" y="62"/>
			<point x="346" y="62" type="curve" smooth="yes"/>
			<point x="392" y="62"/>
			<point x="428" y="92"/>
			<point x="462" y="130" type="curve"/>
			<point x="464" y="130" type="line"/>
			<point x="472" y="86"/>
			<point x="500" y="54"/>
			<point x="548" y="54" type="curve" smooth="yes"/>
			<point x="640" y="54"/>
			<point x="734" y="158"/>
			<point x="734" y="340" type="curve" smooth="yes"/>
			<point x="734" y="510"/>
			<point x="636" y="626"/>
			<point x="462" y="626" type="curve" smooth="yes"/>
			<point x="252" y="626"/>
			<point x="46" y="430"/>
			<point x="46" y="164" type="curve" smooth="yes"/>
			<point x="46" y="-24"/>
			<point x="164" y="-142"/>
		</contour>
		<contour>
			<point x="348" y="88" type="curve" smooth="yes"/>
			<point x="304" y="88"/>
			<point x="266" y="122"/>
			<point x="266" y="196" type="curve" smooth="yes"/>
			<point x="266" y="284"/>
			<point x="332" y="394"/>
			<point x="426" y="394" type="curve" smooth="yes"/>
			<point x="450" y="394"/>
			<point x="474" y="382"/>
			<point x="498" y="338" type="curve"/>
			<point x="458" y="160" type="line"/>
			<point x="422" y="112"/>
			<point x="384" y="88"/>
		</contour>
	</outline>
</glyph>
<glyph name="C" format="1">
	<unicode hex="0043"/>
	<advance width="536"/>
	<outline>
		<contour>
			<point x="278" y="-12" type="curve" smooth="yes"/>
			<point x="349" y="-12"/>
			<point x="404" y="14"/>
			<point x="458" y="60" type="curve"/>
			<point x="442" y="80" type="line"/>
			<point x="394" y="38"/>
			<point x="344" y="14"/>
			<point x="280" y="14" type="curve" smooth="yes"/>
			<point x="146" y="14"/>
			<point x="88" y="118"/>
			<point x="88" y="252" type="curve" smooth="yes"/>
			<point x="88" y="422"/>
			<point x="196" y="646"/>
			<point x="388" y="646" type="curve" smooth="yes"/>
			<point x="451" y="646"/>
			<point x="494" y="610"/>
			<point x="520" y="564" type="curve"/>
			<point x="542" y="578" type="line"/>
			<point x="516" y="628"/>
			<point x="464" y="672"/>
			<point x="390" y="672" type="curve" smooth="yes"/>
			<point x="180" y="672"/>
			<point x="58" y="438"/>
			<point x="58" y="246" type="curve" smooth="yes"/>
			<point x="58" y="100"/>
			<point x="130" y="-12"/>
		</contour>
		<contour>
			<point name="aboveUC" x="380" y="682" type="move"/>
		</contour>
		<contour>
			<point name="baseLC" x="260" y="0" type="move"/>
		</contour>
		<contour>
			<point name="belowLC" x="260" y="-22" type="move"/>
		</contour>
	</outline>
</glyph>
<glyph name="F" format="2">
	<unicode hex="0046"/>
	<advance width="448"/>
	<outline>
		<contour>
			<point x="40" y="0" type="line"/>
			<point x="70" y="0" type="line"/>
			<point x="136" y="326" type="line"/>
			<point x="398" y="326" type="line"/>
			<point x="404" y="352" type="line"/>
			<point x="140" y="352" type="line"/>
			<point x="196" y="634" type="line"/>
			<point x="508" y="634" type="line"/>
			<point x="514" y="660" type="line"/>
			<point x="172" y="660" type="line"/>
		</contour>
	</outline>
	<anchor name="aboveUC" x="350" y="682"/>
	<anchor name="belowLC" x="66" y="-22"/>
</glyph>
<glyph name="H" format="2">
	<unicode hex="0048"/>
	<advance width="598"/>
	<outline>
		<contour>
			<point x="40" y="0" type="line"/>
			<point x="70" y="0" type="line"/>
			<point x="138" y="338" type="line"/>
			<point x="494" y="338" type="line"/>
			<point x="426" y="0" type="line"/>
			<point x="456" y="0" type="line"/>
			<point x="588" y="660" type="line"/>
			<point x="558" y="660" type="line"/>
			<point x="498" y="364" type="line"/>
			<point x="142" y="364" type="line"/>
			<point x="202" y="660" type="line"/>
			<point x="172" y="660" type="line"/>
		</contour>
	</outline>
	<anchor name="aboveUC" x="370" y="682"/>
	<anchor name="belowLC" x="260" y="-22"/>
</glyph>
<glyph name="I" format="1">
	<unicode hex="0049"/>
	<advance width="218"/>
	<outline>
		<contour>
			<point x="40" y="0" type="line"/>
			<point x="70" y="0" type="line"/>
			<point x="202" y="660" type="line"/>
			<point x="172" y="660" type="line"/>
		</contour>
		<contour>
			<point name="aboveUC" x="202" y="682" type="move"/>
		</contour>
		<contour>
			<point name="belowLC" x="62" y="-30" type="move"/>
		</contour>
		<contour>
			<point name="ogonekUC" x="54" y="0" type="move"/>
		</contour>
	</outline>
</glyph>
<glyph name="J" format="1">
	<unicode hex="004A"/>
	<advance width="428"/>
	<outline>
		<contour>
			<point x="146" y="-12" type="curve" smooth="yes"/>
			<point x="240" y="-12"/>
			<point x="304" y="58"/>
			<point x="324" y="168" type="curve" smooth="yes"/>
			<point x="422" y="660" type="line"/>
			<point x="392" y="660" type="line"/>
			<point x="294" y="170" type="line" smooth="yes"/>
			<point x="276" y="78"/>
			<point x="226" y="14"/>
			<point x="148" y="14" type="curve" smooth="yes"/>
			<point x="86" y="14"/>
			<point x="46" y="42"/>
			<point x="28" y="102" type="curve"/>
			<point x="2" y="90" type="line"/>
			<point x="22" y="32"/>
			<point x="66" y="-12"/>
		</contour>
		<contour>
			<point name="aboveUC" x="410" y="682" type="move"/>
		</contour>
		<contour>
			<point name="belowLC" x="130" y="-22" type="move"/>
		</contour>
	</outline>
</glyph>
<glyph name="K" format="2">
	<unicode hex="004B"/>
	<advance width="522"/>
	<outline>
		<contour>
			<point x="40" y="0" type="line"/>
			<point x="70" y="0" type="line"/>
			<point x="120" y="244" type="line"/>
			<point x="288" y="402" type="line"/>
			<point x="432" y="0" type="line"/>
			<point x="464" y="0" type="line"/>
			<point x="312" y="422" type="line"/>
			<point x="564" y="660" type="line"/>
			<point x="526" y="660" type="line"/>
			<point x="130" y="290" type="line"/>
			<point x="128" y="290" type="line"/>
			<point x="202" y="660" type="line"/>
			<point x="172" y="660" type="line"/>
		</contour>
	</outline>
	<anchor name="aboverightUC" x="560" y="682"/>
	<anchor name="aboveUC" x="360" y="682"/>
	<anchor name="belowLC" x="260" y="-22"/>
</glyph>
<glyph name="M" format="2">
	<unicode hex="004D"/>
	<advance width="676"/>
	<outline>
		<contour>
			<point x="40" y="0" type="line"/>
			<point x="70" y="0" type="line"/>
			<point x="162" y="460" type="line" smooth="yes"/>
			<point x="172" y="514"/>
			<point x="182" y="578"/>
			<point x="192" y="632" type="curve"/>
			<point x="196" y="632" type="line"/>
			<point x="220" y="490" type="line"/>
			<point x="292" y="76" type="line"/>
			<point x="326" y="76" type="line"/>
			<point x="552" y="490" type="line"/>
			<point x="630" y="632" type="line"/>
			<point x="634" y="632" type="line"/>
			<point x="622" y="580"/>
			<point x="608" y="514"/>
			<point x="596" y="460" type="curve" smooth="yes"/>
			<point x="504" y="0" type="line"/>
			<point x="534" y="0" type="line"/>
			<point x="666" y="660" type="line"/>
			<point x="616" y="660" type="line"/>
			<point x="396" y="262" type="line" smooth="yes"/>
			<point x="368" y="212"/>
			<point x="344" y="162"/>
			<point x="318" y="112" type="curve"/>
			<point x="314" y="112" type="line"/>
			<point x="304" y="162"/>
			<point x="296" y="212"/>
			<point x="288" y="262" type="curve" smooth="yes"/>
			<point x="222" y="660" type="line"/>
			<point x="172" y="660" type="line"/>
		</contour>
	</outline>
	<anchor name="aboveUC" x="420" y="682"/>
	<anchor name="belowLC" x="300" y="-22"/>
</glyph>
<glyph name="N" format="2">
	<unicode hex="004E"/>
	<advance width="600"/>
	<outline>
		<contour>
			<point x="40" y="0" type="line"/>
			<point x="70" y="0" type="line"/>
			<point x="156" y="436" type="line" smooth="yes"/>
			<point x="168" y="496"/>
			<point x="180" y="556"/>
			<point x="190" y="620" type="curve"/>
			<point x="194" y="620" type="line"/>
			<point x="210" y="574"/>
			<point x="228" y="526"/>
			<point x="244" y="484" type="curve" smooth="yes"/>
			<point x="426" y="0" type="line"/>
			<point x="458" y="0" type="line"/>
			<point x="590" y="660" type="line"/>
			<point x="560" y="660" type="line"/>
			<point x="474" y="230" type="line"/>
			<point x="462" y="170"/>
			<point x="450" y="110"/>
			<point x="440" y="46" type="curve"/>
			<point x="436" y="46" type="line"/>
			<point x="420" y="92"/>
			<point x="402" y="140"/>
			<point x="386" y="182" type="curve" smooth="yes"/>
			<point x="206" y="660" type="line"/>
			<point x="172" y="660" type="line"/>
		</contour>
	</outline>
	<anchor name="aboveUC" x="400" y="682"/>
	<anchor name="belowLC" x="260" y="-22"/>
</glyph>
<glyph name="Q" format="1">
	<unicode hex="0051"/>
	<advance width="612"/>
	<outline>
		<contour>
			<point x="274" y="-12" type="curve" smooth="yes"/>
			<point x="472" y="-12"/>
			<point x="584" y="222"/>
			<point x="584" y="398" type="curve" smooth="yes"/>
			<point x="584" y="558"/>
			<point x="516" y="672"/>
			<point x="372" y="672" type="curve" smooth="yes"/>
			<point x="174" y="672"/>
			<point x="62" y="438"/>
			<point x="62" y="262" type="curve" smooth="yes"/>
			<point x="62" y="102"/>
			<point x="130" y="-12"/>
		</contour>
		<contour>
			<point x="276" y="14" type="curve" smooth="yes"/>
			<point x="146" y="14"/>
			<point x="92" y="118"/>
			<point x="92" y="266" type="curve" smooth="yes"/>
			<point x="92" y="422"/>
			<point x="190" y="646"/>
			<point x="370" y="646" type="curve" smooth="yes"/>
			<point x="500" y="646"/>
			<point x="554" y="542"/>
			<point x="554" y="394" type="curve" smooth="yes"/>
			<point x="554" y="238"/>
			<point x="456" y="14"/>
		</contour>
		<contour>
			<point x="440" y="-150" type="curve" smooth="yes"/>
			<point x="460" y="-150"/>
			<point x="474" y="-148"/>
			<point x="492" y="-142" type="curve"/>
			<point x="486" y="-116" type="line"/>
			<point x="472" y="-120"/>
			<point x="458" y="-122"/>
			<point x="442" y="-122" type="curve" smooth="yes"/>
			<point x="354" y="-122"/>
			<point x="286" y="-82"/>
			<point x="272" y="0" type="curve"/>
			<point x="242" y="6" type="line"/>
			<point x="258" y="-102"/>
			<point x="342" y="-150"/>
		</contour>
		<contour>
			<point name="aboveUC" x="390" y="682" type="move"/>
		</contour>
	</outline>
</glyph>
<glyph name="grave" format="1">
	<unicode hex="0060"/>
	<advance width="504"/>
	<outline>
		<component base="gravecmb" xOffset="214"/>
		<contour>
			<point name="_aboveLC" x="252" y="502" type="move"/>
		</contour>
	</outline>
</glyph>
<glyph name="f" format="1">
	<unicode hex="0066"/>
	<advance width="246"/>
	<outline>
		<contour>
			<point x="76" y="452" type="line"/>
			<point x="138" y="452" type="line"/>
			<point x="48" y="0" type="line"/>
			<point x="76" y="0" type="line"/>
			<point x="166" y="452" type="line"/>
			<point x="274" y="452" type="line"/>
			<point x="280" y="478" type="line"/>
			<point x="172" y="478" type="line"/>
			<point x="196" y="598" type="line" smooth="yes"/>
			<point x="208" y="656"/>
			<point x="240" y="708"/>
			<point x="290" y="708" type="curve" smooth="yes"/>
			<point x="316" y="708"/>
			<point x="332" y="700"/>
			<point x="348" y="690" type="curve"/>
			<point x="362" y="712" type="line"/>
			<point x="344" y="724"/>
			<point x="324" y="734"/>
			<point x="292" y="734" type="curve" smooth="yes"/>
			<point x="236" y="734"/>
			<point x="188" y="692"/>
			<point x="168" y="598" type="curve" smooth="yes"/>
			<point x="144" y="478" type="line"/>
			<point x="80" y="474" type="line"/>
		</contour>
		<contour>
			<point name="aboveUC" x="290" y="730" type="move"/>
		</contour>
		<contour>
			<point name="belowLC" x="70" y="-22" type="move"/>
		</contour>
	</outline>
</glyph>
<glyph name="g" format="2">
	<unicode hex="0067"/>
	<advance width="518"/>
	<outline>
		<contour>
			<point x="166" y="-234" type="curve" smooth="yes"/>
			<point x="274" y="-234"/>
			<point x="342" y="-162"/>
			<point x="366" y="-48" type="curve" smooth="yes"/>
			<point x="472" y="478" type="line"/>
			<point x="448" y="478" type="line"/>
			<point x="430" y="410" type="line"/>
			<point x="426" y="410" type="line"/>
			<point x="400" y="458"/>
			<point x="357" y="490"/>
			<point x="300" y="490" type="curve" smooth="yes"/>
			<point x="174" y="490"/>
			<point x="46" y="344"/>
			<point x="46" y="166" type="curve" smooth="yes"/>
			<point x="46" y="56"/>
			<point x="102" y="-4"/>
			<point x="184" y="-4" type="curve" smooth="yes"/>
			<point x="252" y="-4"/>
			<point x="310" y="32"/>
			<point x="366" y="86" type="curve"/>
			<point x="342" y="-30" type="line" smooth="yes"/>
			<point x="320" y="-136"/>
			<point x="266" y="-208"/>
			<point x="168" y="-208" type="curve" smooth="yes"/>
			<point x="112" y="-208"/>
			<point x="58" y="-184"/>
			<point x="24" y="-150" type="curve"/>
			<point x="6" y="-168" type="line"/>
			<point x="44" y="-208"/>
			<point x="100" y="-234"/>
		</contour>
		<contour>
			<point x="186" y="22" type="curve" smooth="yes"/>
			<point x="116" y="22"/>
			<point x="74" y="72"/>
			<point x="74" y="172" type="curve" smooth="yes"/>
			<point x="74" y="314"/>
			<point x="184" y="464"/>
			<point x="298" y="464" type="curve" smooth="yes"/>
			<point x="346" y="464"/>
			<point x="385" y="438"/>
			<point x="424" y="372" type="curve"/>
			<point x="372" y="124" type="line"/>
			<point x="314" y="62"/>
			<point x="242" y="22"/>
		</contour>
	</outline>
	<anchor name="aboveLC" x="310" y="502"/>
	<anchor name="belowLC" x="170" y="-222"/>
</glyph>
<glyph name="i" format="1">
	<unicode hex="0069"/>
	<advance width="214"/>
	<outline>
		<component base="dotlessi"/>
		<component base="dotaccentcmb" xOffset="62"/>
		<contour>
			<point name="aboveLC" x="200" y="678" type="move"/>
		</contour>
		<contour>
			<point name="belowLC" x="64" y="-22" type="move"/>
		</contour>
		<contour>
			<point name="ogonekLC" x="44" y="0" type="move"/>
		</contour>
	</outline>
</glyph>
<glyph name="j" format="1">
	<unicode hex="006A"/>
	<advance width="214"/>
	<outline>
		<component base="dotlessj"/>
		<component base="dotaccentcmb" xOffset="56"/>
		<contour>
			<point name="aboveLC" x="198" y="678" type="move"/>
		</contour>
		<contour>
			<point name="belowLC" x="-44" y="-230" type="move"/>
		</contour>
	</outline>
</glyph>
<glyph name="s" format="1">
	<unicode hex="0073"/>
	<advance width="384"/>
	<outline>
		<contour>
			<point x="158" y="-12" type="curve" smooth="yes"/>
			<point x="248" y="-12"/>
			<point x="320" y="42"/>
			<point x="320" y="128" type="curve" smooth="yes"/>
			<point x="320" y="176"/>
			<point x="300" y="210"/>
			<point x="198" y="264" type="curve" smooth="yes"/>
			<point x="142" y="294"/>
			<point x="108" y="324"/>
			<point x="108" y="368" type="curve" smooth="yes"/>
			<point x="108" y="418"/>
			<point x="154" y="464"/>
			<point x="216" y="464" type="curve" smooth="yes"/>
			<point x="266" y="464"/>
			<point x="306" y="446"/>
			<point x="334" y="414" type="curve"/>
			<point x="352" y="430" type="line"/>
			<point x="318" y="470"/>
			<point x="272" y="490"/>
			<point x="218" y="490" type="curve" smooth="yes"/>
			<point x="144" y="490"/>
			<point x="80" y="438"/>
			<point x="80" y="362" type="curve" smooth="yes"/>
			<point x="80" y="310"/>
			<point x="120" y="274"/>
			<point x="188" y="236" type="curve" smooth="yes"/>
			<point x="276" y="186"/>
			<point x="292" y="164"/>
			<point x="292" y="122" type="curve" smooth="yes"/>
			<point x="292" y="60"/>
			<point x="232" y="14"/>
			<point x="162" y="14" type="curve" smooth="yes"/>
			<point x="96" y="14"/>
			<point x="46" y="48"/>
			<point x="20" y="90" type="curve"/>
			<point x="0" y="76" type="line"/>
			<point x="26" y="28"/>
			<point x="88" y="-12"/>
		</contour>
		<contour>
			<point name="aboveLC" x="250" y="502" type="move"/>
		</contour>
		<contour>
			<point name="baseLC" x="160" y="0" type="move"/>
		</contour>
		<contour>
			<point name="belowLC" x="160" y="-22" type="move"/>
		</contour>
	</outline>
</glyph>
<glyph name="t" format="2">
	<unicode hex="0074"/>
	<advance width="290"/>
	<outline>
		<contour>
			<point x="168" y="-12" type="curve" smooth="yes"/>
			<point x="200" y="-12"/>
			<point x="224" y="0"/>
			<point x="242" y="12" type="curve"/>
			<point x="230" y="30" type="line"/>
			<point x="214" y="20"/>
			<point x="192" y="14"/>
			<point x="170" y="14" type="curve" smooth="yes"/>
			<point x="118" y="14"/>
			<point x="102" y="38"/>
			<point x="102" y="84" type="curve" smooth="yes"/>
			<point x="102" y="98"/>
			<point x="104" y="110"/>
			<point x="106" y="122" type="curve" smooth="yes"/>
			<point x="174" y="452" type="line"/>
			<point x="306" y="452" type="line"/>
			<point x="312" y="478" type="line"/>
			<point x="180" y="478" type="line"/>
			<point x="212" y="636" type="line"/>
			<point x="188" y="636" type="line"/>
			<point x="152" y="478" type="line"/>
			<point x="76" y="474" type="line"/>
			<point x="70" y="452" type="line"/>
			<point x="146" y="452" type="line"/>
			<point x="78" y="124" type="line" smooth="yes"/>
			<point x="75" y="108"/>
			<point x="74" y="96"/>
			<point x="74" y="80" type="curve" smooth="yes"/>
			<point x="74" y="30"/>
			<point x="98" y="-12"/>
		</contour>
	</outline>
	<anchor name="aboveLC" x="200" y="632"/>
	<anchor name="aboverightLC" x="290" y="502"/>
	<anchor name="baseLC" x="160" y="0"/>
	<anchor name="belowLC" x="150" y="-22"/>
</glyph>
<glyph name="u" format="1">
	<unicode hex="0075"/>
	<advance width="514"/>
	<outline>
		<contour>
			<point x="184" y="-12" type="curve" smooth="yes"/>
			<point x="242" y="-12"/>
			<point x="296" y="28"/>
			<point x="356" y="80" type="curve"/>
			<point x="360" y="80" type="line"/>
			<point x="348" y="0" type="line"/>
			<point x="372" y="0" type="line"/>
			<point x="468" y="478" type="line"/>
			<point x="440" y="478" type="line"/>
			<point x="368" y="120" type="line"/>
			<point x="292" y="46"/>
			<point x="232" y="14"/>
			<point x="188" y="14" type="curve" smooth="yes"/>
			<point x="124" y="14"/>
			<point x="98" y="46"/>
			<point x="98" y="108" type="curve" smooth="yes"/>
			<point x="98" y="128"/>
			<point x="100" y="142"/>
			<point x="106" y="172" type="curve" smooth="yes"/>
			<point x="168" y="478" type="line"/>
			<point x="140" y="478" type="line"/>
			<point x="78" y="168" type="line" smooth="yes"/>
			<point x="72" y="140"/>
			<point x="70" y="128"/>
			<point x="70" y="104" type="curve" smooth="yes"/>
			<point x="70" y="36"/>
			<point x="102" y="-12"/>
		</contour>
		<contour>
			<point name="aboveLC" x="310" y="502" type="move"/>
		</contour>
		<contour>
			<point name="belowLC" x="240" y="-22" type="move"/>
		</contour>
		<contour>
			<point name="hornLC" x="440" y="488" type="move"/>
		</contour>
		<contour>
			<point name="ogonekLC" x="324" y="0" type="move"/>
		</contour>
	</outline>
</glyph>
<glyph name="w" format="2">
	<unicode hex="0077"/>
	<advance width="674"/>
	<outline>
		<contour>
			<point x="112" y="0" type="line"/>
			<point x="154" y="0" type="line"/>
			<point x="298" y="312" type="line" smooth="yes"/>
			<point x="320" y="358"/>
			<point x="342" y="410"/>
			<point x="362" y="454" type="curve"/>
			<point x="366" y="454" type="line"/>
			<point x="370" y="410"/>
			<point x="370" y="358"/>
			<point x="374" y="312" type="curve" smooth="yes"/>
			<point x="396" y="0" type="line"/>
			<point x="438" y="0" type="line"/>
			<point x="666" y="478" type="line"/>
			<point x="638" y="478" type="line"/>
			<point x="484" y="154" type="line" smooth="yes"/>
			<point x="462" y="110"/>
			<point x="444" y="68"/>
			<point x="424" y="26" type="curve"/>
			<point x="420" y="26" type="line"/>
			<point x="418" y="68"/>
			<point x="414" y="110"/>
			<point x="412" y="154" type="curve" smooth="yes"/>
			<point x="388" y="478" type="line"/>
			<point x="348" y="478" type="line"/>
			<point x="198" y="154" type="line" smooth="yes"/>
			<point x="178" y="110"/>
			<point x="160" y="68"/>
			<point x="140" y="26" type="curve"/>
			<point x="136" y="26" type="line"/>
			<point x="132" y="68"/>
			<point x="128" y="110"/>
			<point x="124" y="154" type="curve" smooth="yes"/>
			<point x="96" y="478" type="line"/>
			<point x="68" y="478" type="line"/>
		</contour>
	</outline>
	<anchor name="aboveLC" x="370" y="502"/>
	<anchor name="aboverightLC" x="670" y="502"/>
	<anchor name="belowLC" x="280" y="-22"/>
</glyph>
<glyph name="cent" format="1">
	<unicode hex="00A2"/>
	<advance width="456"/>
	<outline>
		<contour>
			<point x="244" y="102" type="curve" smooth="yes"/>
			<point x="316" y="102"/>
			<point x="360" y="132"/>
			<point x="398" y="156" type="curve"/>
			<point x="384" y="180" type="line"/>
			<point x="348" y="154"/>
			<point x="302" y="128"/>
			<point x="246" y="128" type="curve" smooth="yes"/>
			<point x="156" y="128"/>
			<point x="112" y="192"/>
			<point x="112" y="294" type="curve" smooth="yes"/>
			<point x="112" y="438"/>
			<point x="224" y="532"/>
			<point x="314" y="532" type="curve" smooth="yes"/>
			<point x="368" y="532"/>
			<point x="395" y="512"/>
			<point x="426" y="474" type="curve"/>
			<point x="446" y="494" type="line"/>
			<point x="418" y="528"/>
			<point x="378" y="558"/>
			<point x="316" y="558" type="curve" smooth="yes"/>
			<point x="208" y="558"/>
			<point x="82" y="456"/>
			<point x="82" y="288" type="curve" smooth="yes"/>
			<point x="82" y="168"/>
			<point x="144" y="102"/>
		</contour>
		<contour>
			<point x="196" y="-10" type="line"/>
			<point x="224" y="-10" type="line"/>
			<point x="358" y="666" type="line"/>
			<point x="330" y="666" type="line"/>
		</contour>
	</outline>
</glyph>
<glyph name="yen" format="2">
	<unicode hex="00A5"/>
	<advance width="456"/>
	<outline>
		<contour>
			<point x="164" y="0" type="line"/>
			<point x="192" y="0" type="line"/>
			<point x="224" y="164" type="line"/>
			<point x="386" y="164" type="line"/>
			<point x="392" y="188" type="line"/>
			<point x="230" y="188" type="line"/>
			<point x="246" y="272" type="line"/>
			<point x="408" y="272" type="line"/>
			<point x="414" y="296" type="line"/>
			<point x="264" y="296" type="line"/>
			<point x="494" y="640" type="line"/>
			<point x="464" y="640" type="line"/>
			<point x="332" y="436" type="line"/>
			<point x="300" y="392"/>
			<point x="272" y="348"/>
			<point x="238" y="296" type="curve"/>
			<point x="234" y="296" type="line"/>
			<point x="222" y="348"/>
			<point x="210" y="392"/>
			<point x="198" y="436" type="curve" smooth="yes"/>
			<point x="142" y="640" type="line"/>
			<point x="114" y="640" type="line"/>
			<point x="212" y="296" type="line"/>
			<point x="62" y="296" type="line"/>
			<point x="56" y="272" type="line"/>
			<point x="218" y="272" type="line"/>
			<point x="202" y="188" type="line"/>
			<point x="40" y="188" type="line"/>
			<point x="34" y="164" type="line"/>
			<point x="196" y="164" type="line"/>
		</contour>
	</outline>
</glyph>
<glyph name="macron" format="1">
	<unicode hex="00AF"/>
	<advance width="504"/>
	<outline>
		<component base="macroncmb" xOffset="214"/>
		<contour>
			<point name="_aboveLC" x="252" y="502" type="move"/>
		</contour>
	</outline>
</glyph>
<glyph name="mu" format="1">
	<unicode hex="00B5"/>
	<unicode hex="03BC"/>
	<advance width="490"/>
	<outline>
		<contour>
			<point x="6" y="-180" type="line"/>
			<point x="34" y="-180" type="line"/>
			<point x="48" y="-94"/>
			<point x="56" y="-50"/>
			<point x="80" y="70" type="curve"/>
			<point x="96" y="6"/>
			<point x="138" y="-12"/>
			<point x="188" y="-12" type="curve" smooth="yes"/>
			<point x="244" y="-12"/>
			<point x="300" y="20"/>
			<point x="352" y="88" type="curve"/>
			<point x="356" y="88" type="line"/>
			<point x="352" y="60"/>
			<point x="350" y="50"/>
			<point x="350" y="38" type="curve" smooth="yes"/>
			<point x="350" y="2"/>
			<point x="366" y="-12"/>
			<point x="396" y="-12" type="curve" smooth="yes"/>
			<point x="406" y="-12"/>
			<point x="412" y="-10"/>
			<point x="422" y="-6" type="curve"/>
			<point x="418" y="18" type="line"/>
			<point x="412" y="16"/>
			<point x="406" y="14"/>
			<point x="398" y="14" type="curve" smooth="yes"/>
			<point x="384" y="14"/>
			<point x="376" y="18"/>
			<point x="376" y="42" type="curve" smooth="yes"/>
			<point x="376" y="78"/>
			<point x="417" y="262"/>
			<point x="462" y="478" type="curve"/>
			<point x="434" y="478" type="line"/>
			<point x="366" y="138" type="line"/>
			<point x="290" y="36"/>
			<point x="238" y="14"/>
			<point x="190" y="14" type="curve" smooth="yes"/>
			<point x="140" y="14"/>
			<point x="98" y="36"/>
			<point x="98" y="112" type="curve" smooth="yes"/>
			<point x="98" y="132"/>
			<point x="102" y="162"/>
			<point x="108" y="190" type="curve" smooth="yes"/>
			<point x="168" y="478" type="line"/>
			<point x="140" y="478" type="line"/>
		</contour>
	</outline>
</glyph>
<glyph name="questiondown" format="2">
	<unicode hex="00BF"/>
	<advance width="380"/>
	<outline>
		<contour>
			<point x="122" y="-202" type="curve" smooth="yes"/>
			<point x="182" y="-202"/>
			<point x="238" y="-170"/>
			<point x="270" y="-134" type="curve"/>
			<point x="252" y="-114" type="line"/>
			<point x="220" y="-150"/>
			<point x="172" y="-176"/>
			<point x="124" y="-176" type="curve" smooth="yes"/>
			<point x="60" y="-176"/>
			<point x="22" y="-136"/>
			<point x="22" y="-68" type="curve" smooth="yes"/>
			<point x="22" y="78"/>
			<point x="230" y="128"/>
			<point x="236" y="304" type="curve"/>
			<point x="210" y="306" type="line"/>
			<point x="202" y="142"/>
			<point x="-6" y="92"/>
			<point x="-6" y="-74" type="curve" smooth="yes"/>
			<point x="-6" y="-154"/>
			<point x="42" y="-202"/>
		</contour>
		<contour>
			<point x="240" y="416" type="curve" smooth="yes"/>
			<point x="262" y="416"/>
			<point x="282" y="440"/>
			<point x="282" y="462" type="curve" smooth="yes"/>
			<point x="282" y="478"/>
			<point x="272" y="492"/>
			<point x="254" y="492" type="curve" smooth="yes"/>
			<point x="232" y="492"/>
			<point x="214" y="470"/>
			<point x="214" y="448" type="curve" smooth="yes"/>
			<point x="214" y="430"/>
			<point x="222" y="416"/>
		</contour>
	</outline>
</glyph>
<glyph name="AE" format="2">
	<unicode hex="00C6"/>
	<advance width="774"/>
	<outline>
		<contour>
			<point x="-32" y="0" type="line"/>
			<point x="4" y="0" type="line"/>
			<point x="292" y="392" type="line" smooth="yes"/>
			<point x="350" y="472"/>
			<point x="408" y="552"/>
			<point x="466" y="632" type="curve"/>
			<point x="470" y="632" type="line"/>
			<point x="344" y="0" type="line"/>
			<point x="680" y="0" type="line"/>
			<point x="686" y="26" type="line"/>
			<point x="378" y="26" type="line"/>
			<point x="442" y="338" type="line"/>
			<point x="690" y="338" type="line"/>
			<point x="696" y="364" type="line"/>
			<point x="446" y="364" type="line"/>
			<point x="500" y="634" type="line"/>
			<point x="798" y="634" type="line"/>
			<point x="804" y="660" type="line"/>
			<point x="458" y="660" type="line"/>
		</contour>
		<contour>
			<point x="152" y="226" type="line"/>
			<point x="410" y="226" type="line"/>
			<point x="418" y="252" type="line"/>
			<point x="160" y="252" type="line"/>
		</contour>
	</outline>
	<anchor name="aboveUC" x="620" y="682"/>
</glyph>
<glyph name="Oslash" format="2">
	<unicode hex="00D8"/>
	<advance width="612"/>
	<outline>
		<contour>
			<point x="24" y="-22" type="line"/>
			<point x="642" y="660" type="line"/>
			<point x="626" y="678" type="line"/>
			<point x="2" y="-4" type="line"/>
		</contour>
		<component base="O"/>
	</outline>
	<anchor name="aboveUC" x="390" y="682"/>
	<anchor name="belowLC" x="260" y="-22"/>
</glyph>
<glyph name="germandbls" format="1">
	<unicode hex="00DF"/>
	<advance width="512"/>
	<outline>
		<contour>
			<point x="310" y="-12" type="curve" smooth="yes"/>
			<point x="398" y="-12"/>
			<point x="460" y="52"/>
			<point x="460" y="130" type="curve" smooth="yes"/>
			<point x="460" y="258"/>
			<point x="298" y="266"/>
			<point x="298" y="362" type="curve" smooth="yes"/>
			<point x="298" y="456"/>
			<point x="446" y="482"/>
			<point x="446" y="616" type="curve" smooth="yes"/>
			<point x="446" y="692"/>
			<point x="404" y="734"/>
			<point x="336" y="734" type="curve" smooth="yes"/>
			<point x="240" y="734"/>
			<point x="174" y="644"/>
			<point x="152" y="540" type="curve" smooth="yes"/>
			<point x="44" y="0" type="line"/>
			<point x="72" y="0" type="line"/>
			<point x="178" y="530" type="line" smooth="yes"/>
			<point x="198" y="628"/>
			<point x="256" y="708"/>
			<point x="334" y="708" type="curve" smooth="yes"/>
			<point x="394" y="708"/>
			<point x="418" y="668"/>
			<point x="418" y="616" type="curve" smooth="yes"/>
			<point x="418" y="496"/>
			<point x="270" y="472"/>
			<point x="270" y="356" type="curve" smooth="yes"/>
			<point x="270" y="254"/>
			<point x="432" y="242"/>
			<point x="432" y="124" type="curve" smooth="yes"/>
			<point x="432" y="60"/>
			<point x="376" y="14"/>
			<point x="312" y="14" type="curve" smooth="yes"/>
			<point x="266" y="14"/>
			<point x="230" y="32"/>
			<point x="194" y="62" type="curve"/>
			<point x="178" y="42" type="line"/>
			<point x="216" y="8"/>
			<point x="264" y="-12"/>
		</contour>
	</outline>
</glyph>
<glyph name="Aogonek" format="1">
	<unicode hex="0104"/>
	<advance width="480"/>
	<outline>
		<contour>
			<point x="378" y="-202" type="curve" smooth="yes"/>
			<point x="394" y="-202"/>
			<point x="414" y="-196"/>
			<point x="432" y="-186" type="curve"/>
			<point x="422" y="-164" type="line"/>
			<point x="408" y="-172"/>
			<point x="396" y="-176"/>
			<point x="380" y="-176" type="curve" smooth="yes"/>
			<point x="358" y="-176"/>
			<point x="342" y="-160"/>
			<point x="342" y="-134" type="curve" smooth="yes"/>
			<point x="342" y="-88"/>
			<point x="382" y="-40"/>
			<point x="434" y="0" type="curve"/>
			<point x="350" y="660" type="line"/>
			<point x="320" y="660" type="line"/>
			<point x="-46" y="0" type="line"/>
			<point x="-12" y="0" type="line"/>
			<point x="204" y="396" type="line" smooth="yes"/>
			<point x="246" y="474"/>
			<point x="286" y="544"/>
			<point x="326" y="626" type="curve"/>
			<point x="330" y="626" type="line"/>
			<point x="338" y="546"/>
			<point x="348" y="470"/>
			<point x="356" y="396" type="curve" smooth="yes"/>
			<point x="404" y="0" type="line"/>
			<point x="406" y="0" type="line"/>
			<point x="358" y="-34"/>
			<point x="312" y="-89"/>
			<point x="312" y="-140" type="curve" smooth="yes"/>
			<point x="312" y="-182"/>
			<point x="340" y="-202"/>
		</contour>
		<contour>
			<point x="104" y="238" type="line"/>
			<point x="386" y="238" type="line"/>
			<point x="392" y="264" type="line"/>
			<point x="112" y="264" type="line"/>
		</contour>
		<contour>
			<point name="aboveUC" x="344" y="682" type="move"/>
		</contour>
	</outline>
</glyph>
<glyph name="eogonek" format="1">
	<unicode hex="0119"/>
	<advance width="468"/>
	<outline>
		<contour>
			<point x="252" y="-202" type="curve" smooth="yes"/>
			<point x="268" y="-202"/>
			<point x="288" y="-196"/>
			<point x="306" y="-186" type="curve"/>
			<point x="296" y="-164" type="line"/>
			<point x="282" y="-172"/>
			<point x="270" y="-176"/>
			<point x="254" y="-176" type="curve" smooth="yes"/>
			<point x="232" y="-176"/>
			<point x="216" y="-160"/>
			<point x="216" y="-134" type="curve" smooth="yes"/>
			<point x="216" y="-88"/>
			<point x="258" y="-32"/>
			<point x="364" y="40" type="curve"/>
			<point x="350" y="62" type="line"/>
			<point x="314" y="36"/>
			<point x="270" y="14"/>
			<point x="226" y="14" type="curve" smooth="yes"/>
			<point x="126" y="14"/>
			<point x="49" y="82"/>
			<point x="78" y="242" type="curve"/>
			<point x="420" y="242" type="line"/>
			<point x="426" y="262"/>
			<point x="432" y="290"/>
			<point x="432" y="322" type="curve" smooth="yes"/>
			<point x="432" y="420"/>
			<point x="392" y="490"/>
			<point x="290" y="490" type="curve" smooth="yes"/>
			<point x="168" y="490"/>
			<point x="44" y="366"/>
			<point x="44" y="184" type="curve" smooth="yes"/>
			<point x="44" y="56"/>
			<point x="114" y="-12"/>
			<point x="224" y="-12" type="curve" smooth="yes"/>
			<point x="240" y="-12"/>
			<point x="262" y="-8"/>
			<point x="280" y="-2" type="curve"/>
			<point x="282" y="4" type="line"/>
			<point x="222" y="-42"/>
			<point x="186" y="-92"/>
			<point x="186" y="-140" type="curve" smooth="yes"/>
			<point x="186" y="-182"/>
			<point x="214" y="-202"/>
		</contour>
		<contour>
			<point x="84" y="268" type="line"/>
			<point x="110" y="382"/>
			<point x="198" y="464"/>
			<point x="288" y="464" type="curve" smooth="yes"/>
			<point x="374" y="464"/>
			<point x="404" y="396"/>
			<point x="404" y="328" type="curve" smooth="yes"/>
			<point x="404" y="306"/>
			<point x="402" y="288"/>
			<point x="398" y="268" type="curve"/>
		</contour>
		<contour>
			<point name="aboveLC" x="294" y="502" type="move"/>
		</contour>
	</outline>
</glyph>
<glyph name="Hbar" format="2">
	<unicode hex="0126"/>
	<advance width="638"/>
	<outline>
		<contour>
			<point x="80" y="496" type="line"/>
			<point x="654" y="496" type="line"/>
			<point x="660" y="522" type="line"/>
			<point x="166" y="522" type="line"/>
			<point x="86" y="520" type="line"/>
		</contour>
		<component base="H" xOffset="20"/>
	</outline>
	<guideline x="57" y="377" angle="79" identifier="3pQ9Y9MY0i"/>
	<guideline x="608" y="320" angle="79" identifier="L7yqoPUWXs"/>
</glyph>
<glyph name="Iogonek" format="2">
	<unicode hex="012E"/>
	<advance width="212"/>
	<outline>
		<contour>
			<point x="22" y="-214" type="curve" smooth="yes"/>
			<point x="48" y="-214"/>
			<point x="70" y="-204"/>
			<point x="94" y="-182" type="curve"/>
			<point x="82" y="-166" type="line"/>
			<point x="60" y="-182"/>
			<point x="46" y="-188"/>
			<point x="26" y="-188" type="curve" smooth="yes"/>
			<point x="-2" y="-188"/>
			<point x="-22" y="-170"/>
			<point x="-22" y="-142" type="curve" smooth="yes"/>
			<point x="-22" y="-90"/>
			<point x="26" y="-40"/>
			<point x="70" y="0" type="curve"/>
			<point x="202" y="660" type="line"/>
			<point x="172" y="660" type="line"/>
			<point x="40" y="0" type="line"/>
			<point x="42" y="0" type="line"/>
			<point x="2" y="-32"/>
			<point x="-52" y="-90"/>
			<point x="-52" y="-148" type="curve" smooth="yes"/>
			<point x="-52" y="-192"/>
			<point x="-20" y="-214"/>
		</contour>
	</outline>
	<anchor name="aboveUC" x="190" y="682"/>
</glyph>
<glyph name="IJ" format="2">
	<unicode hex="0132"/>
	<advance width="424"/>
	<outline>
		<contour>
			<point x="166" y="-150" type="curve" smooth="yes"/>
			<point x="228" y="-150"/>
			<point x="262" y="-100"/>
			<point x="280" y="-12" type="curve" smooth="yes"/>
			<point x="414" y="660" type="line"/>
			<point x="384" y="660" type="line"/>
			<point x="248" y="-20" type="line" smooth="yes"/>
			<point x="236" y="-82"/>
			<point x="208" y="-122"/>
			<point x="168" y="-122" type="curve" smooth="yes"/>
			<point x="148" y="-122"/>
			<point x="138" y="-120"/>
			<point x="120" y="-110" type="curve"/>
			<point x="108" y="-134" type="line"/>
			<point x="128" y="-146"/>
			<point x="144" y="-150"/>
		</contour>
		<contour>
			<point x="40" y="0" type="line"/>
			<point x="70" y="0" type="line"/>
			<point x="202" y="660" type="line"/>
			<point x="172" y="660" type="line"/>
		</contour>
	</outline>
</glyph>
<glyph name="Lslash" format="1">
	<unicode hex="0141"/>
	<advance width="442"/>
	<outline>
		<contour>
			<point x="8" y="238" type="line"/>
			<point x="110" y="278" type="line"/>
			<point x="124" y="282" type="line"/>
			<point x="354" y="374" type="line"/>
			<point x="344" y="398" type="line"/>
			<point x="130" y="312" type="line"/>
			<point x="116" y="308" type="line"/>
			<point x="-2" y="262" type="line"/>
		</contour>
		<component base="L" xOffset="10"/>
	</outline>
</glyph>
<glyph name="lslash" format="1">
	<unicode hex="0142"/>
	<advance width="246"/>
	<outline>
		<contour>
			<point x="34" y="354" type="line"/>
			<point x="144" y="404" type="line"/>
			<point x="158" y="408" type="line"/>
			<point x="282" y="466" type="line"/>
			<point x="272" y="488" type="line"/>
			<point x="164" y="438" type="line"/>
			<point x="150" y="434" type="line"/>
			<point x="24" y="376" type="line"/>
		</contour>
		<component base="l" xOffset="10"/>
		<contour>
			<point name="aboveUC" x="220" y="730" type="move"/>
		</contour>
		<contour>
			<point name="belowLC" x="70" y="-22" type="move"/>
		</contour>
	</outline>
</glyph>
<glyph name="Eng" format="1">
	<unicode hex="014A"/>
	<advance width="584"/>
	<outline>
		<contour>
			<point x="330" y="-12" type="curve" smooth="yes"/>
			<point x="462" y="-12"/>
			<point x="558" y="216"/>
			<point x="558" y="456" type="curve" smooth="yes"/>
			<point x="558" y="609"/>
			<point x="486" y="672"/>
			<point x="380" y="672" type="curve" smooth="yes"/>
			<point x="324" y="672"/>
			<point x="238" y="630"/>
			<point x="186" y="580" type="curve"/>
			<point x="202" y="660" type="line"/>
			<point x="172" y="660" type="line"/>
			<point x="40" y="0" type="line"/>
			<point x="70" y="0" type="line"/>
			<point x="178" y="542" type="line"/>
			<point x="244" y="610"/>
			<point x="328" y="646"/>
			<point x="378" y="646" type="curve" smooth="yes"/>
			<point x="467" y="646"/>
			<point x="528" y="597"/>
			<point x="528" y="450" type="curve" smooth="yes"/>
			<point x="528" y="236"/>
			<point x="438" y="14"/>
			<point x="332" y="14" type="curve" smooth="yes"/>
			<point x="311" y="14"/>
			<point x="290" y="18"/>
			<point x="272" y="28" type="curve"/>
			<point x="260" y="6" type="line"/>
			<point x="278" y="-6"/>
			<point x="306" y="-12"/>
		</contour>
		<contour>
			<point name="aboveUC" x="400" y="682" type="move"/>
		</contour>
		<contour>
			<point name="belowLC" x="240" y="-22" type="move"/>
		</contour>
	</outline>
</glyph>
<glyph name="OE" format="2">
	<unicode hex="0152"/>
	<advance width="802"/>
	<outline>
		<contour>
			<point x="332" y="0" type="curve" smooth="yes"/>
			<point x="708" y="0" type="line"/>
			<point x="714" y="26" type="line"/>
			<point x="416" y="26" type="line"/>
			<point x="480" y="338" type="line"/>
			<point x="718" y="338" type="line"/>
			<point x="724" y="364" type="line"/>
			<point x="484" y="364" type="line"/>
			<point x="538" y="634" type="line"/>
			<point x="826" y="634" type="line"/>
			<point x="832" y="660" type="line"/>
			<point x="414" y="660" type="line" smooth="yes"/>
			<point x="182" y="660"/>
			<point x="62" y="480"/>
			<point x="62" y="256" type="curve" smooth="yes"/>
			<point x="62" y="104"/>
			<point x="150" y="0"/>
		</contour>
		<contour>
			<point x="334" y="26" type="line" smooth="yes"/>
			<point x="170" y="26"/>
			<point x="92" y="122"/>
			<point x="92" y="258" type="curve" smooth="yes"/>
			<point x="92" y="458"/>
			<point x="206" y="634"/>
			<point x="412" y="634" type="curve" smooth="yes"/>
			<point x="510" y="634" type="line"/>
			<point x="388" y="26" type="line"/>
		</contour>
	</outline>
	<anchor name="aboveUC" x="580" y="682"/>
</glyph>
<glyph name="oe" format="2">
	<unicode hex="0153"/>
	<advance width="824"/>
	<outline>
		<contour>
			<point x="204" y="-12" type="curve" smooth="yes"/>
			<point x="292" y="-12"/>
			<point x="376" y="50"/>
			<point x="420" y="148" type="curve"/>
			<point x="432" y="44"/>
			<point x="492" y="-12"/>
			<point x="580" y="-12" type="curve" smooth="yes"/>
			<point x="638" y="-12"/>
			<point x="684" y="12"/>
			<point x="720" y="40" type="curve"/>
			<point x="706" y="58" type="line"/>
			<point x="670" y="32"/>
			<point x="632" y="14"/>
			<point x="582" y="14" type="curve" smooth="yes"/>
			<point x="496" y="14"/>
			<point x="427" y="82"/>
			<point x="452" y="242" type="curve"/>
			<point x="776" y="242" type="line"/>
			<point x="782" y="262"/>
			<point x="788" y="290"/>
			<point x="788" y="322" type="curve" smooth="yes"/>
			<point x="788" y="420"/>
			<point x="748" y="490"/>
			<point x="646" y="490" type="curve" smooth="yes"/>
			<point x="572" y="490"/>
			<point x="494" y="434"/>
			<point x="452" y="340" type="curve"/>
			<point x="440" y="436"/>
			<point x="382" y="490"/>
			<point x="296" y="490" type="curve" smooth="yes"/>
			<point x="166" y="490"/>
			<point x="46" y="354"/>
			<point x="46" y="176" type="curve" smooth="yes"/>
			<point x="46" y="56"/>
			<point x="108" y="-12"/>
		</contour>
		<contour>
			<point x="206" y="14" type="curve" smooth="yes"/>
			<point x="122" y="14"/>
			<point x="74" y="72"/>
			<point x="74" y="182" type="curve" smooth="yes"/>
			<point x="74" y="334"/>
			<point x="186" y="464"/>
			<point x="294" y="464" type="curve" smooth="yes"/>
			<point x="378" y="464"/>
			<point x="426" y="406"/>
			<point x="426" y="296" type="curve" smooth="yes"/>
			<point x="426" y="144"/>
			<point x="314" y="14"/>
		</contour>
		<contour>
			<point x="458" y="268" type="line"/>
			<point x="482" y="382"/>
			<point x="562" y="464"/>
			<point x="644" y="464" type="curve" smooth="yes"/>
			<point x="730" y="464"/>
			<point x="760" y="396"/>
			<point x="760" y="328" type="curve" smooth="yes"/>
			<point x="760" y="306"/>
			<point x="758" y="288"/>
			<point x="754" y="268" type="curve"/>
		</contour>
	</outline>
	<anchor name="aboveLC" x="470" y="502"/>
	<anchor name="belowLC" x="390" y="-22"/>
</glyph>
<glyph name="Tbar" format="1">
	<unicode hex="0166"/>
	<advance width="492"/>
	<outline>
		<contour>
			<point x="126" y="338" type="line"/>
			<point x="396" y="338" type="line"/>
			<point x="402" y="364" type="line"/>
			<point x="216" y="364" type="line"/>
			<point x="132" y="362" type="line"/>
		</contour>
		<component base="T"/>
		<contour>
			<point name="aboveUC" x="338" y="682" type="move"/>
		</contour>
		<contour>
			<point name="belowLC" x="202" y="-22" type="move"/>
		</contour>
		<contour>
			<point name="baseLC" x="208" y="0" type="move"/>
		</contour>
	</outline>
</glyph>
<glyph name="tbar" format="1">
	<unicode hex="0167"/>
	<advance width="290"/>
	<outline>
		<contour>
			<point x="26" y="240" type="line"/>
			<point x="262" y="240" type="line"/>
			<point x="268" y="266" type="line"/>
			<point x="108" y="266" type="line"/>
			<point x="30" y="262" type="line"/>
		</contour>
		<component base="t"/>
		<contour>
			<point name="aboveLC" x="200" y="634" type="move"/>
		</contour>
		<contour>
			<point name="baseLC" x="150" y="0" type="move"/>
		</contour>
		<contour>
			<point name="belowLC" x="150" y="-22" type="move"/>
		</contour>
	</outline>
</glyph>
<glyph name="Uogonek" format="2">
	<unicode hex="0172"/>
	<advance width="594"/>
	<outline>
		<contour>
			<point x="212" y="-214" type="curve" smooth="yes"/>
			<point x="238" y="-214"/>
			<point x="260" y="-204"/>
			<point x="284" y="-182" type="curve"/>
			<point x="272" y="-166" type="line"/>
			<point x="250" y="-182"/>
			<point x="236" y="-188"/>
			<point x="216" y="-188" type="curve" smooth="yes"/>
			<point x="188" y="-188"/>
			<point x="168" y="-170"/>
			<point x="168" y="-142" type="curve" smooth="yes"/>
			<point x="168" y="-94"/>
			<point x="214" y="-32"/>
			<point x="310" y="-10" type="curve" smooth="yes"/>
			<point x="408" y="12"/>
			<point x="469" y="76"/>
			<point x="500" y="230" type="curve" smooth="yes"/>
			<point x="586" y="660" type="line"/>
			<point x="556" y="660" type="line"/>
			<point x="472" y="238" type="line" smooth="yes"/>
			<point x="438" y="66"/>
			<point x="360" y="14"/>
			<point x="272" y="14" type="curve" smooth="yes"/>
			<point x="166" y="14"/>
			<point x="112" y="78"/>
			<point x="112" y="188" type="curve" smooth="yes"/>
			<point x="112" y="212"/>
			<point x="114" y="238"/>
			<point x="122" y="270" type="curve" smooth="yes"/>
			<point x="200" y="660" type="line"/>
			<point x="170" y="660" type="line"/>
			<point x="90" y="262" type="line" smooth="yes"/>
			<point x="84" y="230"/>
			<point x="82" y="206"/>
			<point x="82" y="180" type="curve" smooth="yes"/>
			<point x="82" y="58"/>
			<point x="152" y="-12"/>
			<point x="268" y="-12" type="curve"/>
			<point x="260" y="0" type="line"/>
			<point x="200" y="-22"/>
			<point x="138" y="-82"/>
			<point x="138" y="-148" type="curve" smooth="yes"/>
			<point x="138" y="-192"/>
			<point x="170" y="-214"/>
		</contour>
	</outline>
	<anchor name="aboveUC" x="380" y="682"/>
</glyph>
<glyph name="longs" format="1">
	<unicode hex="017F"/>
	<advance width="246"/>
	<outline>
		<contour>
			<point x="48" y="0" type="line"/>
			<point x="76" y="0" type="line"/>
			<point x="196" y="598" type="line" smooth="yes"/>
			<point x="208" y="656"/>
			<point x="240" y="708"/>
			<point x="290" y="708" type="curve" smooth="yes"/>
			<point x="318" y="708"/>
			<point x="334" y="702"/>
			<point x="350" y="692" type="curve"/>
			<point x="362" y="712" type="line"/>
			<point x="346" y="724"/>
			<point x="324" y="734"/>
			<point x="292" y="734" type="curve" smooth="yes"/>
			<point x="236" y="734"/>
			<point x="187" y="692"/>
			<point x="168" y="598" type="curve" smooth="yes"/>
		</contour>
		<contour>
			<point x="76" y="452" type="line"/>
			<point x="154" y="452" type="line"/>
			<point x="160" y="478" type="line"/>
			<point x="146" y="478" type="line"/>
			<point x="80" y="474" type="line"/>
		</contour>
		<contour>
			<point name="aboveUC" x="280" y="730" type="move"/>
		</contour>
		<contour>
			<point name="belowLC" x="60" y="-22" type="move"/>
		</contour>
	</outline>
</glyph>
<glyph name="Oopen" format="2">
	<unicode hex="0186"/>
	<advance width="536"/>
	<outline>
		<contour>
			<point x="193" y="-12" type="curve" smooth="yes"/>
			<point x="376" y="-12"/>
			<point x="508" y="174"/>
			<point x="508" y="398" type="curve" smooth="yes"/>
			<point x="508" y="574"/>
			<point x="436" y="672"/>
			<point x="308" y="672" type="curve" smooth="yes"/>
			<point x="238" y="672"/>
			<point x="164" y="634"/>
			<point x="122" y="594" type="curve"/>
			<point x="136" y="574" type="line"/>
			<point x="181" y="616"/>
			<point x="246" y="645"/>
			<point x="306" y="645" type="curve" smooth="yes"/>
			<point x="418" y="645"/>
			<point x="478" y="552"/>
			<point x="478" y="394" type="curve" smooth="yes"/>
			<point x="478" y="190"/>
			<point x="358" y="14"/>
			<point x="196" y="14" type="curve" smooth="yes"/>
			<point x="124" y="14"/>
			<point x="76" y="42"/>
			<point x="36" y="98" type="curve"/>
			<point x="16" y="82" type="line"/>
			<point x="54" y="24"/>
			<point x="110" y="-12"/>
		</contour>
	</outline>
	<anchor name="aboveUC" x="380" y="682"/>
	<anchor name="baseLC" x="260" y="0"/>
	<anchor name="belowLC" x="260" y="-22"/>
</glyph>
<glyph name="Dhook" format="1">
	<unicode hex="018A"/>
	<advance width="686"/>
	<outline>
		<contour>
			<point x="184" y="0" type="line"/>
			<point x="309" y="0" type="line" smooth="yes"/>
			<point x="542" y="0"/>
			<point x="660" y="180"/>
			<point x="660" y="414" type="curve" smooth="yes"/>
			<point x="660" y="566"/>
			<point x="584" y="672"/>
			<point x="398" y="672" type="curve" smooth="yes"/>
			<point x="171" y="672"/>
			<point x="64" y="504"/>
			<point x="64" y="396" type="curve" smooth="yes"/>
			<point x="64" y="332"/>
			<point x="94" y="292"/>
			<point x="140" y="270" type="curve"/>
			<point x="154" y="292" type="line"/>
			<point x="112" y="316"/>
			<point x="94" y="344"/>
			<point x="94" y="398" type="curve" smooth="yes"/>
			<point x="94" y="492"/>
			<point x="190" y="646"/>
			<point x="394" y="646" type="curve" smooth="yes"/>
			<point x="398" y="646" type="line" smooth="yes"/>
			<point x="564" y="646"/>
			<point x="630" y="548"/>
			<point x="630" y="412" type="curve" smooth="yes"/>
			<point x="630" y="202"/>
			<point x="518" y="26"/>
			<point x="308" y="26" type="curve" smooth="yes"/>
			<point x="218" y="26" type="line"/>
			<point x="346" y="660" type="line"/>
			<point x="316" y="660" type="line"/>
		</contour>
		<contour>
			<point name="aboveUC" x="454" y="680" type="move"/>
		</contour>
		<contour>
			<point name="belowLC" x="333" y="-20" type="move"/>
		</contour>
	</outline>
</glyph>
<glyph name="Eopen" format="2">
	<unicode hex="0190"/>
	<advance width="524"/>
	<outline>
		<contour>
			<point x="147" y="-12" type="curve" smooth="yes"/>
			<point x="229" y="-12"/>
			<point x="314" y="17"/>
			<point x="400" y="88" type="curve"/>
			<point x="385" y="106" type="line"/>
			<point x="301" y="37"/>
			<point x="223" y="16"/>
			<point x="155" y="16" type="curve" smooth="yes"/>
			<point x="65" y="16"/>
			<point x="3" y="60"/>
			<point x="3" y="131" type="curve" smooth="yes"/>
			<point x="3" y="235"/>
			<point x="118" y="338"/>
			<point x="263" y="338" type="curve" smooth="yes"/>
			<point x="323" y="338" type="line"/>
			<point x="327" y="364" type="line"/>
			<point x="286" y="364" type="line" smooth="yes"/>
			<point x="157" y="364"/>
			<point x="109" y="414"/>
			<point x="109" y="476" type="curve" smooth="yes"/>
			<point x="109" y="562"/>
			<point x="197" y="644"/>
			<point x="297" y="644" type="curve" smooth="yes"/>
			<point x="369" y="644"/>
			<point x="413" y="616"/>
			<point x="441" y="576" type="curve"/>
			<point x="467" y="596" type="line"/>
			<point x="437" y="636"/>
			<point x="386" y="672"/>
			<point x="305" y="672" type="curve" smooth="yes"/>
			<point x="192" y="672"/>
			<point x="79" y="576"/>
			<point x="79" y="474" type="curve" smooth="yes"/>
			<point x="79" y="415"/>
			<point x="115" y="368"/>
			<point x="173" y="354" type="curve"/>
			<point x="171" y="350" type="line"/>
			<point x="61" y="324"/>
			<point x="-28" y="216"/>
			<point x="-28" y="123" type="curve" smooth="yes"/>
			<point x="-28" y="39"/>
			<point x="41" y="-12"/>
		</contour>
	</outline>
</glyph>
<glyph name="Ghook" format="2">
	<unicode hex="0193"/>
	<advance width="570"/>
	<outline>
		<contour>
			<point x="525" y="584" type="curve"/>
			<point x="552" y="578" type="line"/>
			<point x="536" y="622"/>
			<point x="534" y="654"/>
			<point x="534" y="686" type="curve" smooth="yes"/>
			<point x="534" y="732"/>
			<point x="557" y="764"/>
			<point x="594" y="764" type="curve" smooth="yes"/>
			<point x="614" y="764"/>
			<point x="622" y="760"/>
			<point x="634" y="752" type="curve"/>
			<point x="646" y="772" type="line"/>
			<point x="632" y="782"/>
			<point x="614" y="790"/>
			<point x="596" y="790" type="curve" smooth="yes"/>
			<point x="538" y="790"/>
			<point x="508" y="748"/>
			<point x="508" y="692" type="curve" smooth="yes"/>
			<point x="508" y="660"/>
			<point x="512" y="630"/>
		</contour>
		<component base="G"/>
	</outline>
	<anchor name="aboveUC" x="350" y="682"/>
	<anchor name="belowLC" x="270" y="-22"/>
</glyph>
<glyph name="Istroke" format="2">
	<unicode hex="0197"/>
	<advance width="244"/>
	<outline>
		<contour>
			<point x="48" y="338" type="line"/>
			<point x="224" y="338" type="line"/>
			<point x="230" y="364" type="line"/>
			<point x="128" y="364" type="line"/>
			<point x="54" y="362" type="line"/>
		</contour>
		<component base="I" xOffset="14"/>
	</outline>
	<anchor name="aboveUC" x="204" y="682"/>
	<anchor name="belowLC" x="64" y="-22"/>
</glyph>
<glyph name="lbar" format="2">
	<unicode hex="019A"/>
	<advance width="246"/>
	<outline>
		<contour>
			<point x="40" y="388" type="line"/>
			<point x="252" y="388" type="line"/>
			<point x="258" y="412" type="line"/>
			<point x="138" y="412" type="line"/>
			<point x="46" y="408" type="line"/>
		</contour>
		<component base="l" xOffset="10"/>
	</outline>
	<anchor name="aboveUC" x="220" y="732"/>
	<anchor name="belowLC" x="80" y="-22"/>
</glyph>
<glyph name="nlong" format="2">
	<unicode hex="019E"/>
	<advance width="504"/>
	<outline>
		<contour>
			<point x="300" y="-222" type="line"/>
			<point x="328" y="-222" type="line"/>
			<point x="434" y="310" type="line" smooth="yes"/>
			<point x="440" y="338"/>
			<point x="442" y="350"/>
			<point x="442" y="374" type="curve" smooth="yes"/>
			<point x="442" y="442"/>
			<point x="410" y="490"/>
			<point x="328" y="490" type="curve" smooth="yes"/>
			<point x="270" y="490"/>
			<point x="212" y="452"/>
			<point x="156" y="400" type="curve"/>
			<point x="152" y="400" type="line"/>
			<point x="164" y="478" type="line"/>
			<point x="140" y="478" type="line"/>
			<point x="44" y="0" type="line"/>
			<point x="72" y="0" type="line"/>
			<point x="144" y="358" type="line"/>
			<point x="220" y="432"/>
			<point x="280" y="464"/>
			<point x="324" y="464" type="curve" smooth="yes"/>
			<point x="388" y="464"/>
			<point x="414" y="432"/>
			<point x="414" y="370" type="curve" smooth="yes"/>
			<point x="414" y="350"/>
			<point x="412" y="336"/>
			<point x="406" y="306" type="curve" smooth="yes"/>
		</contour>
	</outline>
	<anchor name="aboveLC" x="320" y="502"/>
	<anchor name="belowLC" x="170" y="-222"/>
</glyph>
<glyph name="ohorn" format="2">
	<unicode hex="01A1"/>
	<advance width="500"/>
	<outline>
		<contour>
			<point x="397" y="442" type="line"/>
			<point x="450" y="452"/>
			<point x="526" y="485"/>
			<point x="526" y="568" type="curve" smooth="yes"/>
			<point x="526" y="584"/>
			<point x="524" y="602"/>
			<point x="518" y="620" type="curve"/>
			<point x="490" y="606" type="line"/>
			<point x="495" y="591"/>
			<point x="497" y="576"/>
			<point x="496" y="564" type="curve" smooth="yes"/>
			<point x="492" y="500"/>
			<point x="444" y="469"/>
			<point x="370" y="464" type="curve"/>
		</contour>
		<component base="o"/>
	</outline>
	<anchor name="aboveLC" x="310" y="502"/>
	<anchor name="belowLC" x="190" y="-22"/>
</glyph>
<glyph name="uhorn" format="1">
	<unicode hex="01B0"/>
	<advance width="524"/>
	<outline>
		<contour>
			<point x="463" y="456" type="line"/>
			<point x="498" y="464"/>
			<point x="574" y="500"/>
			<point x="574" y="584" type="curve" smooth="yes"/>
			<point x="574" y="600"/>
			<point x="572" y="618"/>
			<point x="566" y="636" type="curve"/>
			<point x="538" y="622" type="line"/>
			<point x="543" y="607"/>
			<point x="545" y="592"/>
			<point x="544" y="580" type="curve" smooth="yes"/>
			<point x="540" y="515"/>
			<point x="491" y="482"/>
			<point x="440" y="478" type="curve"/>
		</contour>
		<component base="u"/>
		<contour>
			<point name="aboveLC" x="308" y="502" type="move"/>
		</contour>
		<contour>
			<point name="belowLC" x="240" y="-22" type="move"/>
		</contour>
	</outline>
</glyph>
<glyph name="Ezh" format="2">
	<unicode hex="01B7"/>
	<advance width="524"/>
	<outline>
		<contour>
			<point x="222" y="-12" type="curve" smooth="yes"/>
			<point x="356" y="-12"/>
			<point x="464" y="70"/>
			<point x="464" y="196" type="curve" smooth="yes"/>
			<point x="464" y="318"/>
			<point x="376" y="386"/>
			<point x="239" y="358" type="curve"/>
			<point x="524" y="642" type="line"/>
			<point x="528" y="660" type="line"/>
			<point x="158" y="660" type="line"/>
			<point x="152" y="634" type="line"/>
			<point x="479" y="634" type="line"/>
			<point x="190" y="346" type="line"/>
			<point x="204" y="320" type="line"/>
			<point x="232" y="332"/>
			<point x="252" y="336"/>
			<point x="292" y="336" type="curve" smooth="yes"/>
			<point x="382" y="336"/>
			<point x="434" y="285"/>
			<point x="434" y="190" type="curve" smooth="yes"/>
			<point x="434" y="84"/>
			<point x="336" y="16"/>
			<point x="224" y="16" type="curve" smooth="yes"/>
			<point x="156" y="16"/>
			<point x="86" y="36"/>
			<point x="30" y="106" type="curve"/>
			<point x="9" y="88" type="line"/>
			<point x="64" y="16"/>
			<point x="140" y="-12"/>
		</contour>
	</outline>
	<anchor name="aboveUC" x="340" y="682"/>
	<anchor name="belowLC" x="220" y="-22"/>
</glyph>
<glyph name="clickalveolar" format="1">
	<unicode hex="01C2"/>
	<advance width="210"/>
	<outline>
		<contour>
			<point x="-28" y="284" type="line"/>
			<point x="214" y="284" type="line"/>
			<point x="220" y="310" type="line"/>
			<point x="56" y="310" type="line"/>
			<point x="-24" y="306" type="line"/>
		</contour>
		<contour>
			<point x="2" y="436" type="line"/>
			<point x="244" y="436" type="line"/>
			<point x="250" y="462" type="line"/>
			<point x="86" y="462" type="line"/>
			<point x="6" y="458" type="line"/>
		</contour>
		<component base="l.a" xOffset="-19" yOffset="12"/>
		<contour>
			<point name="aboveUC" x="180" y="730" type="move"/>
		</contour>
		<contour>
			<point name="belowLC" x="30" y="-22" type="move"/>
		</contour>
	</outline>
</glyph>
<glyph name="clickretroflex" format="1">
	<unicode hex="01C3"/>
	<advance width="186"/>
	<outline>
		<contour>
			<point x="72" y="172" type="line"/>
			<point x="96" y="172" type="line"/>
			<point x="184" y="608" type="line"/>
			<point x="206" y="722" type="line"/>
			<point x="178" y="722" type="line"/>
			<point x="156" y="608" type="line"/>
		</contour>
		<contour>
			<point x="50" y="-12" type="curve" smooth="yes"/>
			<point x="72" y="-12"/>
			<point x="90" y="10"/>
			<point x="90" y="32" type="curve" smooth="yes"/>
			<point x="90" y="50"/>
			<point x="82" y="64"/>
			<point x="64" y="64" type="curve" smooth="yes"/>
			<point x="42" y="64"/>
			<point x="22" y="40"/>
			<point x="22" y="18" type="curve" smooth="yes"/>
			<point x="22" y="2"/>
			<point x="32" y="-12"/>
		</contour>
	</outline>
</glyph>
<glyph name="gstroke" format="2">
	<unicode hex="01E5"/>
	<advance width="518"/>
	<outline>
		<contour>
			<point x="264" y="242" type="line"/>
			<point x="516" y="242" type="line"/>
			<point x="522" y="266" type="line"/>
			<point x="402" y="266" type="line"/>
			<point x="270" y="262" type="line"/>
		</contour>
		<component base="g"/>
	</outline>
	<anchor name="aboveLC" x="310" y="502"/>
	<anchor name="belowLC" x="170" y="-222"/>
</glyph>
<glyph name="Oogonek" format="1">
	<unicode hex="01EA"/>
	<advance width="612"/>
	<outline>
		<contour>
			<point x="246" y="-202" type="curve" smooth="yes"/>
			<point x="262" y="-202"/>
			<point x="282" y="-196"/>
			<point x="300" y="-186" type="curve"/>
			<point x="290" y="-164" type="line"/>
			<point x="276" y="-172"/>
			<point x="264" y="-176"/>
			<point x="248" y="-176" type="curve" smooth="yes"/>
			<point x="226" y="-176"/>
			<point x="210" y="-160"/>
			<point x="210" y="-134" type="curve" smooth="yes"/>
			<point x="210" y="-92"/>
			<point x="246" y="-30"/>
			<point x="332" y="-6" type="curve" smooth="yes"/>
			<point x="492" y="38"/>
			<point x="584" y="234"/>
			<point x="584" y="398" type="curve" smooth="yes"/>
			<point x="584" y="558"/>
			<point x="516" y="672"/>
			<point x="372" y="672" type="curve" smooth="yes"/>
			<point x="174" y="672"/>
			<point x="62" y="438"/>
			<point x="62" y="262" type="curve" smooth="yes"/>
			<point x="62" y="102"/>
			<point x="130" y="-12"/>
			<point x="274" y="-12" type="curve"/>
			<point x="288" y="4" type="line"/>
			<point x="224" y="-30"/>
			<point x="180" y="-88"/>
			<point x="180" y="-140" type="curve" smooth="yes"/>
			<point x="180" y="-182"/>
			<point x="208" y="-202"/>
		</contour>
		<contour>
			<point x="276" y="14" type="curve" smooth="yes"/>
			<point x="146" y="14"/>
			<point x="92" y="118"/>
			<point x="92" y="266" type="curve" smooth="yes"/>
			<point x="92" y="422"/>
			<point x="190" y="646"/>
			<point x="370" y="646" type="curve" smooth="yes"/>
			<point x="500" y="646"/>
			<point x="554" y="542"/>
			<point x="554" y="394" type="curve" smooth="yes"/>
			<point x="554" y="238"/>
			<point x="456" y="14"/>
		</contour>
		<contour>
			<point name="aboveUC" x="390" y="682" type="move"/>
		</contour>
	</outline>
</glyph>
<glyph name="oogonek" format="1">
	<unicode hex="01EB"/>
	<advance width="500"/>
	<outline>
		<contour>
			<point x="164" y="-212" type="curve" smooth="yes"/>
			<point x="190" y="-212"/>
			<point x="212" y="-202"/>
			<point x="236" y="-180" type="curve"/>
			<point x="224" y="-164" type="line"/>
			<point x="202" y="-180"/>
			<point x="188" y="-186"/>
			<point x="168" y="-186" type="curve" smooth="yes"/>
			<point x="142" y="-186"/>
			<point x="124" y="-168"/>
			<point x="124" y="-138" type="curve" smooth="yes"/>
			<point x="124" y="-94"/>
			<point x="154" y="-42"/>
			<point x="256" y="-6" type="curve" smooth="yes"/>
			<point x="380" y="38"/>
			<point x="454" y="160"/>
			<point x="454" y="302" type="curve" smooth="yes"/>
			<point x="454" y="422"/>
			<point x="392" y="490"/>
			<point x="296" y="490" type="curve" smooth="yes"/>
			<point x="166" y="490"/>
			<point x="46" y="354"/>
			<point x="46" y="176" type="curve" smooth="yes"/>
			<point x="46" y="56"/>
			<point x="108" y="-12"/>
			<point x="204" y="-12" type="curve"/>
			<point x="218" y="2" type="line"/>
			<point x="144" y="-26"/>
			<point x="94" y="-88"/>
			<point x="94" y="-144" type="curve" smooth="yes"/>
			<point x="94" y="-190"/>
			<point x="124" y="-212"/>
		</contour>
		<contour>
			<point x="206" y="14" type="curve" smooth="yes"/>
			<point x="122" y="14"/>
			<point x="74" y="72"/>
			<point x="74" y="182" type="curve" smooth="yes"/>
			<point x="74" y="334"/>
			<point x="186" y="464"/>
			<point x="294" y="464" type="curve" smooth="yes"/>
			<point x="378" y="464"/>
			<point x="426" y="406"/>
			<point x="426" y="296" type="curve" smooth="yes"/>
			<point x="426" y="144"/>
			<point x="314" y="14"/>
		</contour>
		<contour>
			<point name="aboveLC" x="318" y="502" type="move"/>
		</contour>
	</outline>
</glyph>
<glyph name="dotlessj" format="1">
	<unicode hex="0237"/>
	<advance width="214"/>
	<outline>
		<contour>
			<point x="-60" y="-234" type="curve" smooth="yes"/>
			<point x="0" y="-234"/>
			<point x="36" y="-182"/>
			<point x="52" y="-100" type="curve" smooth="yes"/>
			<point x="168" y="478" type="line"/>
			<point x="140" y="478" type="line"/>
			<point x="22" y="-104" type="line" smooth="yes"/>
			<point x="8" y="-166"/>
			<point x="-18" y="-208"/>
			<point x="-58" y="-208" type="curve" smooth="yes"/>
			<point x="-80" y="-208"/>
			<point x="-94" y="-204"/>
			<point x="-106" y="-196" type="curve"/>
			<point x="-118" y="-218" type="line"/>
			<point x="-104" y="-228"/>
			<point x="-86" y="-234"/>
		</contour>
		<contour>
			<point name="aboveLC" x="160" y="502" type="move"/>
		</contour>
		<contour>
			<point name="belowLC" x="-40" y="-222" type="move"/>
		</contour>
	</outline>
</glyph>
<glyph name="Astroke" format="2">
	<unicode hex="023A"/>
	<advance width="480"/>
	<outline>
		<contour>
			<point x="97" y="-20" type="line"/>
			<point x="444" y="674" type="line"/>
			<point x="419" y="680" type="line"/>
			<point x="72" y="-14" type="line"/>
		</contour>
		<component base="A"/>
	</outline>
	<anchor name="aboveUC" x="330" y="682"/>
	<anchor name="belowLC" x="210" y="-22"/>
	<anchor name="ogonekUC" x="408" y="0"/>
</glyph>
<glyph name="Cstroke" format="2">
	<unicode hex="023B"/>
	<advance width="536"/>
	<outline>
		<contour>
			<point x="120" y="-20" type="line"/>
			<point x="501" y="674" type="line"/>
			<point x="476" y="680" type="line"/>
			<point x="95" y="-14" type="line"/>
		</contour>
		<component base="C"/>
	</outline>
	<anchor name="aboveUC" x="380" y="682"/>
	<anchor name="belowLC" x="260" y="-22"/>
</glyph>
<glyph name="cstroke" format="2">
	<unicode hex="023C"/>
	<advance width="428"/>
	<outline>
		<contour>
			<point x="126" y="-22" type="line"/>
			<point x="394" y="484" type="line"/>
			<point x="370" y="498" type="line"/>
			<point x="102" y="-8" type="line"/>
		</contour>
		<component base="c"/>
	</outline>
	<anchor name="aboveLC" x="300" y="502"/>
	<anchor name="belowLC" x="200" y="-22"/>
</glyph>
<glyph name="Lbar" format="2">
	<unicode hex="023D"/>
	<advance width="442"/>
	<outline>
		<contour>
			<point x="40" y="338" type="line"/>
			<point x="338" y="338" type="line"/>
			<point x="344" y="364" type="line"/>
			<point x="124" y="364" type="line"/>
			<point x="46" y="360" type="line"/>
		</contour>
		<component base="L" xOffset="10"/>
	</outline>
	<anchor name="aboveUC" x="210" y="682"/>
	<anchor name="belowLC" x="230" y="-22"/>
</glyph>
<glyph name="Glottalstop" format="1">
	<unicode hex="0241"/>
	<advance width="462"/>
	<outline>
		<contour>
			<point x="148" y="0" type="line"/>
			<point x="178" y="0" type="line"/>
			<point x="230" y="258" type="line"/>
			<point x="380" y="308"/>
			<point x="472" y="400"/>
			<point x="472" y="518" type="curve" smooth="yes"/>
			<point x="472" y="620"/>
			<point x="404" y="672"/>
			<point x="306" y="672" type="curve" smooth="yes"/>
			<point x="214" y="672"/>
			<point x="136" y="628"/>
			<point x="88" y="586" type="curve"/>
			<point x="105" y="566" type="line"/>
			<point x="152" y="606"/>
			<point x="224" y="646"/>
			<point x="304" y="646" type="curve" smooth="yes"/>
			<point x="394" y="646"/>
			<point x="442" y="598"/>
			<point x="442" y="512" type="curve" smooth="yes"/>
			<point x="442" y="418"/>
			<point x="374" y="334"/>
			<point x="204" y="278" type="curve"/>
		</contour>
		<contour>
			<point name="aboveUC" x="310" y="682" type="move"/>
		</contour>
		<contour>
			<point name="belowLC" x="160" y="-22" type="move"/>
		</contour>
	</outline>
</glyph>
<glyph name="Bstroke" format="2">
	<unicode hex="0243"/>
	<advance width="574"/>
	<outline>
		<contour>
			<point x="58" y="0" type="line"/>
			<point x="248" y="0" type="line" smooth="yes"/>
			<point x="406" y="0"/>
			<point x="512" y="66"/>
			<point x="512" y="206" type="curve" smooth="yes"/>
			<point x="512" y="290"/>
			<point x="450" y="334"/>
			<point x="386" y="348" type="curve"/>
			<point x="386" y="352" type="line"/>
			<point x="448" y="362"/>
			<point x="536" y="418"/>
			<point x="536" y="518" type="curve" smooth="yes"/>
			<point x="536" y="606"/>
			<point x="468" y="660"/>
			<point x="346" y="660" type="curve" smooth="yes"/>
			<point x="190" y="660" type="line"/>
		</contour>
		<contour>
			<point x="22" y="180" type="line"/>
			<point x="292" y="180" type="line"/>
			<point x="298" y="206" type="line"/>
			<point x="100" y="206" type="line"/>
			<point x="28" y="202" type="line"/>
		</contour>
		<contour>
			<point x="92" y="26" type="line"/>
			<point x="156" y="338" type="line"/>
			<point x="296" y="338" type="line" smooth="yes"/>
			<point x="414" y="338"/>
			<point x="482" y="280"/>
			<point x="482" y="203" type="curve" smooth="yes"/>
			<point x="482" y="74"/>
			<point x="380" y="26"/>
			<point x="230" y="26" type="curve" smooth="yes"/>
		</contour>
		<contour>
			<point x="160" y="364" type="line"/>
			<point x="214" y="634" type="line"/>
			<point x="330" y="634" type="line" smooth="yes"/>
			<point x="452" y="634"/>
			<point x="506" y="590"/>
			<point x="506" y="516" type="curve" smooth="yes"/>
			<point x="506" y="428"/>
			<point x="430" y="364"/>
			<point x="278" y="364" type="curve" smooth="yes"/>
		</contour>
	</outline>
</glyph>
<glyph name="Ubar" format="2">
	<unicode hex="0244"/>
	<advance width="668"/>
	<outline>
		<contour>
			<point x="38" y="336" type="line"/>
			<point x="630" y="336" type="line"/>
			<point x="630" y="364" type="line"/>
			<point x="121" y="364" type="line"/>
			<point x="38" y="360" type="line"/>
		</contour>
		<component base="U" xOffset="22"/>
	</outline>
</glyph>
<glyph name="Jstroke" format="2">
	<unicode hex="0248"/>
	<advance width="450"/>
	<outline>
		<contour>
			<point x="194" y="338" type="line"/>
			<point x="430" y="338" type="line"/>
			<point x="436" y="364" type="line"/>
			<point x="334" y="364" type="line"/>
			<point x="200" y="360" type="line"/>
		</contour>
		<component base="J"/>
	</outline>
	<anchor name="aboveUC" x="410" y="682"/>
	<anchor name="belowLC" x="130" y="-22"/>
</glyph>
<glyph name="aturned" format="1">
	<unicode hex="0250"/>
	<advance width="474"/>
	<outline>
		<component base="a.a" xScale="-1" yScale="-1" xOffset="486" yOffset="478"/>
		<contour>
			<point name="aboveLC" x="300" y="500" type="move"/>
		</contour>
		<contour>
			<point name="belowLC" x="210" y="-20" type="move"/>
		</contour>
	</outline>
</glyph>
<glyph name="alphalatin" format="1">
	<unicode hex="0251"/>
	<advance width="524"/>
	<outline>
		<contour>
			<point x="186" y="-12" type="curve" smooth="yes"/>
			<point x="254" y="-12"/>
			<point x="316" y="26"/>
			<point x="366" y="78" type="curve"/>
			<point x="370" y="78" type="line"/>
			<point x="364" y="48"/>
			<point x="362" y="34"/>
			<point x="362" y="22" type="curve" smooth="yes"/>
			<point x="362" y="0"/>
			<point x="378" y="-12"/>
			<point x="396" y="-12" type="curve" smooth="yes"/>
			<point x="408" y="-12"/>
			<point x="414" y="-10"/>
			<point x="424" y="-6" type="curve"/>
			<point x="418" y="16" type="line"/>
			<point x="412" y="14"/>
			<point x="408" y="14"/>
			<point x="404" y="14" type="curve" smooth="yes"/>
			<point x="394" y="14"/>
			<point x="390" y="20"/>
			<point x="390" y="28" type="curve" smooth="yes"/>
			<point x="390" y="32"/>
			<point x="390" y="38"/>
			<point x="392" y="48" type="curve" smooth="yes"/>
			<point x="478" y="478" type="line"/>
			<point x="454" y="478" type="line"/>
			<point x="436" y="410" type="line"/>
			<point x="432" y="410" type="line"/>
			<point x="406" y="458"/>
			<point x="364" y="490"/>
			<point x="306" y="490" type="curve" smooth="yes"/>
			<point x="174" y="490"/>
			<point x="46" y="344"/>
			<point x="46" y="160" type="curve" smooth="yes"/>
			<point x="46" y="48"/>
			<point x="102" y="-12"/>
		</contour>
		<contour>
			<point x="188" y="14" type="curve" smooth="yes"/>
			<point x="118" y="14"/>
			<point x="74" y="64"/>
			<point x="74" y="166" type="curve" smooth="yes"/>
			<point x="74" y="314"/>
			<point x="184" y="464"/>
			<point x="304" y="464" type="curve" smooth="yes"/>
			<point x="352" y="464"/>
			<point x="392" y="438"/>
			<point x="430" y="372" type="curve"/>
			<point x="378" y="122" type="line"/>
			<point x="318" y="54"/>
			<point x="254" y="14"/>
		</contour>
		<contour>
			<point name="aboveLC" x="310" y="502" type="move"/>
		</contour>
		<contour>
			<point name="belowLC" x="220" y="-22" type="move"/>
		</contour>
	</outline>
</glyph>
<glyph name="alphalatinturned" format="1">
	<unicode hex="0252"/>
	<advance width="524"/>
	<outline>
		<contour>
			<point x="220" y="-12" type="curve" smooth="yes"/>
			<point x="352" y="-12"/>
			<point x="480" y="134"/>
			<point x="480" y="318" type="curve" smooth="yes"/>
			<point x="480" y="430"/>
			<point x="424" y="490"/>
			<point x="340" y="490" type="curve" smooth="yes"/>
			<point x="272" y="490"/>
			<point x="212" y="450"/>
			<point x="159" y="408" type="curve"/>
			<point x="156" y="408" type="line"/>
			<point x="162" y="434"/>
			<point x="164" y="446"/>
			<point x="164" y="454" type="curve" smooth="yes"/>
			<point x="164" y="478"/>
			<point x="149" y="490"/>
			<point x="130" y="490" type="curve" smooth="yes"/>
			<point x="118" y="490"/>
			<point x="112" y="488"/>
			<point x="102" y="484" type="curve"/>
			<point x="106" y="460" type="line"/>
			<point x="116" y="464"/>
			<point x="118" y="464"/>
			<point x="122" y="464" type="curve" smooth="yes"/>
			<point x="132" y="464"/>
			<point x="136" y="458"/>
			<point x="136" y="450" type="curve" smooth="yes"/>
			<point x="136" y="446"/>
			<point x="136" y="440"/>
			<point x="134" y="430" type="curve"/>
			<point x="48" y="0" type="line"/>
			<point x="72" y="0" type="line"/>
			<point x="90" y="68" type="line"/>
			<point x="94" y="68" type="line"/>
			<point x="120" y="20"/>
			<point x="162" y="-12"/>
		</contour>
		<contour>
			<point x="222" y="14" type="curve" smooth="yes"/>
			<point x="174" y="14"/>
			<point x="134" y="40"/>
			<point x="96" y="106" type="curve"/>
			<point x="150" y="370" type="line"/>
			<point x="208" y="424"/>
			<point x="282" y="464"/>
			<point x="338" y="464" type="curve" smooth="yes"/>
			<point x="408" y="464"/>
			<point x="452" y="413"/>
			<point x="452" y="312" type="curve" smooth="yes"/>
			<point x="452" y="164"/>
			<point x="342" y="14"/>
		</contour>
		<contour>
			<point name="aboveLC" x="324" y="502" type="move"/>
		</contour>
		<contour>
			<point name="belowLC" x="224" y="-22" type="move"/>
		</contour>
	</outline>
</glyph>
<glyph name="oopen" format="1">
	<unicode hex="0254"/>
	<advance width="427"/>
	<outline>
		<contour>
			<point x="116" y="-12" type="curve" smooth="yes"/>
			<point x="249" y="-12"/>
			<point x="376" y="108"/>
			<point x="376" y="298" type="curve" smooth="yes"/>
			<point x="376" y="420"/>
			<point x="310" y="490"/>
			<point x="220" y="490" type="curve" smooth="yes"/>
			<point x="152" y="490"/>
			<point x="108" y="466"/>
			<point x="66" y="430" type="curve"/>
			<point x="82" y="409" type="line"/>
			<point x="122" y="444"/>
			<point x="162" y="464"/>
			<point x="218" y="464" type="curve" smooth="yes"/>
			<point x="296" y="464"/>
			<point x="348" y="394"/>
			<point x="348" y="292" type="curve" smooth="yes"/>
			<point x="348" y="135"/>
			<point x="245" y="14"/>
			<point x="118" y="14" type="curve" smooth="yes"/>
			<point x="66" y="14"/>
			<point x="26" y="38"/>
			<point x="0" y="72" type="curve"/>
			<point x="-20" y="52" type="line"/>
			<point x="8" y="16"/>
			<point x="53" y="-12"/>
		</contour>
		<contour>
			<point name="aboveLC" x="230" y="502" type="move"/>
		</contour>
		<contour>
			<point name="baseLC" x="130" y="0" type="move"/>
		</contour>
		<contour>
			<point name="belowLC" x="130" y="-22" type="move"/>
		</contour>
	</outline>
</glyph>
<glyph name="ccurl" format="1">
	<unicode hex="0255"/>
	<advance width="428"/>
	<outline>
		<contour>
			<point x="35" y="-66" type="line"/>
			<point x="95" y="48"/>
			<point x="204" y="134"/>
			<point x="280" y="134" type="curve" smooth="yes"/>
			<point x="324" y="134"/>
			<point x="339" y="106"/>
			<point x="334" y="80" type="curve" smooth="yes"/>
			<point x="326" y="41"/>
			<point x="274" y="14"/>
			<point x="212" y="14" type="curve" smooth="yes"/>
			<point x="118" y="14"/>
			<point x="72" y="72"/>
			<point x="72" y="182" type="curve" smooth="yes"/>
			<point x="72" y="334"/>
			<point x="184" y="464"/>
			<point x="296" y="464" type="curve" smooth="yes"/>
			<point x="342" y="464"/>
			<point x="368" y="448"/>
			<point x="398" y="412" type="curve"/>
			<point x="418" y="432" type="line"/>
			<point x="386" y="468"/>
			<point x="352" y="490"/>
			<point x="298" y="490" type="curve" smooth="yes"/>
			<point x="174" y="490"/>
			<point x="44" y="364"/>
			<point x="44" y="176" type="curve" smooth="yes"/>
			<point x="44" y="56"/>
			<point x="108" y="-12"/>
			<point x="210" y="-12" type="curve" smooth="yes"/>
			<point x="295" y="-12"/>
			<point x="356" y="30"/>
			<point x="366" y="82" type="curve" smooth="yes"/>
			<point x="374" y="126"/>
			<point x="347" y="162"/>
			<point x="285" y="162" type="curve" smooth="yes"/>
			<point x="191" y="162"/>
			<point x="86" y="74"/>
			<point x="9" y="-56" type="curve"/>
		</contour>
		<contour>
			<point name="aboveLC" x="290" y="500" type="move"/>
		</contour>
		<contour>
			<point name="belowLC" x="220" y="-20" type="move"/>
		</contour>
	</outline>
</glyph>
<glyph name="dtail" format="1">
	<unicode hex="0256"/>
	<advance width="526"/>
	<outline>
		<contour>
			<point x="404" y="-180" type="curve" smooth="yes"/>
			<point x="419" y="-180"/>
			<point x="441" y="-174"/>
			<point x="452" y="-168" type="curve"/>
			<point x="446" y="-144" type="line"/>
			<point x="436" y="-148"/>
			<point x="421" y="-154"/>
			<point x="406" y="-154" type="curve" smooth="yes"/>
			<point x="376" y="-154"/>
			<point x="366" y="-138"/>
			<point x="366" y="-104" type="curve" smooth="yes"/>
			<point x="366" y="-84"/>
			<point x="368" y="-72"/>
			<point x="372" y="-50" type="curve" smooth="yes"/>
			<point x="528" y="722" type="line"/>
			<point x="500" y="722" type="line"/>
			<point x="456" y="506" type="line"/>
			<point x="436" y="410" type="line"/>
			<point x="432" y="410" type="line"/>
			<point x="406" y="458"/>
			<point x="364" y="490"/>
			<point x="306" y="490" type="curve" smooth="yes"/>
			<point x="174" y="490"/>
			<point x="46" y="344"/>
			<point x="46" y="160" type="curve" smooth="yes"/>
			<point x="46" y="48"/>
			<point x="102" y="-12"/>
			<point x="186" y="-12" type="curve" smooth="yes"/>
			<point x="254" y="-12"/>
			<point x="316" y="26"/>
			<point x="368" y="80" type="curve"/>
			<point x="370" y="80" type="line"/>
			<point x="342" y="-54"/>
			<point x="338" y="-80"/>
			<point x="338" y="-108" type="curve" smooth="yes"/>
			<point x="338" y="-160"/>
			<point x="364" y="-180"/>
		</contour>
		<contour>
			<point x="188" y="14" type="curve" smooth="yes"/>
			<point x="118" y="14"/>
			<point x="74" y="64"/>
			<point x="74" y="166" type="curve" smooth="yes"/>
			<point x="74" y="314"/>
			<point x="184" y="464"/>
			<point x="304" y="464" type="curve" smooth="yes"/>
			<point x="352" y="464"/>
			<point x="392" y="438"/>
			<point x="430" y="372" type="curve"/>
			<point x="378" y="122" type="line"/>
			<point x="318" y="54"/>
			<point x="254" y="14"/>
		</contour>
		<contour>
			<point name="aboveUC" x="480" y="730" type="move"/>
		</contour>
		<contour>
			<point name="belowLC" x="200" y="-22" type="move"/>
		</contour>
	</outline>
</glyph>
<glyph name="dhook" format="1">
	<unicode hex="0257"/>
	<advance width="526"/>
	<outline>
		<contour>
			<point x="186" y="-12" type="curve" smooth="yes"/>
			<point x="254" y="-12"/>
			<point x="316" y="26"/>
			<point x="366" y="78" type="curve"/>
			<point x="370" y="78" type="line"/>
			<point x="358" y="0" type="line"/>
			<point x="382" y="0" type="line"/>
			<point x="504" y="604" type="line" smooth="yes"/>
			<point x="520" y="682"/>
			<point x="544" y="708"/>
			<point x="584" y="708" type="curve" smooth="yes"/>
			<point x="600" y="708"/>
			<point x="612" y="704"/>
			<point x="620" y="700" type="curve"/>
			<point x="632" y="722" type="line"/>
			<point x="620" y="728"/>
			<point x="604" y="734"/>
			<point x="586" y="734" type="curve" smooth="yes"/>
			<point x="532" y="734"/>
			<point x="496" y="700"/>
			<point x="476" y="604" type="curve" smooth="yes"/>
			<point x="456" y="506" type="line"/>
			<point x="436" y="410" type="line"/>
			<point x="432" y="410" type="line"/>
			<point x="406" y="458"/>
			<point x="364" y="490"/>
			<point x="306" y="490" type="curve" smooth="yes"/>
			<point x="174" y="490"/>
			<point x="46" y="344"/>
			<point x="46" y="160" type="curve" smooth="yes"/>
			<point x="46" y="48"/>
			<point x="102" y="-12"/>
		</contour>
		<contour>
			<point x="188" y="14" type="curve" smooth="yes"/>
			<point x="118" y="14"/>
			<point x="74" y="64"/>
			<point x="74" y="166" type="curve" smooth="yes"/>
			<point x="74" y="314"/>
			<point x="184" y="464"/>
			<point x="304" y="464" type="curve" smooth="yes"/>
			<point x="352" y="464"/>
			<point x="392" y="438"/>
			<point x="430" y="372" type="curve"/>
			<point x="378" y="122" type="line"/>
			<point x="318" y="54"/>
			<point x="254" y="14"/>
		</contour>
		<contour>
			<point name="aboveUC" x="480" y="730" type="move"/>
		</contour>
		<contour>
			<point name="belowLC" x="200" y="-22" type="move"/>
		</contour>
	</outline>
</glyph>
<glyph name="schwa" format="2">
	<unicode hex="0259"/>
	<advance width="468"/>
	<outline>
		<contour>
			<point x="186" y="-12" type="curve" smooth="yes"/>
			<point x="304" y="-12"/>
			<point x="422" y="114"/>
			<point x="422" y="294" type="curve" smooth="yes"/>
			<point x="422" y="422"/>
			<point x="360" y="490"/>
			<point x="262" y="490" type="curve" smooth="yes"/>
			<point x="204" y="490"/>
			<point x="158" y="468"/>
			<point x="122" y="442" type="curve"/>
			<point x="136" y="424" type="line"/>
			<point x="172" y="448"/>
			<point x="210" y="464"/>
			<point x="260" y="464" type="curve" smooth="yes"/>
			<point x="332" y="464"/>
			<point x="394" y="418"/>
			<point x="394" y="292" type="curve" smooth="yes"/>
			<point x="394" y="134"/>
			<point x="290" y="14"/>
			<point x="188" y="14" type="curve" smooth="yes"/>
			<point x="96" y="14"/>
			<point x="62" y="82"/>
			<point x="62" y="150" type="curve" smooth="yes"/>
			<point x="62" y="176"/>
			<point x="64" y="200"/>
			<point x="70" y="222" type="curve"/>
			<point x="394" y="222" type="line"/>
			<point x="400" y="248" type="line"/>
			<point x="48" y="248" type="line"/>
			<point x="40" y="226"/>
			<point x="34" y="194"/>
			<point x="34" y="156" type="curve" smooth="yes"/>
			<point x="34" y="58"/>
			<point x="78" y="-12"/>
		</contour>
	</outline>
	<anchor name="aboveLC" x="280" y="502"/>
	<anchor name="belowLC" x="170" y="-22"/>
	<anchor name="ogonekLC" x="180" y="0"/>
</glyph>
<glyph name="schwahookrhotic" format="1">
	<unicode hex="025A"/>
	<advance width="600"/>
	<outline>
		<contour>
			<point x="240" y="-12" type="curve" smooth="yes"/>
			<point x="367" y="-12"/>
			<point x="478" y="137"/>
			<point x="478" y="312" type="curve" smooth="yes"/>
			<point x="478" y="429"/>
			<point x="410" y="490"/>
			<point x="314" y="490" type="curve" smooth="yes"/>
			<point x="244" y="490"/>
			<point x="202" y="468"/>
			<point x="158" y="444" type="curve"/>
			<point x="170" y="420" type="line"/>
			<point x="214" y="444"/>
			<point x="252" y="464"/>
			<point x="312" y="464" type="curve" smooth="yes"/>
			<point x="392" y="464"/>
			<point x="450" y="411"/>
			<point x="450" y="306" type="curve" smooth="yes"/>
			<point x="450" y="155"/>
			<point x="354" y="14"/>
			<point x="242" y="14" type="curve" smooth="yes"/>
			<point x="148" y="14"/>
			<point x="102" y="76"/>
			<point x="102" y="166" type="curve"/>
			<point x="550" y="328" type="line"/>
			<point x="550" y="260"/>
			<point x="572" y="234"/>
			<point x="614" y="234" type="curve" smooth="yes"/>
			<point x="634" y="234"/>
			<point x="658" y="246"/>
			<point x="670" y="258" type="curve"/>
			<point x="656" y="278" type="line"/>
			<point x="646" y="270"/>
			<point x="632" y="262"/>
			<point x="616" y="262" type="curve" smooth="yes"/>
			<point x="593" y="262"/>
			<point x="578" y="270"/>
			<point x="578" y="323" type="curve" smooth="yes"/>
			<point x="578" y="330"/>
			<point x="579" y="339"/>
			<point x="580" y="348" type="curve"/>
			<point x="564" y="360" type="line"/>
			<point x="72" y="182" type="line"/>
			<point x="72" y="70"/>
			<point x="120" y="-12"/>
		</contour>
		<contour>
			<point name="aboveLC" x="320" y="502" type="move"/>
		</contour>
		<contour>
			<point name="belowLC" x="240" y="-22" type="move"/>
		</contour>
	</outline>
</glyph>
<glyph name="eopen" format="1">
	<unicode hex="025B"/>
	<advance width="396"/>
	<outline>
		<contour>
			<point x="174" y="-12" type="curve" smooth="yes"/>
			<point x="240" y="-12"/>
			<point x="287" y="4"/>
			<point x="350" y="46" type="curve"/>
			<point x="336" y="68" type="line"/>
			<point x="276" y="28"/>
			<point x="238" y="14"/>
			<point x="176" y="14" type="curve" smooth="yes"/>
			<point x="100" y="14"/>
			<point x="50" y="50"/>
			<point x="50" y="110" type="curve" smooth="yes"/>
			<point x="50" y="190"/>
			<point x="124" y="242"/>
			<point x="238" y="242" type="curve" smooth="yes"/>
			<point x="296" y="242" type="line"/>
			<point x="302" y="268" type="line"/>
			<point x="258" y="268" type="line" smooth="yes"/>
			<point x="164" y="268"/>
			<point x="128" y="306"/>
			<point x="128" y="358" type="curve" smooth="yes"/>
			<point x="128" y="424"/>
			<point x="182" y="464"/>
			<point x="266" y="464" type="curve" smooth="yes"/>
			<point x="314" y="464"/>
			<point x="350" y="448"/>
			<point x="386" y="420" type="curve"/>
			<point x="402" y="438" type="line"/>
			<point x="368" y="468"/>
			<point x="324" y="490"/>
			<point x="268" y="490" type="curve" smooth="yes"/>
			<point x="168" y="490"/>
			<point x="100" y="436"/>
			<point x="100" y="352" type="curve" smooth="yes"/>
			<point x="100" y="304"/>
			<point x="136" y="274"/>
			<point x="168" y="262" type="curve"/>
			<point x="168" y="260" type="line"/>
			<point x="100" y="244"/>
			<point x="22" y="200"/>
			<point x="22" y="104" type="curve" smooth="yes"/>
			<point x="22" y="34"/>
			<point x="78" y="-12"/>
		</contour>
		<contour>
			<point name="aboveLC" x="280" y="502" type="move"/>
		</contour>
		<contour>
			<point name="baseLC" x="170" y="0" type="move"/>
		</contour>
		<contour>
			<point name="belowLC" x="160" y="-22" type="move"/>
		</contour>
	</outline>
</glyph>
<glyph name="eopenreversed" format="1">
	<unicode hex="025C"/>
	<advance width="440"/>
	<outline>
		<contour>
			<point x="204" y="-12" type="curve" smooth="yes"/>
			<point x="312" y="-12"/>
			<point x="395" y="46"/>
			<point x="411" y="128" type="curve"/>
			<point x="425" y="200"/>
			<point x="374" y="238"/>
			<point x="325" y="252" type="curve"/>
			<point x="326" y="256" type="line"/>
			<point x="380" y="276"/>
			<point x="420" y="318"/>
			<point x="430" y="368" type="curve" smooth="yes"/>
			<point x="445" y="448"/>
			<point x="387" y="490"/>
			<point x="303" y="490" type="curve" smooth="yes"/>
			<point x="245" y="490"/>
			<point x="192" y="470"/>
			<point x="149" y="439" type="curve"/>
			<point x="161" y="416" type="line"/>
			<point x="205" y="444"/>
			<point x="252" y="462"/>
			<point x="300" y="462" type="curve" smooth="yes"/>
			<point x="365" y="462"/>
			<point x="410" y="432"/>
			<point x="397" y="366" type="curve" smooth="yes"/>
			<point x="386" y="310"/>
			<point x="333" y="266"/>
			<point x="230" y="266" type="curve" smooth="yes"/>
			<point x="186" y="266" type="line"/>
			<point x="180" y="238" type="line"/>
			<point x="238" y="238" type="line" smooth="yes"/>
			<point x="340" y="238"/>
			<point x="392" y="197"/>
			<point x="379" y="129" type="curve" smooth="yes"/>
			<point x="366" y="60"/>
			<point x="295" y="16"/>
			<point x="205" y="16" type="curve" smooth="yes"/>
			<point x="149" y="16"/>
			<point x="112" y="32"/>
			<point x="71" y="71" type="curve"/>
			<point x="49" y="47" type="line"/>
			<point x="93" y="6"/>
			<point x="136" y="-12"/>
		</contour>
		<contour>
			<point name="aboveLC" x="310" y="500" type="move"/>
		</contour>
		<contour>
			<point name="belowLC" x="212" y="-20" type="move"/>
		</contour>
	</outline>
</glyph>
<glyph name="eopenreversedclosed" format="1">
	<unicode hex="025E"/>
	<advance width="468"/>
	<outline>
		<contour>
			<point x="232" y="-12" type="curve" smooth="yes"/>
			<point x="346" y="-12"/>
			<point x="434" y="56"/>
			<point x="434" y="152" type="curve" smooth="yes"/>
			<point x="434" y="212"/>
			<point x="386" y="242"/>
			<point x="346" y="256" type="curve"/>
			<point x="346" y="258" type="line"/>
			<point x="398" y="278"/>
			<point x="452" y="320"/>
			<point x="452" y="392" type="curve" smooth="yes"/>
			<point x="452" y="456"/>
			<point x="394" y="490"/>
			<point x="324" y="490" type="curve" smooth="yes"/>
			<point x="168" y="490"/>
			<point x="46" y="354"/>
			<point x="46" y="176" type="curve" smooth="yes"/>
			<point x="46" y="56"/>
			<point x="117" y="-12"/>
		</contour>
		<contour>
			<point x="234" y="14" type="curve" smooth="yes"/>
			<point x="130" y="14"/>
			<point x="74" y="72"/>
			<point x="74" y="182" type="curve" smooth="yes"/>
			<point x="74" y="334"/>
			<point x="188" y="464"/>
			<point x="322" y="464" type="curve" smooth="yes"/>
			<point x="376" y="464"/>
			<point x="424" y="440"/>
			<point x="424" y="386" type="curve" smooth="yes"/>
			<point x="424" y="324"/>
			<point x="366" y="268"/>
			<point x="252" y="268" type="curve" smooth="yes"/>
			<point x="242" y="268" type="line"/>
			<point x="236" y="242" type="line"/>
			<point x="260" y="242" type="line" smooth="yes"/>
			<point x="354" y="242"/>
			<point x="406" y="206"/>
			<point x="406" y="146" type="curve" smooth="yes"/>
			<point x="406" y="70"/>
			<point x="330" y="14"/>
		</contour>
		<contour>
			<point name="aboveLC" x="320" y="502" type="move"/>
		</contour>
		<contour>
			<point name="belowLC" x="220" y="-22" type="move"/>
		</contour>
	</outline>
</glyph>
<glyph name="dotlessjstroke" format="1">
	<unicode hex="025F"/>
	<advance width="230"/>
	<outline>
		<contour>
			<point x="4" y="238" type="line"/>
			<point x="222" y="238" type="line"/>
			<point x="227" y="266" type="line"/>
			<point x="105" y="266" type="line"/>
			<point x="9" y="262" type="line"/>
		</contour>
		<component base="dotlessj"/>
		<contour>
			<point name="aboveLC" x="160" y="502" type="move"/>
		</contour>
		<contour>
			<point name="belowLC" x="-40" y="-230" type="move"/>
		</contour>
	</outline>
</glyph>
<glyph name="ghook" format="1">
	<unicode hex="0260"/>
	<advance width="518"/>
	<outline>
		<contour>
			<point x="166" y="-234" type="curve" smooth="yes"/>
			<point x="274" y="-234"/>
			<point x="343" y="-162"/>
			<point x="366" y="-48" type="curve" smooth="yes"/>
			<point x="484" y="540" type="line" smooth="yes"/>
			<point x="496" y="602"/>
			<point x="520" y="644"/>
			<point x="566" y="644" type="curve" smooth="yes"/>
			<point x="578" y="644"/>
			<point x="592" y="640"/>
			<point x="602" y="636" type="curve"/>
			<point x="612" y="660" type="line"/>
			<point x="600" y="666"/>
			<point x="582" y="672"/>
			<point x="568" y="672" type="curve" smooth="yes"/>
			<point x="512" y="672"/>
			<point x="475" y="633"/>
			<point x="456" y="538" type="curve" smooth="yes"/>
			<point x="430" y="410" type="line"/>
			<point x="426" y="410" type="line"/>
			<point x="400" y="458"/>
			<point x="357" y="490"/>
			<point x="300" y="490" type="curve" smooth="yes"/>
			<point x="174" y="490"/>
			<point x="46" y="344"/>
			<point x="46" y="166" type="curve" smooth="yes"/>
			<point x="46" y="56"/>
			<point x="102" y="-4"/>
			<point x="184" y="-4" type="curve" smooth="yes"/>
			<point x="252" y="-4"/>
			<point x="310" y="32"/>
			<point x="366" y="86" type="curve"/>
			<point x="342" y="-30" type="line" smooth="yes"/>
			<point x="320" y="-136"/>
			<point x="266" y="-208"/>
			<point x="168" y="-208" type="curve" smooth="yes"/>
			<point x="108" y="-208"/>
			<point x="60" y="-180"/>
			<point x="24" y="-146" type="curve"/>
			<point x="6" y="-168" type="line"/>
			<point x="46" y="-202"/>
			<point x="96" y="-234"/>
		</contour>
		<contour>
			<point x="186" y="22" type="curve" smooth="yes"/>
			<point x="116" y="22"/>
			<point x="74" y="72"/>
			<point x="74" y="172" type="curve" smooth="yes"/>
			<point x="74" y="314"/>
			<point x="184" y="464"/>
			<point x="298" y="464" type="curve" smooth="yes"/>
			<point x="346" y="464"/>
			<point x="385" y="438"/>
			<point x="424" y="372" type="curve"/>
			<point x="372" y="124" type="line"/>
			<point x="314" y="62"/>
			<point x="242" y="22"/>
		</contour>
		<contour>
			<point name="aboveLC" x="300" y="502" type="move"/>
		</contour>
		<contour>
			<point name="belowLC" x="170" y="-222" type="move"/>
		</contour>
	</outline>
</glyph>
<glyph name="gscript" format="1">
	<unicode hex="0261"/>
	<advance width="518"/>
	<outline>
		<component base="g"/>
		<contour>
			<point name="aboveLC" x="310" y="502" type="move"/>
		</contour>
		<contour>
			<point name="belowLC" x="170" y="-222" type="move"/>
		</contour>
	</outline>
</glyph>
<glyph name="Gsmall" format="1">
	<unicode hex="0262"/>
	<advance width="484"/>
	<outline>
		<contour>
			<point x="224" y="-12" type="curve" smooth="yes"/>
			<point x="292" y="-12"/>
			<point x="348" y="14"/>
			<point x="386" y="46" type="curve"/>
			<point x="424" y="234" type="line"/>
			<point x="266" y="234" type="line"/>
			<point x="260" y="208" type="line"/>
			<point x="392" y="208" type="line"/>
			<point x="360" y="58" type="line"/>
			<point x="330" y="34"/>
			<point x="281" y="14"/>
			<point x="232" y="14" type="curve" smooth="yes"/>
			<point x="132" y="14"/>
			<point x="74" y="77"/>
			<point x="74" y="180" type="curve" smooth="yes"/>
			<point x="74" y="333"/>
			<point x="185" y="464"/>
			<point x="322" y="464" type="curve" smooth="yes"/>
			<point x="380" y="464"/>
			<point x="418" y="440"/>
			<point x="440" y="412" type="curve"/>
			<point x="460" y="432" type="line"/>
			<point x="436" y="460"/>
			<point x="396" y="490"/>
			<point x="324" y="490" type="curve" smooth="yes"/>
			<point x="163" y="490"/>
			<point x="46" y="351"/>
			<point x="46" y="174" type="curve" smooth="yes"/>
			<point x="46" y="57"/>
			<point x="114" y="-12"/>
		</contour>
		<contour>
			<point name="aboveLC" x="320" y="502" type="move"/>
		</contour>
		<contour>
			<point name="belowLC" x="210" y="-22" type="move"/>
		</contour>
	</outline>
</glyph>
<glyph name="ramshorn" format="1">
	<unicode hex="0264"/>
	<advance width="464"/>
	<outline>
		<contour>
			<point x="230" y="-12" type="curve" smooth="yes"/>
			<point x="348" y="-12"/>
			<point x="416" y="80"/>
			<point x="416" y="178" type="curve" smooth="yes"/>
			<point x="416" y="252"/>
			<point x="372" y="316"/>
			<point x="324" y="376" type="curve"/>
			<point x="380" y="426"/>
			<point x="430" y="464"/>
			<point x="476" y="464" type="curve" smooth="yes"/>
			<point x="496" y="464"/>
			<point x="511" y="461"/>
			<point x="524" y="450" type="curve"/>
			<point x="540" y="471" type="line"/>
			<point x="524" y="483"/>
			<point x="503" y="490"/>
			<point x="478" y="490" type="curve" smooth="yes"/>
			<point x="424" y="490"/>
			<point x="364" y="448"/>
			<point x="309" y="398" type="curve"/>
			<point x="272" y="448"/>
			<point x="229" y="490"/>
			<point x="174" y="490" type="curve" smooth="yes"/>
			<point x="151" y="490"/>
			<point x="128" y="483"/>
			<point x="108" y="471" type="curve"/>
			<point x="122" y="448" type="line"/>
			<point x="138" y="457"/>
			<point x="151" y="464"/>
			<point x="172" y="464" type="curve" smooth="yes"/>
			<point x="214" y="464"/>
			<point x="250" y="429"/>
			<point x="288" y="380" type="curve"/>
			<point x="186" y="300"/>
			<point x="104" y="202"/>
			<point x="104" y="102" type="curve" smooth="yes"/>
			<point x="104" y="34"/>
			<point x="150" y="-12"/>
		</contour>
		<contour>
			<point x="232" y="14" type="curve" smooth="yes"/>
			<point x="162" y="14"/>
			<point x="132" y="56"/>
			<point x="132" y="108" type="curve" smooth="yes"/>
			<point x="132" y="190"/>
			<point x="210" y="286"/>
			<point x="304" y="360" type="curve"/>
			<point x="346" y="306"/>
			<point x="388" y="248"/>
			<point x="388" y="172" type="curve" smooth="yes"/>
			<point x="388" y="90"/>
			<point x="328" y="14"/>
		</contour>
		<contour>
			<point name="aboveLC" x="330" y="502" type="move"/>
		</contour>
		<contour>
			<point name="belowLC" x="230" y="-22" type="move"/>
		</contour>
	</outline>
</glyph>
<glyph name="hhook" format="1">
	<unicode hex="0266"/>
	<advance width="498"/>
	<outline>
		<contour>
			<point x="44" y="0" type="line"/>
			<point x="72" y="0" type="line"/>
			<point x="144" y="358" type="line"/>
			<point x="220" y="432"/>
			<point x="280" y="464"/>
			<point x="324" y="464" type="curve" smooth="yes"/>
			<point x="388" y="464"/>
			<point x="414" y="432"/>
			<point x="414" y="370" type="curve" smooth="yes"/>
			<point x="414" y="350"/>
			<point x="412" y="336"/>
			<point x="406" y="306" type="curve" smooth="yes"/>
			<point x="344" y="0" type="line"/>
			<point x="372" y="0" type="line"/>
			<point x="434" y="310" type="line" smooth="yes"/>
			<point x="440" y="338"/>
			<point x="442" y="350"/>
			<point x="442" y="374" type="curve" smooth="yes"/>
			<point x="442" y="442"/>
			<point x="410" y="490"/>
			<point x="328" y="490" type="curve" smooth="yes"/>
			<point x="270" y="490"/>
			<point x="216" y="452"/>
			<point x="152" y="398" type="curve"/>
			<point x="148" y="398" type="line"/>
			<point x="160" y="444" type="line"/>
			<point x="190" y="594" type="line" smooth="yes"/>
			<point x="204" y="662"/>
			<point x="240" y="708"/>
			<point x="296" y="708" type="curve" smooth="yes"/>
			<point x="326" y="708"/>
			<point x="345" y="700"/>
			<point x="364" y="686" type="curve"/>
			<point x="378" y="708" type="line"/>
			<point x="357" y="724"/>
			<point x="335" y="734"/>
			<point x="298" y="734" type="curve" smooth="yes"/>
			<point x="236" y="734"/>
			<point x="182" y="694"/>
			<point x="162" y="594" type="curve" smooth="yes"/>
		</contour>
		<contour>
			<point name="aboveUC" x="310" y="730" type="move"/>
		</contour>
		<contour>
			<point name="belowLC" x="220" y="-22" type="move"/>
		</contour>
	</outline>
</glyph>
<glyph name="henghook" format="1">
	<unicode hex="0267"/>
	<advance width="498"/>
	<outline>
		<contour>
			<point x="353" y="-98" type="curve" smooth="yes"/>
			<point x="434" y="310" type="line" smooth="yes"/>
			<point x="440" y="338"/>
			<point x="442" y="350"/>
			<point x="442" y="374" type="curve" smooth="yes"/>
			<point x="442" y="442"/>
			<point x="410" y="490"/>
			<point x="328" y="490" type="curve" smooth="yes"/>
			<point x="270" y="490"/>
			<point x="216" y="452"/>
			<point x="152" y="398" type="curve"/>
			<point x="148" y="398" type="line"/>
			<point x="160" y="444" type="line"/>
			<point x="192" y="598" type="line"/>
			<point x="204" y="656"/>
			<point x="241" y="708"/>
			<point x="296" y="708" type="curve" smooth="yes"/>
			<point x="326" y="708"/>
			<point x="345" y="700"/>
			<point x="364" y="686" type="curve"/>
			<point x="378" y="708" type="line"/>
			<point x="357" y="724"/>
			<point x="335" y="734"/>
			<point x="298" y="734" type="curve" smooth="yes"/>
			<point x="237" y="734"/>
			<point x="183" y="693"/>
			<point x="164" y="598" type="curve"/>
			<point x="44" y="0" type="line"/>
			<point x="72" y="0" type="line"/>
			<point x="144" y="358" type="line"/>
			<point x="220" y="432"/>
			<point x="280" y="464"/>
			<point x="324" y="464" type="curve" smooth="yes"/>
			<point x="388" y="464"/>
			<point x="414" y="432"/>
			<point x="414" y="370" type="curve" smooth="yes"/>
			<point x="414" y="350"/>
			<point x="412" y="336"/>
			<point x="406" y="306" type="curve" smooth="yes"/>
			<point x="323" y="-104" type="line" smooth="yes"/>
			<point x="310" y="-166"/>
			<point x="283" y="-208"/>
			<point x="243" y="-208" type="curve" smooth="yes"/>
			<point x="217" y="-208"/>
			<point x="207" y="-202"/>
			<point x="195" y="-194" type="curve"/>
			<point x="183" y="-218" type="line"/>
			<point x="197" y="-226"/>
			<point x="213" y="-234"/>
			<point x="241" y="-234" type="curve" smooth="yes"/>
			<point x="301" y="-234"/>
			<point x="336" y="-184"/>
		</contour>
		<contour>
			<point name="aboveUC" x="310" y="730" type="move"/>
		</contour>
		<contour>
			<point name="belowLC" x="160" y="-230" type="move"/>
		</contour>
	</outline>
</glyph>
<glyph name="istroke" format="1">
	<unicode hex="0268"/>
	<advance width="230"/>
	<outline>
		<component base="istroke.d"/>
		<component base="dotaccentcmb" xOffset="64" yOffset="46"/>
		<contour>
			<point name="belowLC" x="115" y="-20" type="move"/>
		</contour>
		<contour>
			<point name="baseLC" x="115" y="0" type="move"/>
		</contour>
		<contour>
			<point name="aboveUC" x="115" y="500" type="move"/>
		</contour>
	</outline>
</glyph>
<glyph name="Ismall" format="1">
	<unicode hex="026A"/>
	<unicode hex="A7AE"/>
	<advance width="290"/>
	<outline>
		<contour>
			<point x="-8" y="0" type="line"/>
			<point x="196" y="0" type="line"/>
			<point x="202" y="26" type="line"/>
			<point x="112" y="26" type="line"/>
			<point x="198" y="452" type="line"/>
			<point x="288" y="452" type="line"/>
			<point x="294" y="478" type="line"/>
			<point x="88" y="478" type="line"/>
			<point x="82" y="452" type="line"/>
			<point x="170" y="452" type="line"/>
			<point x="84" y="26" type="line"/>
			<point x="-2" y="26" type="line"/>
		</contour>
		<contour>
			<point name="aboveLC" x="190" y="502" type="move"/>
		</contour>
		<contour>
			<point name="belowLC" x="90" y="-22" type="move"/>
		</contour>
		<contour>
			<point name="ogonekLC" x="90" y="0" type="move"/>
		</contour>
	</outline>
</glyph>
<glyph name="lmiddletilde" format="1">
	<unicode hex="026B"/>
	<advance width="314"/>
	<outline>
		<component base="l" xOffset="54"/>
		<component base="tildeoverlaycmb" xOffset="136" yOffset="140"/>
		<contour>
			<point name="aboveUC" x="260" y="730" type="move"/>
		</contour>
		<contour>
			<point name="belowLC" x="120" y="-22" type="move"/>
		</contour>
	</outline>
</glyph>
<glyph name="lbelt" format="1">
	<unicode hex="026C"/>
	<advance width="242"/>
	<outline>
		<contour>
			<point x="108" y="342" type="curve" smooth="yes"/>
			<point x="236" y="342" type="line"/>
			<point x="242" y="368" type="line"/>
			<point x="102" y="368" type="line" smooth="yes"/>
			<point x="54" y="368"/>
			<point x="28" y="384"/>
			<point x="28" y="412" type="curve" smooth="yes"/>
			<point x="28" y="436"/>
			<point x="40" y="452"/>
			<point x="66" y="452" type="curve" smooth="yes"/>
			<point x="108" y="452"/>
			<point x="120" y="415"/>
			<point x="120" y="378" type="curve"/>
			<point x="140" y="370" type="line"/>
			<point x="140" y="406"/>
			<point x="132" y="478"/>
			<point x="64" y="478" type="curve" smooth="yes"/>
			<point x="26" y="478"/>
			<point x="2" y="450"/>
			<point x="2" y="414" type="curve" smooth="yes"/>
			<point x="2" y="372"/>
			<point x="36" y="342"/>
		</contour>
		<component base="l"/>
		<contour>
			<point name="aboveUC" x="206" y="730" type="move"/>
		</contour>
		<contour>
			<point name="belowLC" x="60" y="-20" type="move"/>
		</contour>
	</outline>
</glyph>
<glyph name="lretroflex" format="1">
	<unicode hex="026D"/>
	<advance width="226"/>
	<outline>
		<contour>
			<point x="94" y="-180" type="curve" smooth="yes"/>
			<point x="109" y="-180"/>
			<point x="131" y="-174"/>
			<point x="142" y="-168" type="curve"/>
			<point x="136" y="-144" type="line"/>
			<point x="126" y="-148"/>
			<point x="111" y="-154"/>
			<point x="96" y="-154" type="curve" smooth="yes"/>
			<point x="66" y="-154"/>
			<point x="56" y="-138"/>
			<point x="56" y="-104" type="curve" smooth="yes"/>
			<point x="56" y="-84"/>
			<point x="58" y="-72"/>
			<point x="62" y="-50" type="curve" smooth="yes"/>
			<point x="216" y="722" type="line"/>
			<point x="188" y="722" type="line"/>
			<point x="34" y="-50" type="line" smooth="yes"/>
			<point x="30" y="-72"/>
			<point x="28" y="-90"/>
			<point x="28" y="-108" type="curve" smooth="yes"/>
			<point x="28" y="-160"/>
			<point x="54" y="-180"/>
		</contour>
		<contour>
			<point name="aboveUC" x="210" y="730" type="move"/>
		</contour>
		<contour>
			<point name="belowLC" x="70" y="-230" type="move"/>
		</contour>
	</outline>
</glyph>
<glyph name="lezh" format="1">
	<unicode hex="026E"/>
	<advance width="526"/>
	<outline>
		<contour>
			<point x="44" y="0" type="line"/>
			<point x="72" y="0" type="line"/>
			<point x="216" y="722" type="line"/>
			<point x="188" y="722" type="line"/>
		</contour>
		<contour>
			<point x="236" y="-234" type="curve" smooth="yes"/>
			<point x="348" y="-234"/>
			<point x="466" y="-126"/>
			<point x="466" y="24" type="curve" smooth="yes"/>
			<point x="466" y="122"/>
			<point x="388" y="192"/>
			<point x="260" y="160" type="curve"/>
			<point x="540" y="460" type="line"/>
			<point x="542" y="478" type="line"/>
			<point x="150" y="478" type="line"/>
			<point x="144" y="452" type="line"/>
			<point x="498" y="452" type="line"/>
			<point x="210" y="144" type="line"/>
			<point x="223" y="122" type="line"/>
			<point x="250" y="134"/>
			<point x="271" y="142"/>
			<point x="301" y="142" type="curve" smooth="yes"/>
			<point x="392" y="142"/>
			<point x="438" y="102"/>
			<point x="438" y="18" type="curve" smooth="yes"/>
			<point x="438" y="-110"/>
			<point x="332" y="-208"/>
			<point x="238" y="-208" type="curve" smooth="yes"/>
			<point x="156" y="-208"/>
			<point x="110" y="-172"/>
			<point x="80" y="-140" type="curve"/>
			<point x="60" y="-158" type="line"/>
			<point x="92" y="-194"/>
			<point x="142" y="-234"/>
		</contour>
		<contour>
			<point name="aboveUC" x="230" y="730" type="move"/>
		</contour>
		<contour>
			<point name="belowLC" x="230" y="-230" type="move"/>
		</contour>
	</outline>
</glyph>
<glyph name="mturned" format="1">
	<unicode hex="026F"/>
	<advance width="776"/>
	<outline>
		<component base="m" xScale="-1" yScale="-1" xOffset="778" yOffset="478"/>
		<contour>
			<point name="aboveLC" x="440" y="502" type="move"/>
		</contour>
		<contour>
			<point name="belowLC" x="350" y="-22" type="move"/>
		</contour>
	</outline>
</glyph>
<glyph name="mlonglegturned" format="2">
	<unicode hex="0270"/>
	<advance width="776"/>
	<outline>
		<contour>
			<point x="566" y="-222" type="line"/>
			<point x="594" y="-222" type="line"/>
			<point x="734" y="478" type="line"/>
			<point x="706" y="478" type="line"/>
			<point x="634" y="120" type="line"/>
			<point x="564" y="46"/>
			<point x="498" y="14"/>
			<point x="466" y="14" type="curve" smooth="yes"/>
			<point x="404" y="14"/>
			<point x="378" y="46"/>
			<point x="378" y="108" type="curve" smooth="yes"/>
			<point x="378" y="128"/>
			<point x="380" y="142"/>
			<point x="386" y="172" type="curve" smooth="yes"/>
			<point x="448" y="478" type="line"/>
			<point x="420" y="478" type="line"/>
			<point x="348" y="120" type="line"/>
			<point x="278" y="46"/>
			<point x="212" y="14"/>
			<point x="180" y="14" type="curve" smooth="yes"/>
			<point x="118" y="14"/>
			<point x="92" y="46"/>
			<point x="92" y="108" type="curve" smooth="yes"/>
			<point x="92" y="128"/>
			<point x="94" y="142"/>
			<point x="100" y="172" type="curve" smooth="yes"/>
			<point x="162" y="478" type="line"/>
			<point x="134" y="478" type="line"/>
			<point x="72" y="168" type="line" smooth="yes"/>
			<point x="66" y="140"/>
			<point x="64" y="128"/>
			<point x="64" y="104" type="curve" smooth="yes"/>
			<point x="64" y="36"/>
			<point x="96" y="-12"/>
			<point x="176" y="-12" type="curve" smooth="yes"/>
			<point x="222" y="-12"/>
			<point x="284" y="24"/>
			<point x="352" y="90" type="curve"/>
			<point x="354" y="36"/>
			<point x="382" y="-12"/>
			<point x="462" y="-12" type="curve" smooth="yes"/>
			<point x="508" y="-12"/>
			<point x="568" y="26"/>
			<point x="622" y="78" type="curve"/>
			<point x="626" y="78" type="line"/>
			<point x="602" y="-42" type="line"/>
		</contour>
	</outline>
	<anchor name="aboveLC" x="440" y="502"/>
	<anchor name="belowLC" x="350" y="-22"/>
</glyph>
<glyph name="nhookleft" format="1">
	<unicode hex="0272"/>
	<advance width="476"/>
	<outline>
		<contour>
			<point x="-47" y="-180" type="curve" smooth="yes"/>
			<point x="13" y="-180"/>
			<point x="48" y="-144"/>
			<point x="66" y="-54" type="curve" smooth="yes"/>
			<point x="147" y="366" type="line"/>
			<point x="222" y="430"/>
			<point x="272" y="462"/>
			<point x="332" y="462" type="curve" smooth="yes"/>
			<point x="414" y="462"/>
			<point x="438" y="410"/>
			<point x="417" y="304" type="curve" smooth="yes"/>
			<point x="358" y="0" type="line"/>
			<point x="388" y="0" type="line"/>
			<point x="448" y="308" type="line" smooth="yes"/>
			<point x="472" y="432"/>
			<point x="437" y="490"/>
			<point x="339" y="490" type="curve" smooth="yes"/>
			<point x="273" y="490"/>
			<point x="216" y="452"/>
			<point x="156" y="402" type="curve"/>
			<point x="154" y="402" type="line"/>
			<point x="169" y="478" type="line"/>
			<point x="139" y="478" type="line"/>
			<point x="36" y="-50" type="line" smooth="yes"/>
			<point x="25" y="-110"/>
			<point x="4" y="-152"/>
			<point x="-40" y="-152" type="curve" smooth="yes"/>
			<point x="-56" y="-152"/>
			<point x="-70" y="-146"/>
			<point x="-80" y="-142" type="curve"/>
			<point x="-93" y="-168" type="line"/>
			<point x="-84" y="-174"/>
			<point x="-63" y="-180"/>
		</contour>
		<component base="n"/>
		<contour>
			<point name="aboveLC" x="326" y="500" type="move"/>
		</contour>
		<contour>
			<point name="belowLC" x="213" y="-230" type="move"/>
		</contour>
	</outline>
</glyph>
<glyph name="nretroflex" format="1">
	<unicode hex="0273"/>
	<advance width="504"/>
	<outline>
		<contour>
			<point x="384" y="-234" type="curve" smooth="yes"/>
			<point x="401" y="-234"/>
			<point x="420" y="-228"/>
			<point x="432" y="-220" type="curve"/>
			<point x="424" y="-200" type="line"/>
			<point x="412" y="-206"/>
			<point x="400" y="-208"/>
			<point x="386" y="-208" type="curve" smooth="yes"/>
			<point x="356" y="-208"/>
			<point x="346" y="-192"/>
			<point x="346" y="-158" type="curve" smooth="yes"/>
			<point x="346" y="-138"/>
			<point x="348" y="-126"/>
			<point x="352" y="-104" type="curve" smooth="yes"/>
			<point x="434" y="310" type="line" smooth="yes"/>
			<point x="440" y="338"/>
			<point x="442" y="350"/>
			<point x="442" y="374" type="curve" smooth="yes"/>
			<point x="442" y="442"/>
			<point x="410" y="490"/>
			<point x="328" y="490" type="curve" smooth="yes"/>
			<point x="270" y="490"/>
			<point x="216" y="452"/>
			<point x="156" y="400" type="curve"/>
			<point x="152" y="400" type="line"/>
			<point x="164" y="478" type="line"/>
			<point x="140" y="478" type="line"/>
			<point x="44" y="0" type="line"/>
			<point x="72" y="0" type="line"/>
			<point x="144" y="358" type="line"/>
			<point x="220" y="432"/>
			<point x="280" y="464"/>
			<point x="324" y="464" type="curve" smooth="yes"/>
			<point x="388" y="464"/>
			<point x="414" y="432"/>
			<point x="414" y="370" type="curve" smooth="yes"/>
			<point x="414" y="350"/>
			<point x="412" y="336"/>
			<point x="406" y="306" type="curve" smooth="yes"/>
			<point x="324" y="-104" type="line" smooth="yes"/>
			<point x="320" y="-126"/>
			<point x="318" y="-144"/>
			<point x="318" y="-162" type="curve" smooth="yes"/>
			<point x="318" y="-214"/>
			<point x="344" y="-234"/>
		</contour>
		<contour>
			<point name="aboveLC" x="320" y="502" type="move"/>
		</contour>
		<contour>
			<point name="belowLC" x="160" y="-230" type="move"/>
		</contour>
	</outline>
</glyph>
<glyph name="Nsmall" format="1">
	<unicode hex="0274"/>
	<advance width="528"/>
	<outline>
		<contour>
			<point x="96" y="0" type="line"/>
			<point x="126" y="0" type="line"/>
			<point x="175" y="254" type="line" smooth="yes"/>
			<point x="186" y="307"/>
			<point x="196" y="368"/>
			<point x="206" y="432" type="curve"/>
			<point x="210" y="432" type="line"/>
			<point x="224" y="402"/>
			<point x="240" y="358"/>
			<point x="254" y="328" type="curve" smooth="yes"/>
			<point x="402" y="0" type="line"/>
			<point x="432" y="0" type="line"/>
			<point x="525" y="478" type="line"/>
			<point x="495" y="478" type="line"/>
			<point x="446" y="224" type="line" smooth="yes"/>
			<point x="435" y="171"/>
			<point x="425" y="110"/>
			<point x="415" y="46" type="curve"/>
			<point x="411" y="46" type="line"/>
			<point x="397" y="76"/>
			<point x="381" y="120"/>
			<point x="367" y="150" type="curve" smooth="yes"/>
			<point x="220" y="478" type="line"/>
			<point x="189" y="478" type="line"/>
		</contour>
		<contour>
			<point name="aboveLC" x="350" y="500" type="move"/>
		</contour>
		<contour>
			<point name="belowLC" x="264" y="-20" type="move"/>
		</contour>
	</outline>
</glyph>
<glyph name="OEsmall" format="1">
	<unicode hex="0276"/>
	<advance width="664"/>
	<outline>
		<contour>
			<point x="226" y="-12" type="curve" smooth="yes"/>
			<point x="246" y="-12"/>
			<point x="274" y="-10"/>
			<point x="310" y="0" type="curve"/>
			<point x="576" y="0" type="line"/>
			<point x="582" y="26" type="line"/>
			<point x="340" y="26" type="line"/>
			<point x="382" y="242" type="line"/>
			<point x="574" y="242" type="line"/>
			<point x="580" y="268" type="line"/>
			<point x="388" y="268" type="line"/>
			<point x="424" y="452" type="line"/>
			<point x="656" y="452" type="line"/>
			<point x="662" y="478" type="line"/>
			<point x="405" y="478" type="line"/>
			<point x="374" y="488"/>
			<point x="346" y="490"/>
			<point x="318" y="490" type="curve" smooth="yes"/>
			<point x="168" y="490"/>
			<point x="46" y="360"/>
			<point x="46" y="176" type="curve" smooth="yes"/>
			<point x="46" y="53"/>
			<point x="113" y="-12"/>
		</contour>
		<contour>
			<point x="228" y="14" type="curve" smooth="yes"/>
			<point x="134" y="14"/>
			<point x="74" y="72"/>
			<point x="74" y="182" type="curve" smooth="yes"/>
			<point x="74" y="346"/>
			<point x="186" y="464"/>
			<point x="316" y="464" type="curve" smooth="yes"/>
			<point x="342" y="464"/>
			<point x="371" y="460"/>
			<point x="396" y="452" type="curve"/>
			<point x="312" y="28" type="line"/>
			<point x="284" y="20"/>
			<point x="252" y="14"/>
		</contour>
		<contour>
			<point name="aboveLC" x="420" y="502" type="move"/>
		</contour>
		<contour>
			<point name="belowLC" x="320" y="-22" type="move"/>
		</contour>
	</outline>
</glyph>
<glyph name="oesmall" format="2">
	<unicode hex="0276"/>
	<advance width="664"/>
	<outline>
		<contour>
			<point x="226" y="-12" type="curve" smooth="yes"/>
			<point x="246" y="-12"/>
			<point x="274" y="-10"/>
			<point x="310" y="0" type="curve"/>
			<point x="576" y="0" type="line"/>
			<point x="582" y="26" type="line"/>
			<point x="340" y="26" type="line"/>
			<point x="382" y="242" type="line"/>
			<point x="574" y="242" type="line"/>
			<point x="580" y="268" type="line"/>
			<point x="388" y="268" type="line"/>
			<point x="424" y="452" type="line"/>
			<point x="656" y="452" type="line"/>
			<point x="662" y="478" type="line"/>
			<point x="405" y="478" type="line"/>
			<point x="374" y="488"/>
			<point x="346" y="490"/>
			<point x="318" y="490" type="curve" smooth="yes"/>
			<point x="168" y="490"/>
			<point x="46" y="360"/>
			<point x="46" y="176" type="curve" smooth="yes"/>
			<point x="46" y="53"/>
			<point x="113" y="-12"/>
		</contour>
		<contour>
			<point x="228" y="14" type="curve" smooth="yes"/>
			<point x="134" y="14"/>
			<point x="74" y="72"/>
			<point x="74" y="182" type="curve" smooth="yes"/>
			<point x="74" y="346"/>
			<point x="186" y="464"/>
			<point x="316" y="464" type="curve" smooth="yes"/>
			<point x="342" y="464"/>
			<point x="371" y="460"/>
			<point x="396" y="452" type="curve"/>
			<point x="312" y="28" type="line"/>
			<point x="284" y="20"/>
			<point x="252" y="14"/>
		</contour>
	</outline>
	<anchor name="aboveLC" x="420" y="502"/>
	<anchor name="belowLC" x="320" y="-22"/>
</glyph>
<glyph name="rhookturned" format="1">
	<unicode hex="027B"/>
	<advance width="308"/>
	<outline>
		<contour>
			<point x="188" y="-180" type="curve" smooth="yes"/>
			<point x="203" y="-180"/>
			<point x="225" y="-174"/>
			<point x="236" y="-168" type="curve"/>
			<point x="230" y="-144" type="line"/>
			<point x="220" y="-148"/>
			<point x="205" y="-154"/>
			<point x="190" y="-154" type="curve" smooth="yes"/>
			<point x="160" y="-154"/>
			<point x="150" y="-138"/>
			<point x="150" y="-104" type="curve" smooth="yes"/>
			<point x="150" y="-84"/>
			<point x="152" y="-72"/>
			<point x="156" y="-50" type="curve" smooth="yes"/>
			<point x="262" y="478" type="line"/>
			<point x="234" y="478" type="line"/>
			<point x="170" y="156" type="line"/>
			<point x="126" y="68"/>
			<point x="62" y="16"/>
			<point x="10" y="16" type="curve" smooth="yes"/>
			<point x="-8" y="16"/>
			<point x="-18" y="20"/>
			<point x="-26" y="24" type="curve"/>
			<point x="-38" y="-4" type="line"/>
			<point x="-22" y="-10"/>
			<point x="-8" y="-12"/>
			<point x="4" y="-12" type="curve" smooth="yes"/>
			<point x="66" y="-12"/>
			<point x="114" y="34"/>
			<point x="154" y="90" type="curve"/>
			<point x="158" y="90" type="line"/>
			<point x="128" y="-50" type="line" smooth="yes"/>
			<point x="124" y="-70"/>
			<point x="122" y="-90"/>
			<point x="122" y="-108" type="curve" smooth="yes"/>
			<point x="122" y="-160"/>
			<point x="148" y="-180"/>
		</contour>
		<contour>
			<point name="aboveLC" x="230" y="500" type="move"/>
		</contour>
		<contour>
			<point name="belowLC" x="-34" y="-20" type="move"/>
		</contour>
	</outline>
</glyph>
<glyph name="rtail" format="1">
	<unicode hex="027D"/>
	<advance width="308"/>
	<outline>
		<contour>
			<point x="84" y="-234" type="curve" smooth="yes"/>
			<point x="99" y="-234"/>
			<point x="121" y="-228"/>
			<point x="132" y="-222" type="curve"/>
			<point x="126" y="-198" type="line"/>
			<point x="116" y="-202"/>
			<point x="101" y="-208"/>
			<point x="86" y="-208" type="curve" smooth="yes"/>
			<point x="56" y="-208"/>
			<point x="46" y="-192"/>
			<point x="46" y="-158" type="curve" smooth="yes"/>
			<point x="46" y="-138"/>
			<point x="48" y="-126"/>
			<point x="52" y="-104" type="curve" smooth="yes"/>
			<point x="136" y="322" type="line"/>
			<point x="180" y="410"/>
			<point x="244" y="462"/>
			<point x="296" y="462" type="curve" smooth="yes"/>
			<point x="314" y="462"/>
			<point x="324" y="458"/>
			<point x="332" y="454" type="curve"/>
			<point x="344" y="482" type="line"/>
			<point x="328" y="488"/>
			<point x="314" y="490"/>
			<point x="302" y="490" type="curve" smooth="yes"/>
			<point x="240" y="490"/>
			<point x="192" y="444"/>
			<point x="152" y="388" type="curve"/>
			<point x="148" y="388" type="line"/>
			<point x="164" y="478" type="line"/>
			<point x="140" y="478" type="line"/>
			<point x="24" y="-104" type="line" smooth="yes"/>
			<point x="20" y="-126"/>
			<point x="18" y="-144"/>
			<point x="18" y="-162" type="curve" smooth="yes"/>
			<point x="18" y="-214"/>
			<point x="44" y="-234"/>
		</contour>
		<contour>
			<point name="aboveLC" x="290" y="502" type="move"/>
		</contour>
		<contour>
			<point name="belowLC" x="80" y="-218" type="move"/>
		</contour>
	</outline>
</glyph>
<glyph name="rfishhook" format="1">
	<unicode hex="027E"/>
	<advance width="308"/>
	<outline>
		<contour>
			<point x="44" y="0" type="line"/>
			<point x="72" y="0" type="line"/>
			<point x="134" y="314" type="line" smooth="yes"/>
			<point x="154" y="414"/>
			<point x="202" y="462"/>
			<point x="272" y="462" type="curve" smooth="yes"/>
			<point x="294" y="462"/>
			<point x="308" y="460"/>
			<point x="327" y="450" type="curve"/>
			<point x="340" y="476" type="line"/>
			<point x="320" y="486"/>
			<point x="304" y="490"/>
			<point x="279" y="490" type="curve" smooth="yes"/>
			<point x="196" y="490"/>
			<point x="132" y="440"/>
			<point x="108" y="320" type="curve" smooth="yes"/>
		</contour>
		<contour>
			<point name="aboveLC" x="290" y="500" type="move"/>
		</contour>
		<contour>
			<point name="belowLC" x="148" y="-20" type="move"/>
		</contour>
	</outline>
</glyph>
<glyph name="Rsmall" format="1">
	<unicode hex="0280"/>
	<advance width="466"/>
	<outline>
		<contour>
			<point x="96" y="0" type="line"/>
			<point x="126" y="0" type="line"/>
			<point x="168" y="216" type="line"/>
			<point x="292" y="216" type="line"/>
			<point x="380" y="216"/>
			<point x="459" y="256"/>
			<point x="477" y="350" type="curve" smooth="yes"/>
			<point x="495" y="444"/>
			<point x="433" y="478"/>
			<point x="335" y="478" type="curve" smooth="yes"/>
			<point x="189" y="478" type="line"/>
		</contour>
		<contour>
			<point x="173" y="244" type="line"/>
			<point x="213" y="450" type="line"/>
			<point x="319" y="450" type="line" smooth="yes"/>
			<point x="408" y="450"/>
			<point x="459" y="421"/>
			<point x="445" y="350" type="curve" smooth="yes"/>
			<point x="431" y="279"/>
			<point x="368" y="244"/>
			<point x="279" y="244" type="curve" smooth="yes"/>
		</contour>
		<contour>
			<point x="386" y="0" type="line"/>
			<point x="420" y="0" type="line"/>
			<point x="313" y="230" type="line"/>
			<point x="286" y="218" type="line"/>
		</contour>
		<contour>
			<point name="aboveLC" x="346" y="500" type="move"/>
		</contour>
		<contour>
			<point name="belowLC" x="266" y="-20" type="move"/>
		</contour>
	</outline>
</glyph>
<glyph name="rsmallinverted" format="1">
	<unicode hex="0281"/>
	<advance width="440"/>
	<outline>
		<contour>
			<point x="170" y="0" type="curve" smooth="yes"/>
			<point x="302" y="0" type="line"/>
			<point x="398" y="478" type="line"/>
			<point x="370" y="478" type="line"/>
			<point x="326" y="260" type="line"/>
			<point x="202" y="260" type="line" smooth="yes"/>
			<point x="92" y="260"/>
			<point x="20" y="194"/>
			<point x="20" y="106" type="curve" smooth="yes"/>
			<point x="20" y="30"/>
			<point x="80" y="0"/>
		</contour>
		<contour>
			<point x="176" y="26" type="line" smooth="yes"/>
			<point x="92" y="26"/>
			<point x="48" y="48"/>
			<point x="48" y="112" type="curve" smooth="yes"/>
			<point x="48" y="182"/>
			<point x="106" y="234"/>
			<point x="214" y="234" type="curve" smooth="yes"/>
			<point x="322" y="234" type="line"/>
			<point x="280" y="26" type="line"/>
		</contour>
		<contour>
			<point x="184" y="248" type="line"/>
			<point x="208" y="260" type="line"/>
			<point x="108" y="478" type="line"/>
			<point x="76" y="478" type="line"/>
		</contour>
		<contour>
			<point name="aboveLC" x="240" y="502" type="move"/>
		</contour>
		<contour>
			<point name="belowLC" x="180" y="-22" type="move"/>
		</contour>
	</outline>
</glyph>
<glyph name="shook" format="1">
	<unicode hex="0282"/>
	<advance width="384"/>
	<outline>
		<contour>
			<point x="24" y="-234" type="curve" smooth="yes"/>
			<point x="39" y="-234"/>
			<point x="61" y="-228"/>
			<point x="72" y="-222" type="curve"/>
			<point x="66" y="-198" type="line"/>
			<point x="56" y="-202"/>
			<point x="41" y="-208"/>
			<point x="26" y="-208" type="curve" smooth="yes"/>
			<point x="-4" y="-208"/>
			<point x="-14" y="-192"/>
			<point x="-14" y="-158" type="curve" smooth="yes"/>
			<point x="-14" y="-130"/>
			<point x="-12" y="-102"/>
			<point x="24" y="60" type="curve"/>
			<point x="0" y="76" type="line"/>
			<point x="-38" y="-94"/>
			<point x="-42" y="-138"/>
			<point x="-42" y="-162" type="curve" smooth="yes"/>
			<point x="-42" y="-214"/>
			<point x="-16" y="-234"/>
		</contour>
		<component base="s"/>
		<contour>
			<point name="aboveLC" x="250" y="502" type="move"/>
		</contour>
		<contour>
			<point name="belowLC" x="140" y="-222" type="move"/>
		</contour>
	</outline>
</glyph>
<glyph name="esh" format="1">
	<unicode hex="0283"/>
	<advance width="214"/>
	<outline>
		<contour>
			<point x="-60" y="-234" type="curve" smooth="yes"/>
			<point x="0" y="-234"/>
			<point x="35" y="-184"/>
			<point x="52" y="-98" type="curve" smooth="yes"/>
			<point x="192" y="598" type="line" smooth="yes"/>
			<point x="206" y="668"/>
			<point x="228" y="710"/>
			<point x="290" y="710" type="curve" smooth="yes"/>
			<point x="306" y="710"/>
			<point x="320" y="706"/>
			<point x="334" y="700" type="curve"/>
			<point x="344" y="724" type="line"/>
			<point x="329" y="731"/>
			<point x="312" y="736"/>
			<point x="292" y="736" type="curve" smooth="yes"/>
			<point x="222" y="736"/>
			<point x="184" y="696"/>
			<point x="166" y="606" type="curve" smooth="yes"/>
			<point x="22" y="-104" type="line" smooth="yes"/>
			<point x="9" y="-166"/>
			<point x="-18" y="-208"/>
			<point x="-58" y="-208" type="curve" smooth="yes"/>
			<point x="-84" y="-208"/>
			<point x="-94" y="-204"/>
			<point x="-106" y="-196" type="curve"/>
			<point x="-118" y="-218" type="line"/>
			<point x="-104" y="-226"/>
			<point x="-88" y="-234"/>
		</contour>
		<contour>
			<point name="aboveUC" x="280" y="730" type="move"/>
		</contour>
		<contour>
			<point name="belowLC" x="-40" y="-222" type="move"/>
		</contour>
	</outline>
</glyph>
<glyph name="dotlessjstrokehook" format="1">
	<unicode hex="0284"/>
	<advance width="230"/>
	<outline>
		<contour>
			<point x="50" y="238" type="line"/>
			<point x="268" y="238" type="line"/>
			<point x="274" y="266" type="line"/>
			<point x="152" y="266" type="line"/>
			<point x="55" y="262" type="line"/>
		</contour>
		<component base="esh"/>
		<contour>
			<point name="aboveUC" x="111" y="730" type="move"/>
		</contour>
		<contour>
			<point name="belowLC" x="111" y="-230" type="move"/>
		</contour>
	</outline>
</glyph>
<glyph name="tretroflex" format="1">
	<unicode hex="0288"/>
	<advance width="290"/>
	<outline>
		<contour>
			<point x="132" y="-194" type="curve" smooth="yes"/>
			<point x="160" y="-194"/>
			<point x="186" y="-182"/>
			<point x="204" y="-172" type="curve"/>
			<point x="194" y="-150" type="line"/>
			<point x="178" y="-158"/>
			<point x="158" y="-168"/>
			<point x="134" y="-168" type="curve" smooth="yes"/>
			<point x="80" y="-168"/>
			<point x="64" y="-144"/>
			<point x="64" y="-98" type="curve" smooth="yes"/>
			<point x="64" y="-84"/>
			<point x="66" y="-72"/>
			<point x="68" y="-60" type="curve" smooth="yes"/>
			<point x="174" y="452" type="line"/>
			<point x="306" y="452" type="line"/>
			<point x="312" y="478" type="line"/>
			<point x="180" y="478" type="line"/>
			<point x="208" y="616" type="line"/>
			<point x="184" y="616" type="line"/>
			<point x="152" y="478" type="line"/>
			<point x="74" y="474" type="line"/>
			<point x="70" y="452" type="line"/>
			<point x="146" y="452" type="line"/>
			<point x="40" y="-58" type="line"/>
			<point x="38" y="-74"/>
			<point x="36" y="-86"/>
			<point x="36" y="-104" type="curve" smooth="yes"/>
			<point x="36" y="-152"/>
			<point x="60" y="-194"/>
		</contour>
		<contour>
			<point name="belowLC" x="110" y="-230" type="move"/>
		</contour>
		<contour>
			<point name="aboveLC" x="194" y="634" type="move"/>
		</contour>
	</outline>
</glyph>
<glyph name="ubar" format="1">
	<unicode hex="0289"/>
	<advance width="504"/>
	<outline>
		<contour>
			<point x="0" y="258" type="line"/>
			<point x="506" y="258" type="line"/>
			<point x="512" y="284" type="line"/>
			<point x="78" y="284" type="line"/>
			<point x="4" y="280" type="line"/>
		</contour>
		<component base="u"/>
		<contour>
			<point name="aboveLC" x="308" y="500" type="move"/>
		</contour>
		<contour>
			<point name="baseLC" x="190" y="0" type="move"/>
		</contour>
		<contour>
			<point name="belowLC" x="240" y="-20" type="move"/>
		</contour>
	</outline>
</glyph>
<glyph name="vhook" format="1">
	<unicode hex="028B"/>
	<advance width="512"/>
	<outline>
		<contour>
			<point x="198" y="-12" type="curve" smooth="yes"/>
			<point x="332" y="-12"/>
			<point x="470" y="162"/>
			<point x="470" y="374" type="curve" smooth="yes"/>
			<point x="470" y="458"/>
			<point x="434" y="490"/>
			<point x="376" y="490" type="curve" smooth="yes"/>
			<point x="358" y="490"/>
			<point x="342" y="488"/>
			<point x="325" y="482" type="curve"/>
			<point x="329" y="456" type="line"/>
			<point x="344" y="462"/>
			<point x="355" y="464"/>
			<point x="367" y="464" type="curve" smooth="yes"/>
			<point x="414" y="464"/>
			<point x="442" y="442"/>
			<point x="442" y="368" type="curve" smooth="yes"/>
			<point x="442" y="180"/>
			<point x="314" y="14"/>
			<point x="200" y="14" type="curve" smooth="yes"/>
			<point x="136" y="14"/>
			<point x="102" y="40"/>
			<point x="102" y="132" type="curve" smooth="yes"/>
			<point x="102" y="154"/>
			<point x="106" y="174"/>
			<point x="112" y="202" type="curve" smooth="yes"/>
			<point x="168" y="478" type="line"/>
			<point x="140" y="478" type="line"/>
			<point x="84" y="202" type="line" smooth="yes"/>
			<point x="78" y="174"/>
			<point x="74" y="146"/>
			<point x="74" y="126" type="curve" smooth="yes"/>
			<point x="74" y="27"/>
			<point x="122" y="-12"/>
		</contour>
		<contour>
			<point name="aboveLC" x="310" y="502" type="move"/>
		</contour>
		<contour>
			<point name="belowLC" x="200" y="-22" type="move"/>
		</contour>
	</outline>
</glyph>
<glyph name="vturned" format="1">
	<unicode hex="028C"/>
	<advance width="408"/>
	<outline>
		<component base="v" xScale="-1" yScale="-1" xOffset="414" yOffset="478"/>
		<contour>
			<point name="aboveLC" x="250" y="502" type="move"/>
		</contour>
		<contour>
			<point name="belowLC" x="180" y="-22" type="move"/>
		</contour>
	</outline>
</glyph>
<glyph name="yturned" format="1">
	<unicode hex="028E"/>
	<advance width="408"/>
	<outline>
		<contour>
			<point x="-24" y="0" type="line"/>
			<point x="6" y="0" type="line"/>
			<point x="176" y="312" type="line" smooth="yes"/>
			<point x="202" y="360"/>
			<point x="228" y="408"/>
			<point x="252" y="454" type="curve"/>
			<point x="256" y="454" type="line"/>
			<point x="262" y="410"/>
			<point x="270" y="358"/>
			<point x="278" y="312" type="curve" smooth="yes"/>
			<point x="328" y="0" type="line"/>
			<point x="356" y="0" type="line"/>
			<point x="276" y="488" type="line"/>
			<point x="316" y="566" type="line" smooth="yes"/>
			<point x="358" y="648"/>
			<point x="394" y="708"/>
			<point x="460" y="708" type="curve" smooth="yes"/>
			<point x="472" y="708"/>
			<point x="484" y="704"/>
			<point x="494" y="700" type="curve"/>
			<point x="506" y="724" type="line"/>
			<point x="494" y="730"/>
			<point x="478" y="734"/>
			<point x="462" y="734" type="curve" smooth="yes"/>
			<point x="380" y="734"/>
			<point x="336" y="662"/>
			<point x="294" y="578" type="curve"/>
		</contour>
		<contour>
			<point name="belowLC" x="180" y="-20" type="move"/>
		</contour>
		<contour>
			<point name="aboveUC" x="390" y="730" type="move"/>
		</contour>
	</outline>
</glyph>
<glyph name="Ysmall" format="1">
	<unicode hex="028F"/>
	<advance width="374"/>
	<outline>
		<contour>
			<point x="172" y="0" type="line"/>
			<point x="202" y="0" type="line"/>
			<point x="236" y="176" type="line"/>
			<point x="463" y="478" type="line"/>
			<point x="429" y="478" type="line"/>
			<point x="311" y="316" type="line"/>
			<point x="285" y="279"/>
			<point x="259" y="245"/>
			<point x="230" y="208" type="curve"/>
			<point x="226" y="208" type="line"/>
			<point x="212" y="245"/>
			<point x="198" y="279"/>
			<point x="185" y="316" type="curve"/>
			<point x="131" y="478" type="line"/>
			<point x="97" y="478" type="line"/>
			<point x="206" y="176" type="line"/>
		</contour>
		<contour>
			<point name="aboveLC" x="286" y="500" type="move"/>
		</contour>
		<contour>
			<point name="belowLC" x="182" y="-20" type="move"/>
		</contour>
	</outline>
</glyph>
<glyph name="zretroflex" format="1">
	<unicode hex="0290"/>
	<advance width="396"/>
	<outline>
		<contour>
			<point x="330" y="-234" type="curve" smooth="yes"/>
			<point x="346" y="-234"/>
			<point x="366" y="-228"/>
			<point x="378" y="-220" type="curve"/>
			<point x="370" y="-200" type="line"/>
			<point x="358" y="-206"/>
			<point x="346" y="-208"/>
			<point x="332" y="-208" type="curve" smooth="yes"/>
			<point x="302" y="-208"/>
			<point x="292" y="-192"/>
			<point x="292" y="-158" type="curve" smooth="yes"/>
			<point x="292" y="-132"/>
			<point x="294" y="-110"/>
			<point x="324" y="26" type="curve"/>
			<point x="32" y="26" type="line"/>
			<point x="404" y="460" type="line"/>
			<point x="406" y="478" type="line"/>
			<point x="116" y="478" type="line"/>
			<point x="110" y="452" type="line"/>
			<point x="364" y="452" type="line"/>
			<point x="-8" y="18" type="line"/>
			<point x="-10" y="0" type="line"/>
			<point x="292" y="0" type="line"/>
			<point x="268" y="-105"/>
			<point x="264" y="-134"/>
			<point x="264" y="-162" type="curve" smooth="yes"/>
			<point x="264" y="-214"/>
			<point x="290" y="-234"/>
		</contour>
		<contour>
			<point name="aboveLC" x="260" y="502" type="move"/>
		</contour>
		<contour>
			<point name="belowLC" x="120" y="-122" type="move"/>
		</contour>
	</outline>
</glyph>
<glyph name="zcurl" format="1">
	<unicode hex="0291"/>
	<advance width="406"/>
	<outline>
		<contour>
			<point x="146" y="-80" type="line"/>
			<point x="208" y="79"/>
			<point x="280" y="152"/>
			<point x="334" y="152" type="curve" smooth="yes"/>
			<point x="358" y="152"/>
			<point x="372" y="138"/>
			<point x="372" y="114" type="curve" smooth="yes"/>
			<point x="372" y="80"/>
			<point x="334" y="26"/>
			<point x="248" y="26" type="curve" smooth="yes"/>
			<point x="180" y="26"/>
			<point x="106" y="26"/>
			<point x="32" y="26" type="curve"/>
			<point x="404" y="460" type="line"/>
			<point x="406" y="478" type="line"/>
			<point x="116" y="478" type="line"/>
			<point x="110" y="452" type="line"/>
			<point x="364" y="452" type="line"/>
			<point x="-8" y="18" type="line"/>
			<point x="-10" y="0" type="line"/>
			<point x="240" y="0" type="line" smooth="yes"/>
			<point x="354" y="0"/>
			<point x="400" y="70"/>
			<point x="400" y="120" type="curve" smooth="yes"/>
			<point x="400" y="158"/>
			<point x="370" y="178"/>
			<point x="336" y="178" type="curve" smooth="yes"/>
			<point x="265" y="178"/>
			<point x="189" y="96"/>
			<point x="118" y="-74" type="curve"/>
		</contour>
		<contour>
			<point name="aboveLC" x="260" y="500" type="move"/>
		</contour>
	</outline>
</glyph>
<glyph name="ezh" format="1">
	<unicode hex="0292"/>
	<advance width="396"/>
	<outline>
		<contour>
			<point x="106" y="-234" type="curve" smooth="yes"/>
			<point x="218" y="-234"/>
			<point x="336" y="-126"/>
			<point x="336" y="24" type="curve" smooth="yes"/>
			<point x="336" y="122"/>
			<point x="258" y="192"/>
			<point x="130" y="160" type="curve"/>
			<point x="410" y="460" type="line"/>
			<point x="412" y="478" type="line"/>
			<point x="100" y="478" type="line"/>
			<point x="94" y="452" type="line"/>
			<point x="368" y="452" type="line"/>
			<point x="80" y="144" type="line"/>
			<point x="93" y="122" type="line"/>
			<point x="120" y="134"/>
			<point x="141" y="142"/>
			<point x="171" y="142" type="curve" smooth="yes"/>
			<point x="262" y="142"/>
			<point x="308" y="102"/>
			<point x="308" y="18" type="curve" smooth="yes"/>
			<point x="308" y="-110"/>
			<point x="202" y="-208"/>
			<point x="108" y="-208" type="curve" smooth="yes"/>
			<point x="26" y="-208"/>
			<point x="-20" y="-172"/>
			<point x="-50" y="-140" type="curve"/>
			<point x="-70" y="-158" type="line"/>
			<point x="-38" y="-194"/>
			<point x="12" y="-234"/>
		</contour>
		<contour>
			<point name="aboveLC" x="250" y="502" type="move"/>
		</contour>
		<contour>
			<point name="belowLC" x="110" y="-230" type="move"/>
		</contour>
	</outline>
</glyph>
<glyph name="glottalstop" format="1">
	<unicode hex="0294"/>
	<unicode hex="0242"/>
	<advance width="392"/>
	<outline>
		<contour>
			<point x="110" y="0" type="line"/>
			<point x="138" y="0" type="line"/>
			<point x="200" y="312" type="line"/>
			<point x="358" y="386"/>
			<point x="430" y="492"/>
			<point x="430" y="586" type="curve" smooth="yes"/>
			<point x="430" y="678"/>
			<point x="368" y="734"/>
			<point x="276" y="734" type="curve" smooth="yes"/>
			<point x="190" y="734"/>
			<point x="122" y="688"/>
			<point x="78" y="648" type="curve"/>
			<point x="94" y="628" type="line"/>
			<point x="137" y="670"/>
			<point x="200" y="708"/>
			<point x="274" y="708" type="curve" smooth="yes"/>
			<point x="358" y="708"/>
			<point x="402" y="658"/>
			<point x="402" y="580" type="curve" smooth="yes"/>
			<point x="402" y="502"/>
			<point x="338" y="400"/>
			<point x="176" y="328" type="curve"/>
		</contour>
		<contour>
			<point name="aboveUC" x="280" y="730" type="move"/>
		</contour>
		<contour>
			<point name="belowLC" x="120" y="-22" type="move"/>
		</contour>
	</outline>
</glyph>
<glyph name="clickbilabial" format="1">
	<unicode hex="0298"/>
	<advance width="460"/>
	<outline>
		<contour>
			<point x="186" y="-12" type="curve" smooth="yes"/>
			<point x="346" y="-12"/>
			<point x="452" y="282"/>
			<point x="452" y="542" type="curve" smooth="yes"/>
			<point x="452" y="689"/>
			<point x="386" y="734"/>
			<point x="316" y="734" type="curve" smooth="yes"/>
			<point x="156" y="734"/>
			<point x="50" y="440"/>
			<point x="50" y="180" type="curve" smooth="yes"/>
			<point x="50" y="33"/>
			<point x="116" y="-12"/>
		</contour>
		<contour>
			<point x="188" y="14" type="curve" smooth="yes"/>
			<point x="126" y="14"/>
			<point x="78" y="52"/>
			<point x="78" y="184" type="curve" smooth="yes"/>
			<point x="78" y="418"/>
			<point x="176" y="708"/>
			<point x="314" y="708" type="curve" smooth="yes"/>
			<point x="376" y="708"/>
			<point x="424" y="670"/>
			<point x="424" y="538" type="curve" smooth="yes"/>
			<point x="424" y="304"/>
			<point x="326" y="14"/>
		</contour>
		<contour>
			<point x="246" y="330" type="curve" smooth="yes"/>
			<point x="264" y="330"/>
			<point x="282" y="346"/>
			<point x="282" y="368" type="curve" smooth="yes"/>
			<point x="282" y="386"/>
			<point x="270" y="398"/>
			<point x="254" y="398" type="curve" smooth="yes"/>
			<point x="236" y="398"/>
			<point x="218" y="382"/>
			<point x="218" y="358" type="curve" smooth="yes"/>
			<point x="218" y="342"/>
			<point x="230" y="330"/>
		</contour>
		<contour>
			<point name="aboveUC" x="330" y="730" type="move"/>
		</contour>
		<contour>
			<point name="belowLC" x="190" y="-22" type="move"/>
		</contour>
	</outline>
</glyph>
<glyph name="Bsmall" format="1">
	<unicode hex="0299"/>
	<advance width="440"/>
	<outline>
		<contour>
			<point x="44" y="0" type="line"/>
			<point x="216" y="0" type="line" smooth="yes"/>
			<point x="328" y="0"/>
			<point x="405" y="44"/>
			<point x="422" y="136" type="curve" smooth="yes"/>
			<point x="424" y="145"/>
			<point x="425" y="154"/>
			<point x="425" y="162" type="curve" smooth="yes"/>
			<point x="425" y="216"/>
			<point x="385" y="243"/>
			<point x="344" y="253" type="curve"/>
			<point x="345" y="256" type="line"/>
			<point x="390" y="270"/>
			<point x="432" y="298"/>
			<point x="444" y="361" type="curve" smooth="yes"/>
			<point x="446" y="370"/>
			<point x="447" y="379"/>
			<point x="447" y="388" type="curve" smooth="yes"/>
			<point x="447" y="449"/>
			<point x="395" y="478"/>
			<point x="305" y="478" type="curve" smooth="yes"/>
			<point x="140" y="478" type="line"/>
		</contour>
		<contour>
			<point x="126" y="266" type="line"/>
			<point x="162" y="452" type="line"/>
			<point x="290" y="452" type="line" smooth="yes"/>
			<point x="376" y="452"/>
			<point x="414" y="425"/>
			<point x="414" y="378" type="curve" smooth="yes"/>
			<point x="414" y="372"/>
			<point x="413" y="366"/>
			<point x="412" y="359" type="curve" smooth="yes"/>
			<point x="401" y="302"/>
			<point x="353" y="266"/>
			<point x="245" y="266" type="curve" smooth="yes"/>
		</contour>
		<contour>
			<point x="78" y="26" type="line"/>
			<point x="120" y="240" type="line"/>
			<point x="244" y="240" type="line" smooth="yes"/>
			<point x="341" y="240"/>
			<point x="393" y="209"/>
			<point x="393" y="155" type="curve" smooth="yes"/>
			<point x="393" y="149"/>
			<point x="392" y="143"/>
			<point x="391" y="137" type="curve" smooth="yes"/>
			<point x="377" y="64"/>
			<point x="315" y="26"/>
			<point x="211" y="26" type="curve" smooth="yes"/>
		</contour>
		<contour>
			<point name="aboveLC" x="194" y="500" type="move"/>
		</contour>
		<contour>
			<point name="belowLC" x="194" y="-20" type="move"/>
		</contour>
	</outline>
</glyph>
<glyph name="Hsmall" format="1">
	<unicode hex="029C"/>
	<advance width="514"/>
	<outline>
		<component base="en"/>
		<contour>
			<point name="aboveLC" x="257" y="500" type="move"/>
		</contour>
		<contour>
			<point name="belowLC" x="257" y="-20" type="move"/>
		</contour>
	</outline>
</glyph>
<glyph name="hsmall" format="1">
	<unicode hex="029C"/>
	<advance width="514"/>
	<outline>
		<contour>
			<point x="44" y="0" type="line"/>
			<point x="72" y="0" type="line"/>
			<point x="120" y="242" type="line"/>
			<point x="392" y="242" type="line"/>
			<point x="344" y="0" type="line"/>
			<point x="372" y="0" type="line"/>
			<point x="468" y="478" type="line"/>
			<point x="440" y="478" type="line"/>
			<point x="398" y="268" type="line"/>
			<point x="126" y="268" type="line"/>
			<point x="168" y="478" type="line"/>
			<point x="140" y="478" type="line"/>
		</contour>
		<contour>
			<point name="aboveLC" x="310" y="502" type="move"/>
		</contour>
		<contour>
			<point name="belowLC" x="210" y="-22" type="move"/>
		</contour>
	</outline>
</glyph>
<glyph name="jcrossedtail" format="1">
	<unicode hex="029D"/>
	<advance width="222"/>
	<outline>
		<component base="jcrossedtail.d"/>
		<component base="dotaccentcmb" xOffset="106"/>
		<contour>
			<point name="belowLC" x="-40" y="-222" type="move"/>
		</contour>
		<contour>
			<point name="aboveLC" x="111" y="502" type="move"/>
		</contour>
	</outline>
</glyph>
<glyph name="kturned" format="1">
	<unicode hex="029E"/>
	<advance width="436"/>
	<outline>
		<contour>
			<point x="276" y="-222" type="line"/>
			<point x="304" y="-222" type="line"/>
			<point x="444" y="478" type="line"/>
			<point x="416" y="478" type="line"/>
			<point x="388" y="342" type="line"/>
			<point x="20" y="0" type="line"/>
			<point x="58" y="0" type="line"/>
			<point x="378" y="302" type="line"/>
			<point x="380" y="302" type="line"/>
		</contour>
		<contour>
			<point x="252" y="214" type="line"/>
			<point x="274" y="234" type="line"/>
			<point x="172" y="478" type="line"/>
			<point x="144" y="478" type="line"/>
		</contour>
	</outline>
</glyph>
<glyph name="Lsmall" format="1">
	<unicode hex="029F"/>
	<advance width="394"/>
	<outline>
		<contour>
			<point x="44" y="0" type="line"/>
			<point x="316" y="0" type="line"/>
			<point x="322" y="26" type="line"/>
			<point x="78" y="26" type="line"/>
			<point x="168" y="478" type="line"/>
			<point x="140" y="478" type="line"/>
		</contour>
		<contour>
			<point name="aboveLC" x="150" y="500" type="move"/>
		</contour>
		<contour>
			<point name="belowLC" x="180" y="-20" type="move"/>
		</contour>
	</outline>
</glyph>
<glyph name="glottalstopstroke" format="1">
	<unicode hex="02A1"/>
	<advance width="412"/>
	<outline>
		<contour>
			<point x="170" y="0" type="line"/>
			<point x="200" y="0" type="line"/>
			<point x="259" y="302" type="line"/>
			<point x="451" y="302" type="line"/>
			<point x="456" y="330" type="line"/>
			<point x="300" y="330" type="line"/>
			<point x="414" y="395"/>
			<point x="496" y="503"/>
			<point x="496" y="596" type="curve" smooth="yes"/>
			<point x="496" y="686"/>
			<point x="433" y="734"/>
			<point x="341" y="734" type="curve" smooth="yes"/>
			<point x="249" y="734"/>
			<point x="186" y="688"/>
			<point x="142" y="648" type="curve"/>
			<point x="158" y="626" type="line"/>
			<point x="199" y="666"/>
			<point x="255" y="706"/>
			<point x="337" y="706" type="curve" smooth="yes"/>
			<point x="421" y="706"/>
			<point x="464" y="661"/>
			<point x="464" y="591" type="curve" smooth="yes"/>
			<point x="464" y="511"/>
			<point x="390" y="403"/>
			<point x="244" y="330" type="curve"/>
			<point x="144" y="330" type="line"/>
			<point x="67" y="326" type="line"/>
			<point x="63" y="302" type="line"/>
			<point x="229" y="302" type="line"/>
		</contour>
		<contour>
			<point name="aboveUC" x="206" y="730" type="move"/>
		</contour>
		<contour>
			<point name="belowLC" x="206" y="-20" type="move"/>
		</contour>
	</outline>
</glyph>
<glyph name="glottalstopstrokereversed" format="1">
	<unicode hex="02A2"/>
	<advance width="412"/>
	<outline>
		<contour>
			<point x="212" y="0" type="line"/>
			<point x="242" y="0" type="line"/>
			<point x="301" y="302" type="line"/>
			<point x="467" y="302" type="line"/>
			<point x="471" y="326" type="line"/>
			<point x="396" y="330" type="line"/>
			<point x="296" y="330" type="line"/>
			<point x="210" y="383"/>
			<point x="164" y="444"/>
			<point x="164" y="517" type="curve" smooth="yes"/>
			<point x="164" y="597"/>
			<point x="237" y="706"/>
			<point x="359" y="706" type="curve" smooth="yes"/>
			<point x="436" y="706"/>
			<point x="473" y="666"/>
			<point x="498" y="626" type="curve"/>
			<point x="522" y="648" type="line"/>
			<point x="496" y="688"/>
			<point x="454" y="734"/>
			<point x="367" y="734" type="curve" smooth="yes"/>
			<point x="235" y="734"/>
			<point x="131" y="600"/>
			<point x="131" y="513" type="curve" smooth="yes"/>
			<point x="131" y="438"/>
			<point x="176" y="377"/>
			<point x="240" y="330" type="curve"/>
			<point x="84" y="330" type="line"/>
			<point x="79" y="302" type="line"/>
			<point x="271" y="302" type="line"/>
		</contour>
		<contour>
			<point name="aboveUC" x="206" y="730" type="move"/>
		</contour>
		<contour>
			<point name="belowLC" x="206" y="-20" type="move"/>
		</contour>
	</outline>
</glyph>
<glyph name="ts" format="1">
	<unicode hex="02A6"/>
	<advance width="600"/>
	<outline>
		<contour>
			<point x="274" y="-12" type="curve" smooth="yes"/>
			<point x="468" y="-12"/>
			<point x="520" y="42"/>
			<point x="520" y="128" type="curve" smooth="yes"/>
			<point x="520" y="246"/>
			<point x="308" y="272"/>
			<point x="308" y="374" type="curve" smooth="yes"/>
			<point x="308" y="423"/>
			<point x="350" y="464"/>
			<point x="406" y="464" type="curve" smooth="yes"/>
			<point x="458" y="464"/>
			<point x="496" y="444"/>
			<point x="524" y="414" type="curve"/>
			<point x="542" y="430" type="line"/>
			<point x="506" y="470"/>
			<point x="462" y="490"/>
			<point x="408" y="490" type="curve" smooth="yes"/>
			<point x="339" y="490"/>
			<point x="280" y="442"/>
			<point x="280" y="368" type="curve" smooth="yes"/>
			<point x="280" y="252"/>
			<point x="492" y="226"/>
			<point x="492" y="122" type="curve" smooth="yes"/>
			<point x="492" y="60"/>
			<point x="448" y="14"/>
			<point x="276" y="14" type="curve" smooth="yes"/>
			<point x="146" y="14"/>
			<point x="110" y="52"/>
			<point x="110" y="124" type="curve" smooth="yes"/>
			<point x="110" y="138"/>
			<point x="112" y="150"/>
			<point x="114" y="162" type="curve" smooth="yes"/>
			<point x="174" y="452" type="line"/>
			<point x="356" y="452" type="line"/>
			<point x="362" y="478" type="line"/>
			<point x="180" y="478" type="line"/>
			<point x="212" y="636" type="line"/>
			<point x="188" y="636" type="line"/>
			<point x="152" y="478" type="line"/>
			<point x="74" y="474" type="line"/>
			<point x="70" y="452" type="line"/>
			<point x="146" y="452" type="line"/>
			<point x="86" y="164" type="line" smooth="yes"/>
			<point x="83" y="148"/>
			<point x="82" y="136"/>
			<point x="82" y="118" type="curve" smooth="yes"/>
			<point x="82" y="49"/>
			<point x="120" y="-12"/>
		</contour>
		<contour>
			<point name="aboveLC" x="330" y="630" type="move"/>
		</contour>
		<contour>
			<point name="belowLC" x="330" y="-20" type="move"/>
		</contour>
	</outline>
</glyph>
<glyph name="tesh" format="1">
	<unicode hex="02A7"/>
	<advance width="524"/>
	<outline>
		<contour>
			<point x="250" y="-234" type="curve" smooth="yes"/>
			<point x="310" y="-234"/>
			<point x="345" y="-184"/>
			<point x="362" y="-98" type="curve" smooth="yes"/>
			<point x="502" y="598" type="line" smooth="yes"/>
			<point x="516" y="668"/>
			<point x="538" y="710"/>
			<point x="600" y="710" type="curve" smooth="yes"/>
			<point x="616" y="710"/>
			<point x="630" y="706"/>
			<point x="644" y="700" type="curve"/>
			<point x="654" y="724" type="line"/>
			<point x="639" y="731"/>
			<point x="622" y="736"/>
			<point x="602" y="736" type="curve" smooth="yes"/>
			<point x="532" y="736"/>
			<point x="494" y="696"/>
			<point x="476" y="606" type="curve" smooth="yes"/>
			<point x="378" y="120" type="line"/>
			<point x="302" y="46"/>
			<point x="242" y="14"/>
			<point x="198" y="14" type="curve" smooth="yes"/>
			<point x="134" y="14"/>
			<point x="108" y="46"/>
			<point x="108" y="108" type="curve" smooth="yes"/>
			<point x="108" y="128"/>
			<point x="110" y="142"/>
			<point x="116" y="172" type="curve" smooth="yes"/>
			<point x="174" y="452" type="line"/>
			<point x="456" y="452" type="line"/>
			<point x="462" y="478" type="line"/>
			<point x="180" y="478" type="line"/>
			<point x="208" y="616" type="line"/>
			<point x="184" y="616" type="line"/>
			<point x="152" y="478" type="line"/>
			<point x="74" y="474" type="line"/>
			<point x="70" y="452" type="line"/>
			<point x="146" y="452" type="line"/>
			<point x="88" y="168" type="line" smooth="yes"/>
			<point x="82" y="140"/>
			<point x="80" y="128"/>
			<point x="80" y="104" type="curve" smooth="yes"/>
			<point x="80" y="36"/>
			<point x="112" y="-12"/>
			<point x="194" y="-12" type="curve" smooth="yes"/>
			<point x="252" y="-12"/>
			<point x="306" y="28"/>
			<point x="366" y="80" type="curve"/>
			<point x="370" y="80" type="line"/>
			<point x="333" y="-104" type="line" smooth="yes"/>
			<point x="321" y="-166"/>
			<point x="293" y="-208"/>
			<point x="252" y="-208" type="curve" smooth="yes"/>
			<point x="226" y="-208"/>
			<point x="216" y="-204"/>
			<point x="204" y="-196" type="curve"/>
			<point x="192" y="-218" type="line"/>
			<point x="206" y="-226"/>
			<point x="222" y="-234"/>
		</contour>
		<contour>
			<point name="aboveUC" x="370" y="730" type="move"/>
		</contour>
		<contour>
			<point name="belowLC" x="170" y="-218" type="move"/>
		</contour>
	</outline>
</glyph>
<glyph name="hhook.sups" format="2">
	<unicode hex="02B1"/>
	<advance width="340"/>
	<outline>
		<contour>
			<point x="94" y="410" type="line"/>
			<point x="120" y="410" type="line"/>
			<point x="166" y="640" type="line"/>
			<point x="214" y="688"/>
			<point x="252" y="710"/>
			<point x="288" y="710" type="curve" smooth="yes"/>
			<point x="321" y="710"/>
			<point x="338" y="690"/>
			<point x="338" y="650" type="curve" smooth="yes"/>
			<point x="338" y="638"/>
			<point x="336" y="628"/>
			<point x="332" y="610" type="curve" smooth="yes"/>
			<point x="292" y="410" type="line"/>
			<point x="318" y="410" type="line"/>
			<point x="358" y="614" type="line" smooth="yes"/>
			<point x="361" y="627"/>
			<point x="364" y="641"/>
			<point x="364" y="656" type="curve" smooth="yes"/>
			<point x="364" y="704"/>
			<point x="346" y="734"/>
			<point x="290" y="734" type="curve" smooth="yes"/>
			<point x="250" y="734"/>
			<point x="214" y="710"/>
			<point x="176" y="678" type="curve"/>
			<point x="172" y="678" type="line"/>
			<point x="188" y="752" type="line"/>
			<point x="198" y="802" type="line" smooth="yes"/>
			<point x="206" y="840"/>
			<point x="232" y="868"/>
			<point x="264" y="868" type="curve" smooth="yes"/>
			<point x="284" y="868"/>
			<point x="296" y="865"/>
			<point x="310" y="856" type="curve"/>
			<point x="322" y="876" type="line"/>
			<point x="302" y="888"/>
			<point x="286" y="892"/>
			<point x="266" y="892" type="curve" smooth="yes"/>
			<point x="222" y="892"/>
			<point x="185" y="862"/>
			<point x="172" y="798" type="curve" smooth="yes"/>
		</contour>
	</outline>
</glyph>
<glyph name="j.sups" format="2">
	<unicode hex="02B2"/>
	<advance width="150"/>
	<outline>
		<contour>
			<point x="26" y="258" type="curve" smooth="yes"/>
			<point x="72" y="258"/>
			<point x="97" y="290"/>
			<point x="108" y="348" type="curve" smooth="yes"/>
			<point x="182" y="726" type="line"/>
			<point x="156" y="726" type="line"/>
			<point x="82" y="348" type="line" smooth="yes"/>
			<point x="74" y="310"/>
			<point x="58" y="282"/>
			<point x="28" y="282" type="curve" smooth="yes"/>
			<point x="12" y="282"/>
			<point x="2" y="288"/>
			<point x="-6" y="292" type="curve"/>
			<point x="-18" y="272" type="line"/>
			<point x="-4" y="264"/>
			<point x="10" y="258"/>
		</contour>
		<contour>
			<point x="186" y="802" type="curve" smooth="yes"/>
			<point x="202" y="802"/>
			<point x="214" y="816"/>
			<point x="214" y="832" type="curve" smooth="yes"/>
			<point x="214" y="846"/>
			<point x="204" y="856"/>
			<point x="192" y="856" type="curve" smooth="yes"/>
			<point x="176" y="856"/>
			<point x="164" y="842"/>
			<point x="164" y="826" type="curve" smooth="yes"/>
			<point x="164" y="812"/>
			<point x="174" y="802"/>
		</contour>
	</outline>
</glyph>
<glyph name="commaturnedmod" format="2">
	<unicode hex="02BB"/>
	<advance width="210"/>
	<outline>
		<contour>
			<point x="154" y="484" type="curve" smooth="yes"/>
			<point x="180" y="484"/>
			<point x="202" y="506"/>
			<point x="202" y="530" type="curve" smooth="yes"/>
			<point x="202" y="556"/>
			<point x="182" y="568"/>
			<point x="162" y="568" type="curve" smooth="yes"/>
			<point x="148" y="568"/>
			<point x="138" y="564"/>
			<point x="128" y="548" type="curve"/>
			<point x="136" y="548" type="line"/>
			<point x="138" y="560" type="line" smooth="yes"/>
			<point x="148" y="620"/>
			<point x="168" y="666"/>
			<point x="234" y="706" type="curve"/>
			<point x="222" y="726" type="line"/>
			<point x="146" y="686"/>
			<point x="108" y="612"/>
			<point x="108" y="542" type="curve" smooth="yes"/>
			<point x="108" y="504"/>
			<point x="126" y="484"/>
		</contour>
	</outline>
</glyph>
<glyph name="apostrophemod" format="2">
	<unicode hex="02BC"/>
	<advance width="210"/>
	<outline>
		<contour>
			<point x="120" y="484" type="line"/>
			<point x="196" y="524"/>
			<point x="234" y="598"/>
			<point x="234" y="668" type="curve" smooth="yes"/>
			<point x="234" y="706"/>
			<point x="216" y="726"/>
			<point x="188" y="726" type="curve" smooth="yes"/>
			<point x="162" y="726"/>
			<point x="140" y="704"/>
			<point x="140" y="680" type="curve" smooth="yes"/>
			<point x="140" y="654"/>
			<point x="160" y="642"/>
			<point x="180" y="642" type="curve" smooth="yes"/>
			<point x="194" y="642"/>
			<point x="204" y="646"/>
			<point x="214" y="662" type="curve"/>
			<point x="206" y="662" type="line"/>
			<point x="204" y="650" type="line" smooth="yes"/>
			<point x="194" y="590"/>
			<point x="174" y="544"/>
			<point x="108" y="504" type="curve"/>
		</contour>
	</outline>
</glyph>
<glyph name="commareversedmod" format="2">
	<unicode hex="02BD"/>
	<advance width="202"/>
	<outline>
		<contour>
			<point x="184" y="480" type="curve"/>
			<point x="202" y="498" type="line"/>
			<point x="170" y="526"/>
			<point x="152" y="560"/>
			<point x="152" y="598" type="curve" smooth="yes"/>
			<point x="152" y="614"/>
			<point x="156" y="632"/>
			<point x="168" y="658" type="curve"/>
			<point x="147" y="658" type="line"/>
			<point x="152" y="648"/>
			<point x="162" y="646"/>
			<point x="170" y="646" type="curve" smooth="yes"/>
			<point x="200" y="646"/>
			<point x="224" y="672"/>
			<point x="224" y="696" type="curve" smooth="yes"/>
			<point x="224" y="710"/>
			<point x="216" y="720"/>
			<point x="198" y="720" type="curve" smooth="yes"/>
			<point x="162" y="720"/>
			<point x="126" y="668"/>
			<point x="126" y="596" type="curve" smooth="yes"/>
			<point x="126" y="546"/>
			<point x="148" y="508"/>
		</contour>
	</outline>
</glyph>
<glyph name="ringhalfleftmod" format="2">
	<unicode hex="02BF"/>
	<advance width="210"/>
	<outline>
		<contour>
			<point x="210" y="482" type="curve"/>
			<point x="216" y="504" type="line"/>
			<point x="152" y="504"/>
			<point x="120" y="534"/>
			<point x="120" y="580" type="curve" smooth="yes"/>
			<point x="120" y="640"/>
			<point x="164" y="708"/>
			<point x="256" y="708" type="curve"/>
			<point x="262" y="730" type="line"/>
			<point x="148" y="734"/>
			<point x="94" y="654"/>
			<point x="94" y="576" type="curve" smooth="yes"/>
			<point x="94" y="516"/>
			<point x="142" y="478"/>
		</contour>
	</outline>
</glyph>
<glyph name="glottalstopmod" format="1">
	<unicode hex="02C0"/>
	<advance width="270"/>
	<outline>
		<contour>
			<point x="162" y="530" type="line"/>
			<point x="188" y="530" type="line"/>
			<point x="208" y="630" type="line"/>
			<point x="298" y="670"/>
			<point x="359" y="728"/>
			<point x="360" y="798" type="curve" smooth="yes"/>
			<point x="361" y="856"/>
			<point x="324" y="892"/>
			<point x="262" y="892" type="curve" smooth="yes"/>
			<point x="204" y="892"/>
			<point x="158" y="870"/>
			<point x="122" y="838" type="curve"/>
			<point x="136" y="818" type="line"/>
			<point x="170" y="850"/>
			<point x="212" y="868"/>
			<point x="260" y="868" type="curve" smooth="yes"/>
			<point x="310" y="868"/>
			<point x="334" y="838"/>
			<point x="334" y="794" type="curve" smooth="yes"/>
			<point x="334" y="736"/>
			<point x="282" y="684"/>
			<point x="186" y="646" type="curve"/>
		</contour>
	</outline>
</glyph>
<glyph name="glottalstopreversedmod" format="1">
	<unicode hex="02C1"/>
	<advance width="270"/>
	<outline>
		<contour>
			<point x="87" y="410" type="line"/>
			<point x="115" y="410" type="line"/>
			<point x="158" y="627" type="line"/>
			<point x="98" y="663"/>
			<point x="66" y="696"/>
			<point x="66" y="745" type="curve" smooth="yes"/>
			<point x="66" y="808"/>
			<point x="110" y="868"/>
			<point x="193" y="868" type="curve" smooth="yes"/>
			<point x="242" y="868"/>
			<point x="267" y="843"/>
			<point x="283" y="817" type="curve"/>
			<point x="304" y="836" type="line"/>
			<point x="286" y="863"/>
			<point x="256" y="893"/>
			<point x="198" y="893" type="curve" smooth="yes"/>
			<point x="101" y="893"/>
			<point x="37" y="824"/>
			<point x="37" y="740" type="curve" smooth="yes"/>
			<point x="37" y="682"/>
			<point x="75" y="646"/>
			<point x="127" y="610" type="curve"/>
		</contour>
	</outline>
</glyph>
<glyph name="circumflex" format="1">
	<unicode hex="02C6"/>
	<advance width="504"/>
	<outline>
		<component base="circumflexcmb" xOffset="214"/>
		<contour>
			<point name="_aboveLC" x="252" y="502" type="move"/>
		</contour>
		<contour>
			<point name="aboveLC" x="252" y="502" type="move"/>
		</contour>
	</outline>
</glyph>
<glyph name="uptackmod" format="2">
	<unicode hex="02D4"/>
	<advance width="346"/>
	<outline>
		<contour>
			<point x="24" y="110" type="line"/>
			<point x="316" y="110" type="line"/>
			<point x="316" y="138" type="line"/>
			<point x="184" y="138" type="line"/>
			<point x="184" y="426" type="line"/>
			<point x="154" y="426" type="line"/>
			<point x="154" y="138" type="line"/>
			<point x="24" y="138" type="line"/>
		</contour>
	</outline>
</glyph>
<glyph name="breve" format="1">
	<unicode hex="02D8"/>
	<advance width="504"/>
	<outline>
		<component base="brevecmb" xOffset="214"/>
		<contour>
			<point name="_aboveLC" x="252" y="502" type="move"/>
		</contour>
		<contour>
			<point name="aboveLC" x="252" y="502" type="move"/>
		</contour>
	</outline>
</glyph>
<glyph name="dotaccent" format="1">
	<unicode hex="02D9"/>
	<advance width="504"/>
	<outline>
		<component base="dotaccentcmb" xOffset="214"/>
		<contour>
			<point name="_aboveLC" x="314" y="502" type="move"/>
		</contour>
	</outline>
</glyph>
<glyph name="ring" format="1">
	<unicode hex="02DA"/>
	<advance width="504"/>
	<outline>
		<component base="ringcmb" xOffset="214"/>
		<contour>
			<point name="_aboveLC" x="314" y="502" type="move"/>
		</contour>
	</outline>
</glyph>
<glyph name="ogonek" format="1">
	<unicode hex="02DB"/>
	<advance width="504"/>
	<outline>
		<component base="ogonekcmb" xOffset="214"/>
		<contour>
			<point name="_ogonekLC" x="214" y="0" type="move"/>
		</contour>
	</outline>
</glyph>
<glyph name="tilde" format="1">
	<unicode hex="02DC"/>
	<advance width="504"/>
	<outline>
		<component base="tildecmb" xOffset="214"/>
		<contour>
			<point name="_aboveLC" x="252" y="502" type="move"/>
		</contour>
	</outline>
</glyph>
<glyph name="gammalatin.sups" format="2">
	<unicode hex="02E0"/>
	<advance width="282"/>
	<outline>
		<contour>
			<point x="140" y="256" type="curve" smooth="yes"/>
			<point x="184" y="256"/>
			<point x="210" y="296"/>
			<point x="210" y="341" type="curve" smooth="yes"/>
			<point x="210" y="366"/>
			<point x="202" y="396"/>
			<point x="192" y="437" type="curve"/>
			<point x="161" y="437" type="line"/>
			<point x="122" y="376"/>
			<point x="98" y="340"/>
			<point x="98" y="302" type="curve" smooth="yes"/>
			<point x="98" y="274"/>
			<point x="116" y="256"/>
		</contour>
		<contour>
			<point x="159" y="425" type="line"/>
			<point x="191" y="425" type="line"/>
			<point x="365" y="726" type="line"/>
			<point x="338" y="726" type="line"/>
			<point x="230" y="534" type="line" smooth="yes"/>
			<point x="213" y="504"/>
			<point x="197" y="478"/>
			<point x="181" y="450" type="curve"/>
			<point x="178" y="450" type="line"/>
			<point x="175" y="478"/>
			<point x="168" y="504"/>
			<point x="164" y="534" type="curve" smooth="yes"/>
			<point x="131" y="726" type="line"/>
			<point x="103" y="726" type="line"/>
		</contour>
		<contour>
			<point x="146" y="280" type="curve" smooth="yes"/>
			<point x="130" y="280"/>
			<point x="124" y="290"/>
			<point x="124" y="304" type="curve" smooth="yes"/>
			<point x="124" y="332"/>
			<point x="144" y="372"/>
			<point x="170" y="411" type="curve"/>
			<point x="173" y="411" type="line"/>
			<point x="179" y="390"/>
			<point x="184" y="366"/>
			<point x="184" y="344" type="curve" smooth="yes"/>
			<point x="184" y="310"/>
			<point x="173" y="280"/>
		</contour>
	</outline>
</glyph>
<glyph name="gammalatinsupmod" format="1">
	<unicode hex="02E0"/>
	<advance width="282"/>
	<outline>
		<contour>
			<point x="140" y="256" type="curve" smooth="yes"/>
			<point x="184" y="256"/>
			<point x="210" y="297"/>
			<point x="210" y="341" type="curve" smooth="yes"/>
			<point x="210" y="366"/>
			<point x="202" y="396"/>
			<point x="192" y="437" type="curve"/>
			<point x="161" y="437" type="line"/>
			<point x="123" y="376"/>
			<point x="97" y="340"/>
			<point x="97" y="302" type="curve" smooth="yes"/>
			<point x="97" y="274"/>
			<point x="111" y="256"/>
		</contour>
		<contour>
			<point x="159" y="425" type="line"/>
			<point x="191" y="425" type="line"/>
			<point x="365" y="726" type="line"/>
			<point x="338" y="726" type="line"/>
			<point x="230" y="534" type="line"/>
			<point x="213" y="504"/>
			<point x="197" y="479"/>
			<point x="181" y="451" type="curve"/>
			<point x="178" y="451" type="line"/>
			<point x="175" y="479"/>
			<point x="168" y="504"/>
			<point x="164" y="534" type="curve"/>
			<point x="131" y="726" type="line"/>
			<point x="103" y="726" type="line"/>
		</contour>
		<contour>
			<point x="145" y="279" type="curve" smooth="yes"/>
			<point x="131" y="279"/>
			<point x="124" y="289"/>
			<point x="124" y="304" type="curve" smooth="yes"/>
			<point x="124" y="333"/>
			<point x="145" y="372"/>
			<point x="170" y="411" type="curve"/>
			<point x="173" y="411" type="line"/>
			<point x="179" y="389"/>
			<point x="183" y="365"/>
			<point x="183" y="344" type="curve" smooth="yes"/>
			<point x="183" y="310"/>
			<point x="172" y="279"/>
		</contour>
	</outline>
</glyph>
<glyph name="l.sups" format="2">
	<unicode hex="02E1"/>
	<advance width="152"/>
	<outline>
		<contour>
			<point x="128" y="402" type="curve" smooth="yes"/>
			<point x="138" y="402"/>
			<point x="147" y="404"/>
			<point x="155" y="407" type="curve"/>
			<point x="152" y="431" type="line"/>
			<point x="146" y="428"/>
			<point x="141" y="428"/>
			<point x="138" y="428" type="curve" smooth="yes"/>
			<point x="131" y="428"/>
			<point x="126" y="432"/>
			<point x="126" y="438" type="curve" smooth="yes"/>
			<point x="126" y="442"/>
			<point x="126" y="444"/>
			<point x="128" y="453" type="curve" smooth="yes"/>
			<point x="214" y="884" type="line"/>
			<point x="188" y="884" type="line"/>
			<point x="104" y="460" type="line" smooth="yes"/>
			<point x="102" y="452"/>
			<point x="100" y="442"/>
			<point x="100" y="434" type="curve" smooth="yes"/>
			<point x="100" y="414"/>
			<point x="110" y="402"/>
		</contour>
	</outline>
</glyph>
<glyph name="glottalstopreversed.sups" format="2">
	<unicode hex="02E4"/>
	<advance width="270"/>
	<outline>
		<contour>
			<point x="148" y="410" type="line"/>
			<point x="174" y="410" type="line"/>
			<point x="216" y="624" type="line"/>
			<point x="154" y="660"/>
			<point x="124" y="700"/>
			<point x="124" y="754" type="curve" smooth="yes"/>
			<point x="124" y="814"/>
			<point x="168" y="868"/>
			<point x="242" y="868" type="curve" smooth="yes"/>
			<point x="294" y="868"/>
			<point x="323" y="848"/>
			<point x="344" y="822" type="curve"/>
			<point x="360" y="836" type="line"/>
			<point x="338" y="864"/>
			<point x="300" y="892"/>
			<point x="244" y="892" type="curve" smooth="yes"/>
			<point x="158" y="892"/>
			<point x="98" y="834"/>
			<point x="98" y="750" type="curve" smooth="yes"/>
			<point x="98" y="688"/>
			<point x="134" y="648"/>
			<point x="188" y="612" type="curve"/>
		</contour>
	</outline>
</glyph>
<glyph name="gravecmb" format="1">
	<unicode hex="0300"/>
	<outline>
		<contour>
			<point x="150" y="570" type="line"/>
			<point x="170" y="584" type="line"/>
			<point x="62" y="748" type="line"/>
			<point x="36" y="730" type="line"/>
		</contour>
		<contour>
			<point name="_aboveLC" x="100" y="502" type="move"/>
		</contour>
	</outline>
</glyph>
<glyph name="acutecmb" format="1">
	<unicode hex="0301"/>
	<outline>
		<contour>
			<point x="74" y="574" type="line"/>
			<point x="248" y="724" type="line"/>
			<point x="230" y="744" type="line"/>
			<point x="60" y="590" type="line"/>
		</contour>
		<contour>
			<point name="_aboveLC" x="100" y="502" type="move"/>
		</contour>
	</outline>
</glyph>
<glyph name="circumflexcmb" format="1">
	<unicode hex="0302"/>
	<outline>
		<contour>
			<point x="2" y="574" type="line"/>
			<point x="138" y="706" type="line"/>
			<point x="142" y="706" type="line"/>
			<point x="228" y="574" type="line"/>
			<point x="248" y="588" type="line"/>
			<point x="156" y="736" type="line"/>
			<point x="128" y="736" type="line"/>
			<point x="-16" y="590" type="line"/>
		</contour>
		<contour>
			<point name="_aboveLC" x="104" y="502" type="move"/>
		</contour>
		<contour>
			<point name="aboveLC" x="144" y="710" type="move"/>
		</contour>
	</outline>
</glyph>
<glyph name="macroncmb" format="1">
	<unicode hex="0304"/>
	<outline>
		<contour>
			<point x="4" y="608" type="line"/>
			<point x="236" y="608" type="line"/>
			<point x="240" y="634" type="line"/>
			<point x="8" y="634" type="line"/>
		</contour>
		<contour>
			<point name="_aboveLC" x="100" y="502" type="move"/>
		</contour>
		<contour>
			<point name="aboveLC" x="120" y="622" type="move"/>
		</contour>
	</outline>
</glyph>
<glyph name="overlinecmb" format="1">
	<unicode hex="0305"/>
	<outline>
		<component base="macroncmb"/>
		<contour>
			<point name="_aboveLC" x="100" y="502" type="move"/>
		</contour>
		<contour>
			<point name="aboveLC" x="120" y="622" type="move"/>
		</contour>
	</outline>
</glyph>
<glyph name="brevecmb" format="1">
	<unicode hex="0306"/>
	<outline>
		<contour>
			<point x="110" y="570" type="curve" smooth="yes"/>
			<point x="212" y="570"/>
			<point x="266" y="654"/>
			<point x="284" y="716" type="curve"/>
			<point x="258" y="720" type="line"/>
			<point x="240" y="662"/>
			<point x="190" y="596"/>
			<point x="116" y="596" type="curve" smooth="yes"/>
			<point x="38" y="596"/>
			<point x="18" y="658"/>
			<point x="18" y="718" type="curve"/>
			<point x="-8" y="716" type="line"/>
			<point x="-8" y="650"/>
			<point x="12" y="570"/>
		</contour>
		<contour>
			<point name="_aboveLC" x="100" y="502" type="move"/>
		</contour>
	</outline>
</glyph>
<glyph name="dotaccentcmb" format="2">
	<unicode hex="0307"/>
	<outline>
		<contour>
			<point x="120" y="600" type="curve" smooth="yes"/>
			<point x="138" y="600"/>
			<point x="156" y="616"/>
			<point x="156" y="638" type="curve" smooth="yes"/>
			<point x="156" y="656"/>
			<point x="144" y="668"/>
			<point x="128" y="668" type="curve" smooth="yes"/>
			<point x="110" y="668"/>
			<point x="92" y="652"/>
			<point x="92" y="628" type="curve" smooth="yes"/>
			<point x="92" y="612"/>
			<point x="104" y="600"/>
		</contour>
	</outline>
	<anchor name="_aboveLC" x="100" y="502"/>
	<anchor name="aboveLC" x="132" y="682"/>
</glyph>
<glyph name="hoicmb" format="2">
	<unicode hex="0309"/>
	<outline>
		<contour>
			<point x="84" y="556" type="line"/>
			<point x="150" y="574"/>
			<point x="184" y="614"/>
			<point x="184" y="662" type="curve" smooth="yes"/>
			<point x="184" y="712"/>
			<point x="140" y="732"/>
			<point x="90" y="734" type="curve"/>
			<point x="84" y="710" type="line"/>
			<point x="128" y="708"/>
			<point x="156" y="692"/>
			<point x="156" y="656" type="curve" smooth="yes"/>
			<point x="156" y="622"/>
			<point x="132" y="594"/>
			<point x="78" y="578" type="curve"/>
		</contour>
	</outline>
	<anchor name="_aboveLC" x="100" y="502"/>
	<anchor name="aboveLC" x="140" y="722"/>
</glyph>
<glyph name="ringcmb" format="1">
	<unicode hex="030A"/>
	<outline>
		<contour>
			<point x="116" y="548" type="curve" smooth="yes"/>
			<point x="174" y="548"/>
			<point x="216" y="596"/>
			<point x="216" y="652" type="curve" smooth="yes"/>
			<point x="216" y="704"/>
			<point x="178" y="732"/>
			<point x="138" y="732" type="curve" smooth="yes"/>
			<point x="80" y="732"/>
			<point x="38" y="684"/>
			<point x="38" y="628" type="curve" smooth="yes"/>
			<point x="38" y="576"/>
			<point x="76" y="548"/>
		</contour>
		<contour>
			<point x="118" y="570" type="curve" smooth="yes"/>
			<point x="86" y="570"/>
			<point x="62" y="594"/>
			<point x="62" y="630" type="curve" smooth="yes"/>
			<point x="62" y="674"/>
			<point x="96" y="710"/>
			<point x="136" y="710" type="curve" smooth="yes"/>
			<point x="168" y="710"/>
			<point x="192" y="686"/>
			<point x="192" y="650" type="curve" smooth="yes"/>
			<point x="192" y="606"/>
			<point x="158" y="570"/>
		</contour>
		<contour>
			<point name="_aboveLC" x="100" y="502" type="move"/>
		</contour>
	</outline>
</glyph>
<glyph name="hungarumlautcmb" format="1">
	<unicode hex="030B"/>
	<outline>
		<contour>
			<point x="62" y="574" type="line"/>
			<point x="182" y="724" type="line"/>
			<point x="160" y="742" type="line"/>
			<point x="44" y="586" type="line"/>
		</contour>
		<contour>
			<point x="190" y="574" type="line"/>
			<point x="310" y="724" type="line"/>
			<point x="288" y="742" type="line"/>
			<point x="172" y="586" type="line"/>
		</contour>
		<contour>
			<point name="_aboveLC" x="100" y="502" type="move"/>
		</contour>
	</outline>
</glyph>
<glyph name="caroncmb" format="1">
	<unicode hex="030C"/>
	<outline>
		<contour>
			<point x="98" y="572" type="line"/>
			<point x="126" y="572" type="line"/>
			<point x="270" y="718" type="line"/>
			<point x="252" y="734" type="line"/>
			<point x="116" y="602" type="line"/>
			<point x="112" y="602" type="line"/>
			<point x="26" y="734" type="line"/>
			<point x="6" y="720" type="line"/>
		</contour>
		<contour>
			<point name="_aboveLC" x="100" y="502" type="move"/>
		</contour>
	</outline>
</glyph>
<glyph name="dblgravecmb" format="2">
	<unicode hex="030F"/>
	<outline>
		<contour>
			<point x="58" y="572" type="line"/>
			<point x="78" y="580" type="line"/>
			<point x="-22" y="738" type="line"/>
			<point x="-44" y="720" type="line"/>
		</contour>
		<contour>
			<point x="192" y="572" type="line"/>
			<point x="212" y="580" type="line"/>
			<point x="112" y="738" type="line"/>
			<point x="90" y="720" type="line"/>
		</contour>
	</outline>
	<anchor name="_aboveLC" x="100" y="502"/>
</glyph>
<glyph name="breveinvertedcmb" format="1">
	<unicode hex="0311"/>
	<outline>
		<contour>
			<point x="-9" y="570" type="line"/>
			<point x="10" y="628"/>
			<point x="60" y="694"/>
			<point x="135" y="694" type="curve" smooth="yes"/>
			<point x="210" y="694"/>
			<point x="234" y="628"/>
			<point x="231" y="570" type="curve"/>
			<point x="258" y="574" type="line"/>
			<point x="262" y="636"/>
			<point x="241" y="720"/>
			<point x="140" y="720" type="curve" smooth="yes"/>
			<point x="39" y="720"/>
			<point x="-14" y="636"/>
			<point x="-34" y="574" type="curve"/>
		</contour>
		<contour>
			<point name="_aboveLC" x="100" y="502" type="move"/>
		</contour>
	</outline>
</glyph>
<glyph name="lefttackbelowcmb" format="1">
	<unicode hex="0318"/>
	<outline>
		<contour>
			<point x="-1" y="-242" type="line"/>
			<point x="27" y="-242" type="line"/>
			<point x="62" y="-62" type="line"/>
			<point x="34" y="-62" type="line"/>
			<point x="19" y="-138" type="line"/>
			<point x="-93" y="-138" type="line"/>
			<point x="-98" y="-166" type="line"/>
			<point x="14" y="-166" type="line"/>
		</contour>
		<contour>
			<point name="_belowLC" x="-4" y="-22" type="move"/>
		</contour>
	</outline>
</glyph>
<glyph name="leftangleabovecmb" format="1">
	<unicode hex="031A"/>
	<outline>
		<contour>
			<point x="157" y="572" type="line"/>
			<point x="185" y="572" type="line"/>
			<point x="211" y="706" type="line"/>
			<point x="71" y="706" type="line"/>
			<point x="66" y="678" type="line"/>
			<point x="178" y="678" type="line"/>
		</contour>
		<contour>
			<point name="_aboverightLC" x="100" y="502" type="move"/>
		</contour>
	</outline>
</glyph>
<glyph name="horncmb" format="1">
	<unicode hex="031B"/>
	<outline>
		<contour>
			<point x="103" y="456" type="line"/>
			<point x="138" y="464"/>
			<point x="214" y="500"/>
			<point x="214" y="584" type="curve" smooth="yes"/>
			<point x="214" y="600"/>
			<point x="212" y="618"/>
			<point x="206" y="636" type="curve"/>
			<point x="178" y="622" type="line"/>
			<point x="183" y="607"/>
			<point x="185" y="592"/>
			<point x="184" y="580" type="curve" smooth="yes"/>
			<point x="180" y="515"/>
			<point x="131" y="482"/>
			<point x="80" y="478" type="curve"/>
		</contour>
		<contour>
			<point name="_hornLC" x="94" y="478" type="move"/>
		</contour>
	</outline>
</glyph>
<glyph name="downtackbelowcmb" format="1">
	<unicode hex="031E"/>
	<outline>
		<contour>
			<point x="-61" y="-242" type="line"/>
			<point x="-33" y="-242" type="line"/>
			<point x="-12" y="-136" type="line"/>
			<point x="60" y="-136" type="line"/>
			<point x="65" y="-108" type="line"/>
			<point x="-107" y="-108" type="line"/>
			<point x="-112" y="-136" type="line"/>
			<point x="-40" y="-136" type="line"/>
		</contour>
		<contour>
			<point name="_belowLC" x="-4" y="-22" type="move"/>
		</contour>
	</outline>
</glyph>
<glyph name="minusbelowcmb" format="1">
	<unicode hex="0320"/>
	<outline>
		<contour>
			<point x="-118" y="-166" type="line"/>
			<point x="54" y="-166" type="line"/>
			<point x="59" y="-138" type="line"/>
			<point x="-113" y="-138" type="line"/>
		</contour>
		<contour>
			<point name="_belowLC" x="0" y="-22" type="move"/>
		</contour>
	</outline>
</glyph>
<glyph name="commabelowcmb" format="2">
	<unicode hex="0326"/>
	<outline>
		<contour>
			<point x="-122" y="-216" type="line"/>
			<point x="-32" y="-214"/>
			<point x="30" y="-181"/>
			<point x="30" y="-124" type="curve" smooth="yes"/>
			<point x="30" y="-89"/>
			<point x="14" y="-72"/>
			<point x="-58" y="-62" type="curve"/>
			<point x="-68" y="-86" type="line"/>
			<point x="-23" y="-90"/>
			<point x="0" y="-102"/>
			<point x="0" y="-132" type="curve" smooth="yes"/>
			<point x="0" y="-165"/>
			<point x="-42" y="-190"/>
			<point x="-124" y="-192" type="curve"/>
		</contour>
	</outline>
	<anchor name="_belowLC" x="0" y="-22"/>
</glyph>
<glyph name="verticallinebelowcmb" format="1">
	<unicode hex="0329"/>
	<outline>
		<contour>
			<point x="-67" y="-264" type="line"/>
			<point x="-35" y="-264" type="line"/>
			<point x="-5" y="-76" type="line"/>
			<point x="-25" y="-76" type="line"/>
		</contour>
		<contour>
			<point name="_belowLC" x="0" y="-22" type="move"/>
		</contour>
	</outline>
</glyph>
<glyph name="brevebelowcmb" format="1">
	<unicode hex="032E"/>
	<outline>
		<component base="brevecmb" xOffset="-156" yOffset="-790"/>
		<contour>
			<point name="_belowLC" x="-6" y="-30" type="move"/>
		</contour>
	</outline>
</glyph>
<glyph name="tildeoverlaycmb" format="1">
	<unicode hex="0334"/>
	<outline>
		<contour>
			<point x="118" y="196" type="curve" smooth="yes"/>
			<point x="178" y="196"/>
			<point x="204" y="258"/>
			<point x="216" y="314" type="curve"/>
			<point x="194" y="320" type="line"/>
			<point x="182" y="266"/>
			<point x="160" y="220"/>
			<point x="122" y="220" type="curve" smooth="yes"/>
			<point x="64" y="220"/>
			<point x="60" y="322"/>
			<point x="-10" y="322" type="curve" smooth="yes"/>
			<point x="-70" y="322"/>
			<point x="-96" y="262"/>
			<point x="-108" y="204" type="curve"/>
			<point x="-86" y="198" type="line"/>
			<point x="-74" y="254"/>
			<point x="-52" y="298"/>
			<point x="-14" y="298" type="curve" smooth="yes"/>
			<point x="44" y="298"/>
			<point x="48" y="196"/>
		</contour>
		<contour>
			<point name="_center" x="50" y="240" type="move"/>
		</contour>
	</outline>
</glyph>
<glyph name="slashshortcmb" format="2">
	<unicode hex="0337"/>
	<outline>
		<contour>
			<point x="-482" y="-22" type="line"/>
			<point x="6" y="480" type="line"/>
			<point x="-12" y="498" type="line"/>
			<point x="-500" y="-4" type="line"/>
		</contour>
	</outline>
</glyph>
<glyph name="bridgeinvertedbelowcmb" format="1">
	<unicode hex="033A"/>
	<outline>
		<contour>
			<point x="-161" y="-234" type="line"/>
			<point x="71" y="-234" type="line"/>
			<point x="99" y="-90" type="line"/>
			<point x="73" y="-90" type="line"/>
			<point x="50" y="-206" type="line"/>
			<point x="-130" y="-206" type="line"/>
			<point x="-107" y="-90" type="line"/>
			<point x="-133" y="-90" type="line"/>
		</contour>
		<contour>
			<point name="_belowLC" x="0" y="-22" type="move"/>
		</contour>
	</outline>
</glyph>
<glyph name="squarebelowcmb" format="1">
	<unicode hex="033B"/>
	<outline>
		<contour>
			<point x="-161" y="-234" type="line"/>
			<point x="71" y="-234" type="line"/>
			<point x="99" y="-86" type="line"/>
			<point x="-133" y="-86" type="line"/>
		</contour>
		<contour>
			<point x="-130" y="-206" type="line"/>
			<point x="-112" y="-114" type="line"/>
			<point x="68" y="-114" type="line"/>
			<point x="50" y="-206" type="line"/>
		</contour>
		<contour>
			<point name="_belowLC" x="0" y="-22" type="move"/>
		</contour>
	</outline>
</glyph>
<glyph name="variacmb" format="1">
	<unicode hex="0340"/>
	<outline>
		<contour>
			<point x="103" y="562" type="line"/>
			<point x="126" y="566" type="line"/>
			<point x="118" y="750" type="line"/>
			<point x="84" y="746" type="line"/>
		</contour>
		<contour>
			<point name="_aboveLC" x="100" y="502" type="move"/>
		</contour>
	</outline>
</glyph>
<glyph name="perispomenicmb" format="1">
	<unicode hex="0342"/>
	<outline>
		<component base="tildecmb"/>
		<contour>
			<point name="_aboveLC" x="100" y="502" type="move"/>
		</contour>
	</outline>
</glyph>
<glyph name="dialytikatonoscmb" format="2">
	<unicode hex="0344"/>
	<outline>
		<contour>
			<point x="26" y="602" type="curve" smooth="yes"/>
			<point x="42" y="602"/>
			<point x="58" y="618"/>
			<point x="58" y="638" type="curve" smooth="yes"/>
			<point x="58" y="656"/>
			<point x="48" y="666"/>
			<point x="32" y="666" type="curve" smooth="yes"/>
			<point x="16" y="666"/>
			<point x="0" y="650"/>
			<point x="0" y="628" type="curve" smooth="yes"/>
			<point x="0" y="612"/>
			<point x="10" y="602"/>
		</contour>
		<contour>
			<point x="212" y="602" type="curve" smooth="yes"/>
			<point x="228" y="602"/>
			<point x="244" y="618"/>
			<point x="244" y="638" type="curve" smooth="yes"/>
			<point x="244" y="656"/>
			<point x="234" y="666"/>
			<point x="218" y="666" type="curve" smooth="yes"/>
			<point x="202" y="666"/>
			<point x="186" y="650"/>
			<point x="186" y="628" type="curve" smooth="yes"/>
			<point x="186" y="612"/>
			<point x="196" y="602"/>
		</contour>
		<contour>
			<point x="70" y="560" type="line"/>
			<point x="94" y="560" type="line"/>
			<point x="190" y="726" type="line"/>
			<point x="188" y="730" type="line"/>
			<point x="158" y="730" type="line"/>
		</contour>
	</outline>
	<anchor name="_aboveLC" x="100" y="502"/>
</glyph>
<glyph name="macrondoublebelowcmb" format="2">
	<unicode hex="035F"/>
	<outline>
		<contour>
			<point x="-466" y="-162" type="line"/>
			<point x="326" y="-162" type="line"/>
			<point x="330" y="-136" type="line"/>
			<point x="-462" y="-136" type="line"/>
		</contour>
	</outline>
</glyph>
<glyph name="lownumeralsign" format="2">
	<unicode hex="0375"/>
	<advance width="198"/>
	<outline>
		<contour>
			<point x="16" y="0" type="line"/>
			<point x="41" y="0" type="line"/>
			<point x="103" y="194" type="line"/>
			<point x="85" y="194" type="line"/>
			<point x="36" y="62" type="line"/>
		</contour>
	</outline>
</glyph>
<glyph name="dieresistonos" format="1">
	<unicode hex="0385"/>
	<advance width="500"/>
	<outline>
		<component base="dialytikatonoscmb" xOffset="214"/>
		<contour>
			<point name="_aboveLC" x="250" y="500" type="move"/>
		</contour>
	</outline>
</glyph>
<glyph name="Alpha" format="1">
	<unicode hex="0391"/>
	<advance width="480"/>
	<outline>
		<component base="A"/>
		<contour>
			<point name="aboveUC" x="330" y="680" type="move"/>
		</contour>
		<contour>
			<point name="belowLC" x="212" y="-20" type="move"/>
		</contour>
	</outline>
</glyph>
<glyph name="Gamma" format="1">
	<unicode hex="0393"/>
	<advance width="454"/>
	<outline>
		<contour>
			<point x="40" y="0" type="line"/>
			<point x="70" y="0" type="line"/>
			<point x="196" y="634" type="line"/>
			<point x="504" y="634" type="line"/>
			<point x="510" y="660" type="line"/>
			<point x="172" y="660" type="line"/>
		</contour>
	</outline>
</glyph>
<glyph name="Epsilon" format="1">
	<unicode hex="0395"/>
	<advance width="484"/>
	<outline>
		<component base="E"/>
		<contour>
			<point name="aboveUC" x="350" y="680" type="move"/>
		</contour>
	</outline>
</glyph>
<glyph name="Theta" format="1">
	<unicode hex="0398"/>
	<advance width="612"/>
	<outline>
		<contour>
			<point x="204" y="338" type="line"/>
			<point x="444" y="338" type="line"/>
			<point x="450" y="364" type="line"/>
			<point x="210" y="364" type="line"/>
		</contour>
		<component base="O"/>
	</outline>
</glyph>
<glyph name="Omicron" format="1">
	<unicode hex="039F"/>
	<advance width="612"/>
	<outline>
		<component base="O"/>
		<contour>
			<point name="aboveUC" x="390" y="680" type="move"/>
		</contour>
	</outline>
</glyph>
<glyph name="Pi" format="2">
	<unicode hex="03A0"/>
	<advance width="596"/>
	<outline>
		<contour>
			<point x="40" y="0" type="line"/>
			<point x="70" y="0" type="line"/>
			<point x="198" y="634" type="line"/>
			<point x="552" y="634" type="line"/>
			<point x="424" y="0" type="line"/>
			<point x="454" y="0" type="line"/>
			<point x="586" y="660" type="line"/>
			<point x="172" y="660" type="line"/>
		</contour>
	</outline>
</glyph>
<glyph name="Rho" format="1">
	<unicode hex="03A1"/>
	<advance width="524"/>
	<outline>
		<component base="P"/>
		<contour>
			<point name="aboveUC" x="360" y="680" type="move"/>
		</contour>
	</outline>
</glyph>
<glyph name="Sigma" format="1">
	<unicode hex="03A3"/>
	<advance width="506"/>
	<outline>
		<contour>
			<point x="-9" y="0" type="line"/>
			<point x="415" y="0" type="line"/>
			<point x="420" y="26" type="line"/>
			<point x="40" y="26" type="line"/>
			<point x="328" y="334" type="line"/>
			<point x="162" y="634" type="line"/>
			<point x="511" y="634" type="line"/>
			<point x="516" y="660" type="line"/>
			<point x="129" y="660" type="line"/>
			<point x="125" y="644" type="line"/>
			<point x="295" y="336" type="line"/>
			<point x="-6" y="16" type="line"/>
		</contour>
	</outline>
</glyph>
<glyph name="Upsilon" format="1">
	<unicode hex="03A5"/>
	<advance width="422"/>
	<outline>
		<component base="Y"/>
		<contour>
			<point name="aboveUC" x="300" y="680" type="move"/>
		</contour>
	</outline>
</glyph>
<glyph name="Phi" format="1">
	<unicode hex="03A6"/>
	<advance width="668"/>
	<outline>
		<contour>
			<point x="267" y="-22" type="line"/>
			<point x="296" y="-22" type="line"/>
			<point x="437" y="682" type="line"/>
			<point x="408" y="682" type="line"/>
		</contour>
		<contour>
			<point x="296" y="78" type="curve" smooth="yes"/>
			<point x="308" y="78" type="line" smooth="yes"/>
			<point x="506" y="78"/>
			<point x="652" y="192"/>
			<point x="652" y="370" type="curve" smooth="yes"/>
			<point x="652" y="495"/>
			<point x="554" y="582"/>
			<point x="410" y="582" type="curve" smooth="yes"/>
			<point x="398" y="582" type="line" smooth="yes"/>
			<point x="200" y="582"/>
			<point x="54" y="468"/>
			<point x="54" y="290" type="curve" smooth="yes"/>
			<point x="54" y="165"/>
			<point x="152" y="78"/>
		</contour>
		<contour>
			<point x="298" y="104" type="line" smooth="yes"/>
			<point x="166" y="104"/>
			<point x="84" y="184"/>
			<point x="84" y="296" type="curve" smooth="yes"/>
			<point x="84" y="450"/>
			<point x="214" y="556"/>
			<point x="396" y="556" type="curve" smooth="yes"/>
			<point x="408" y="556" type="line" smooth="yes"/>
			<point x="540" y="556"/>
			<point x="622" y="476"/>
			<point x="622" y="364" type="curve" smooth="yes"/>
			<point x="622" y="210"/>
			<point x="492" y="104"/>
			<point x="310" y="104" type="curve" smooth="yes"/>
		</contour>
	</outline>
</glyph>
<glyph name="Psi" format="1">
	<unicode hex="03A8"/>
	<advance width="628"/>
	<outline>
		<contour>
			<point x="301" y="268" type="curve"/>
			<point x="304" y="268" type="line" smooth="yes"/>
			<point x="492" y="268"/>
			<point x="574" y="348"/>
			<point x="604" y="498" type="curve" smooth="yes"/>
			<point x="636" y="660" type="line"/>
			<point x="607" y="660" type="line"/>
			<point x="574" y="498" type="line" smooth="yes"/>
			<point x="548" y="372"/>
			<point x="484" y="294"/>
			<point x="309" y="294" type="curve" smooth="yes"/>
			<point x="306" y="294" type="line" smooth="yes"/>
			<point x="204" y="294"/>
			<point x="140" y="348"/>
			<point x="140" y="456" type="curve" smooth="yes"/>
			<point x="140" y="472"/>
			<point x="141" y="489"/>
			<point x="145" y="508" type="curve" smooth="yes"/>
			<point x="175" y="660" type="line"/>
			<point x="146" y="660" type="line"/>
			<point x="116" y="508" type="line" smooth="yes"/>
			<point x="112" y="488"/>
			<point x="110" y="469"/>
			<point x="110" y="452" type="curve" smooth="yes"/>
			<point x="110" y="332"/>
			<point x="190" y="268"/>
		</contour>
		<contour>
			<point x="244" y="0" type="line"/>
			<point x="274" y="0" type="line"/>
			<point x="406" y="660" type="line"/>
			<point x="376" y="660" type="line"/>
		</contour>
	</outline>
</glyph>
<glyph name="alpha" format="1">
	<unicode hex="03B1"/>
	<advance width="512"/>
	<outline>
		<contour>
			<point x="192" y="-12" type="curve" smooth="yes"/>
			<point x="250" y="-12"/>
			<point x="310" y="33"/>
			<point x="354" y="102" type="curve"/>
			<point x="358" y="102" type="line"/>
			<point x="330" y="19"/>
			<point x="353" y="-12"/>
			<point x="392" y="-12" type="curve" smooth="yes"/>
			<point x="407" y="-12"/>
			<point x="413" y="-10"/>
			<point x="424" y="-6" type="curve"/>
			<point x="420" y="18" type="line"/>
			<point x="410" y="14"/>
			<point x="404" y="14"/>
			<point x="399" y="14" type="curve" smooth="yes"/>
			<point x="385" y="14"/>
			<point x="371" y="26"/>
			<point x="371" y="53" type="curve" smooth="yes"/>
			<point x="371" y="96"/>
			<point x="434" y="302"/>
			<point x="508" y="478" type="curve"/>
			<point x="478" y="478" type="line"/>
			<point x="426" y="342" type="line"/>
			<point x="422" y="342" type="line"/>
			<point x="412" y="452"/>
			<point x="356" y="490"/>
			<point x="300" y="490" type="curve" smooth="yes"/>
			<point x="182" y="490"/>
			<point x="46" y="368"/>
			<point x="46" y="155" type="curve" smooth="yes"/>
			<point x="46" y="45"/>
			<point x="104" y="-12"/>
		</contour>
		<contour>
			<point x="194" y="14" type="curve" smooth="yes"/>
			<point x="118" y="14"/>
			<point x="74" y="64"/>
			<point x="74" y="162" type="curve" smooth="yes"/>
			<point x="74" y="348"/>
			<point x="192" y="464"/>
			<point x="298" y="464" type="curve" smooth="yes"/>
			<point x="366" y="464"/>
			<point x="398" y="406"/>
			<point x="408" y="298" type="curve"/>
			<point x="380" y="202" type="line"/>
			<point x="356" y="114"/>
			<point x="266" y="14"/>
		</contour>
		<contour>
			<point name="aboveLC" x="320" y="502" type="move"/>
		</contour>
		<contour>
			<point name="belowLC" x="210" y="-20" type="move"/>
		</contour>
	</outline>
</glyph>
<glyph name="beta" format="1">
	<unicode hex="03B2"/>
	<advance width="508"/>
	<outline>
		<contour>
			<point x="8" y="-180" type="line"/>
			<point x="36" y="-180" type="line"/>
			<point x="53" y="-92"/>
			<point x="69" y="-14"/>
			<point x="84" y="72" type="curve"/>
			<point x="116" y="18"/>
			<point x="190" y="-12"/>
			<point x="248" y="-12" type="curve" smooth="yes"/>
			<point x="372" y="-12"/>
			<point x="464" y="80"/>
			<point x="464" y="204" type="curve" smooth="yes"/>
			<point x="464" y="306"/>
			<point x="404" y="366"/>
			<point x="316" y="378" type="curve"/>
			<point x="316" y="382" type="line"/>
			<point x="418" y="427"/>
			<point x="474" y="503"/>
			<point x="474" y="590" type="curve" smooth="yes"/>
			<point x="474" y="686"/>
			<point x="412" y="734"/>
			<point x="338" y="734" type="curve" smooth="yes"/>
			<point x="236" y="734"/>
			<point x="172" y="642"/>
			<point x="146" y="512" type="curve" smooth="yes"/>
		</contour>
		<contour>
			<point x="250" y="14" type="curve" smooth="yes"/>
			<point x="200" y="14"/>
			<point x="126" y="38"/>
			<point x="92" y="104" type="curve"/>
			<point x="119" y="244"/>
			<point x="145" y="374"/>
			<point x="172" y="502" type="curve" smooth="yes"/>
			<point x="202" y="646"/>
			<point x="260" y="708"/>
			<point x="336" y="708" type="curve" smooth="yes"/>
			<point x="400" y="708"/>
			<point x="446" y="670"/>
			<point x="446" y="584" type="curve" smooth="yes"/>
			<point x="446" y="510"/>
			<point x="382" y="414"/>
			<point x="238" y="380" type="curve"/>
			<point x="242" y="352" type="line"/>
			<point x="259" y="355"/>
			<point x="273" y="356"/>
			<point x="288" y="356" type="curve" smooth="yes"/>
			<point x="374" y="356"/>
			<point x="436" y="297"/>
			<point x="436" y="198" type="curve" smooth="yes"/>
			<point x="436" y="95"/>
			<point x="356" y="14"/>
		</contour>
	</outline>
</glyph>
